<svg width="48" height="48" viewBox="0 0 48 48" fill="none" xmlns="http://www.w3.org/2000/svg">
<g clip-path="url(#clip0_1595_2)">
<g clip-path="url(#clip1_1595_2)">
<path d="M27.0056 23.6869L22.7944 21.7219C22.4269 21.5512 22.125 21.7425 22.125 22.1494V25.8506C22.125 26.2575 22.4269 26.4487 22.7944 26.2781L27.0037 24.3131C27.3731 24.1406 27.3731 23.8594 27.0056 23.6869ZM24 6C14.0588 6 6 14.0588 6 24C6 33.9412 14.0588 42 24 42C33.9412 42 42 33.9412 42 24C42 14.0588 33.9412 6 24 6ZM24 31.3125C14.7863 31.3125 14.625 30.4819 14.625 24C14.625 17.5181 14.7863 16.6875 24 16.6875C33.2137 16.6875 33.375 17.5181 33.375 24C33.375 30.4819 33.2137 31.3125 24 31.3125Z" fill="#EBECF0"/>
</g>
</g>
<defs>
<clipPath id="clip0_1595_2">
<rect width="48" height="48" fill="white"/>
</clipPath>
<clipPath id="clip1_1595_2">
<rect width="48" height="48" fill="white"/>
</clipPath>
</defs>
</svg>
