<svg width="206" height="201" viewBox="0 0 206 201" fill="none" xmlns="http://www.w3.org/2000/svg">
<path d="M163.577 84.966C171.93 84.966 180.095 82.4891 187.04 77.8485C193.986 73.2079 199.399 66.612 202.595 58.8949C205.792 51.1778 206.628 42.6862 204.999 34.4938C203.369 26.3014 199.347 18.7762 193.44 12.8698C187.534 6.96337 180.009 2.94107 171.816 1.3115C163.624 -0.318075 155.132 0.518279 147.415 3.71479C139.698 6.91131 133.102 12.3244 128.462 19.2696C123.821 26.2148 121.344 34.3801 121.344 42.733L142.679 42.733C142.679 38.5997 143.904 34.5592 146.201 31.1225C148.497 27.6858 151.761 25.0073 155.58 23.4255C159.398 21.8438 163.6 21.4299 167.654 22.2363C171.708 23.0427 175.432 25.033 178.354 27.9557C181.277 30.8784 183.267 34.6021 184.074 38.656C184.88 42.7098 184.466 46.9118 182.885 50.7304C181.303 54.5491 178.624 57.813 175.188 60.1093C171.751 62.4056 167.71 63.6313 163.577 63.6313V84.966Z" fill="#FAE8FF"/>
<mask id="path-2-outside-1_82_476" maskUnits="userSpaceOnUse" x="8.27167" y="53.1598" width="147" height="124" fill="black">
<rect fill="white" x="8.27167" y="53.1598" width="147" height="124"/>
<path fill-rule="evenodd" clip-rule="evenodd" d="M72.7574 54.1598H146.745C150.447 54.1598 153.46 57.1727 153.503 60.8742V111.146C153.503 114.848 150.49 117.861 146.788 117.861H137.147V142.093C137.147 143.255 136.415 144.288 135.296 144.719C134.952 144.848 134.651 144.891 134.306 144.891C133.489 144.891 132.714 144.546 132.154 143.901L112.528 120.486H101.595C100.777 120.486 100.089 119.798 100.089 118.98C100.089 118.162 100.777 117.473 101.595 117.473H113.216C113.69 117.473 114.077 117.689 114.378 118.033L134.091 141.534V116.397C134.091 115.58 134.78 114.891 135.598 114.891H146.745C148.811 114.891 150.447 113.212 150.447 111.189V60.8742C150.447 58.8082 148.768 57.1727 146.745 57.1727H72.7574C70.6915 57.1727 69.0559 58.8513 69.0559 60.8742V76.7564C69.0559 77.5742 68.3672 78.2629 67.5494 78.2629C66.7317 78.2629 66.043 77.5742 66.043 76.7564V60.8742C66.043 57.1727 69.0559 54.1598 72.7574 54.1598ZM87.6498 85.5799H16.933C12.715 85.5799 9.27167 89.0232 9.27167 93.2413V142.48C9.27167 146.699 12.715 150.142 16.933 150.142H24.7665V173.47C24.7665 174.546 25.4121 175.45 26.4021 175.794C26.6603 175.88 26.9616 175.924 27.2199 175.924C27.9516 175.924 28.6402 175.622 29.1137 175.02L49.8165 149.582C50.333 148.937 50.2469 147.99 49.6013 147.473C48.9557 146.957 48.0088 147.043 47.4923 147.688L27.7794 171.921V148.635C27.7794 147.818 27.0907 147.129 26.273 147.129H16.933C14.3505 147.129 12.2846 145.063 12.2846 142.48V93.2413C12.2846 90.6588 14.3505 88.5928 16.933 88.5928H87.6928C90.2753 88.5928 92.3413 90.6588 92.3413 93.2413V143.341C92.3413 145.924 90.2753 147.99 87.6928 147.99H55.541C54.7232 147.99 54.0346 148.678 54.0346 149.496C54.0346 150.314 54.7232 151.003 55.541 151.003H87.6928C91.9109 151.003 95.3542 147.559 95.3542 143.341V93.2413C95.3542 89.0232 91.9109 85.5799 87.6498 85.5799ZM24.3361 130.988C24.3361 131.806 25.0248 132.495 25.8426 132.495H53.8194C54.6372 132.495 55.3258 131.806 55.3258 130.988C55.3258 130.171 54.6372 129.482 53.8194 129.482H25.8426C24.9818 129.482 24.3361 130.171 24.3361 130.988ZM75.7704 118.722H26.7033C25.8425 118.722 25.1969 118.033 25.1969 117.215C25.1969 116.397 25.8856 115.709 26.7033 115.709H75.7704C76.5882 115.709 77.2768 116.397 77.2768 117.215C77.2768 118.033 76.5882 118.722 75.7704 118.722ZM26.7033 104.518H76.6312C77.449 104.518 78.1376 103.829 78.1376 103.012C78.1376 102.194 77.449 101.505 76.6312 101.505H26.7033C25.8856 101.505 25.1969 102.194 25.1969 103.012C25.1969 103.829 25.8425 104.518 26.7033 104.518Z"/>
</mask>
<path fill-rule="evenodd" clip-rule="evenodd" d="M72.7574 54.1598H146.745C150.447 54.1598 153.46 57.1727 153.503 60.8742V111.146C153.503 114.848 150.49 117.861 146.788 117.861H137.147V142.093C137.147 143.255 136.415 144.288 135.296 144.719C134.952 144.848 134.651 144.891 134.306 144.891C133.489 144.891 132.714 144.546 132.154 143.901L112.528 120.486H101.595C100.777 120.486 100.089 119.798 100.089 118.98C100.089 118.162 100.777 117.473 101.595 117.473H113.216C113.69 117.473 114.077 117.689 114.378 118.033L134.091 141.534V116.397C134.091 115.58 134.78 114.891 135.598 114.891H146.745C148.811 114.891 150.447 113.212 150.447 111.189V60.8742C150.447 58.8082 148.768 57.1727 146.745 57.1727H72.7574C70.6915 57.1727 69.0559 58.8513 69.0559 60.8742V76.7564C69.0559 77.5742 68.3672 78.2629 67.5494 78.2629C66.7317 78.2629 66.043 77.5742 66.043 76.7564V60.8742C66.043 57.1727 69.0559 54.1598 72.7574 54.1598ZM87.6498 85.5799H16.933C12.715 85.5799 9.27167 89.0232 9.27167 93.2413V142.48C9.27167 146.699 12.715 150.142 16.933 150.142H24.7665V173.47C24.7665 174.546 25.4121 175.45 26.4021 175.794C26.6603 175.88 26.9616 175.924 27.2199 175.924C27.9516 175.924 28.6402 175.622 29.1137 175.02L49.8165 149.582C50.333 148.937 50.2469 147.99 49.6013 147.473C48.9557 146.957 48.0088 147.043 47.4923 147.688L27.7794 171.921V148.635C27.7794 147.818 27.0907 147.129 26.273 147.129H16.933C14.3505 147.129 12.2846 145.063 12.2846 142.48V93.2413C12.2846 90.6588 14.3505 88.5928 16.933 88.5928H87.6928C90.2753 88.5928 92.3413 90.6588 92.3413 93.2413V143.341C92.3413 145.924 90.2753 147.99 87.6928 147.99H55.541C54.7232 147.99 54.0346 148.678 54.0346 149.496C54.0346 150.314 54.7232 151.003 55.541 151.003H87.6928C91.9109 151.003 95.3542 147.559 95.3542 143.341V93.2413C95.3542 89.0232 91.9109 85.5799 87.6498 85.5799ZM24.3361 130.988C24.3361 131.806 25.0248 132.495 25.8426 132.495H53.8194C54.6372 132.495 55.3258 131.806 55.3258 130.988C55.3258 130.171 54.6372 129.482 53.8194 129.482H25.8426C24.9818 129.482 24.3361 130.171 24.3361 130.988ZM75.7704 118.722H26.7033C25.8425 118.722 25.1969 118.033 25.1969 117.215C25.1969 116.397 25.8856 115.709 26.7033 115.709H75.7704C76.5882 115.709 77.2768 116.397 77.2768 117.215C77.2768 118.033 76.5882 118.722 75.7704 118.722ZM26.7033 104.518H76.6312C77.449 104.518 78.1376 103.829 78.1376 103.012C78.1376 102.194 77.449 101.505 76.6312 101.505H26.7033C25.8856 101.505 25.1969 102.194 25.1969 103.012C25.1969 103.829 25.8425 104.518 26.7033 104.518Z" fill="#0D2C5E"/>
<path d="M153.503 60.8742H154.503L154.503 60.8626L153.503 60.8742ZM137.147 117.861V116.861H136.147V117.861H137.147ZM135.296 144.719L135.648 145.655L135.655 145.652L135.296 144.719ZM132.154 143.901L131.388 144.543L131.393 144.55L131.399 144.556L132.154 143.901ZM112.528 120.486L113.294 119.844L112.994 119.486H112.528V120.486ZM114.378 118.033L115.144 117.39L115.138 117.382L115.131 117.375L114.378 118.033ZM134.091 141.534L133.325 142.176L135.091 144.282V141.534H134.091ZM24.7665 150.142H25.7665V149.142H24.7665V150.142ZM26.4021 175.794L26.0735 176.739L26.0859 176.743L26.4021 175.794ZM29.1137 175.02L28.3381 174.388L28.3327 174.395L28.3274 174.402L29.1137 175.02ZM49.8165 149.582L50.5922 150.214L50.5974 150.207L49.8165 149.582ZM49.6013 147.473L48.9766 148.254L49.6013 147.473ZM47.4923 147.688L48.2681 148.32L48.2732 148.313L47.4923 147.688ZM27.7794 171.921H26.7794V174.735L28.5551 172.552L27.7794 171.921ZM146.745 53.1598H72.7574V55.1598H146.745V53.1598ZM154.503 60.8626C154.453 56.6201 151.001 53.1598 146.745 53.1598V55.1598C149.892 55.1598 152.466 57.7252 152.503 60.8859L154.503 60.8626ZM154.503 111.146V60.8742H152.503V111.146H154.503ZM146.788 118.861C151.042 118.861 154.503 115.4 154.503 111.146H152.503C152.503 114.296 149.938 116.861 146.788 116.861V118.861ZM137.147 118.861H146.788V116.861H137.147V118.861ZM138.147 142.093V117.861H136.147V142.093H138.147ZM135.655 145.652C137.141 145.081 138.147 143.69 138.147 142.093H136.147C136.147 142.821 135.69 143.496 134.937 143.785L135.655 145.652ZM134.306 145.891C134.751 145.891 135.174 145.833 135.648 145.655L134.945 143.782C134.731 143.863 134.551 143.891 134.306 143.891V145.891ZM131.399 144.556C132.149 145.421 133.2 145.891 134.306 145.891V143.891C133.778 143.891 133.279 143.672 132.91 143.246L131.399 144.556ZM111.761 121.129L131.388 144.543L132.921 143.258L113.294 119.844L111.761 121.129ZM101.595 121.486H112.528V119.486H101.595V121.486ZM99.0886 118.98C99.0886 120.35 100.225 121.486 101.595 121.486V119.486C101.33 119.486 101.089 119.245 101.089 118.98H99.0886ZM101.595 116.473C100.225 116.473 99.0886 117.61 99.0886 118.98H101.089C101.089 118.714 101.33 118.473 101.595 118.473V116.473ZM113.216 116.473H101.595V118.473H113.216V116.473ZM115.131 117.375C114.678 116.856 114.031 116.473 113.216 116.473V118.473C113.348 118.473 113.477 118.521 113.626 118.692L115.131 117.375ZM134.857 140.891L115.144 117.39L113.612 118.676L133.325 142.176L134.857 140.891ZM133.091 116.397V141.534H135.091V116.397H133.091ZM135.598 113.891C134.228 113.891 133.091 115.027 133.091 116.397H135.091C135.091 116.132 135.332 115.891 135.598 115.891V113.891ZM146.745 113.891H135.598V115.891H146.745V113.891ZM149.447 111.189C149.447 112.668 148.251 113.891 146.745 113.891V115.891C149.371 115.891 151.447 113.757 151.447 111.189H149.447ZM149.447 60.8742V111.189H151.447V60.8742H149.447ZM146.745 58.1727C148.224 58.1727 149.447 59.3681 149.447 60.8742H151.447C151.447 58.2484 149.313 56.1727 146.745 56.1727V58.1727ZM72.7574 58.1727H146.745V56.1727H72.7574V58.1727ZM70.0559 60.8742C70.0559 59.396 71.2513 58.1727 72.7574 58.1727V56.1727C70.1316 56.1727 68.0559 58.3066 68.0559 60.8742H70.0559ZM70.0559 76.7564V60.8742H68.0559V76.7564H70.0559ZM67.5494 79.2629C68.9195 79.2629 70.0559 78.1265 70.0559 76.7564H68.0559C68.0559 77.0219 67.8149 77.2629 67.5494 77.2629V79.2629ZM65.043 76.7564C65.043 78.1265 66.1794 79.2629 67.5494 79.2629V77.2629C67.284 77.2629 67.043 77.0219 67.043 76.7564H65.043ZM65.043 60.8742V76.7564H67.043V60.8742H65.043ZM72.7574 53.1598C68.5036 53.1598 65.043 56.6204 65.043 60.8742H67.043C67.043 57.725 69.6082 55.1598 72.7574 55.1598V53.1598ZM16.933 86.5799H87.6498V84.5799H16.933V86.5799ZM10.2717 93.2413C10.2717 89.5755 13.2673 86.5799 16.933 86.5799V84.5799C12.1627 84.5799 8.27167 88.471 8.27167 93.2413H10.2717ZM10.2717 142.48V93.2413H8.27167V142.48H10.2717ZM16.933 149.142C13.2673 149.142 10.2717 146.146 10.2717 142.48H8.27167C8.27167 147.251 12.1627 151.142 16.933 151.142V149.142ZM24.7665 149.142H16.933V151.142H24.7665V149.142ZM25.7665 173.47V150.142H23.7665V173.47H25.7665ZM26.7306 174.85C26.1471 174.647 25.7665 174.125 25.7665 173.47H23.7665C23.7665 174.967 24.6772 176.253 26.0736 176.739L26.7306 174.85ZM27.2199 174.924C27.0577 174.924 26.8643 174.894 26.7183 174.846L26.0859 176.743C26.4564 176.867 26.8655 176.924 27.2199 176.924V174.924ZM28.3274 174.402C28.0577 174.745 27.6685 174.924 27.2199 174.924V176.924C28.2347 176.924 29.2227 176.499 29.9 175.637L28.3274 174.402ZM49.0409 148.951L28.3381 174.388L29.8893 175.651L50.5921 150.214L49.0409 148.951ZM48.9766 148.254C49.1729 148.411 49.2218 148.725 49.0357 148.958L50.5974 150.207C51.4442 149.148 51.321 147.568 50.226 146.692L48.9766 148.254ZM48.2732 148.313C48.4302 148.117 48.7439 148.068 48.9766 148.254L50.226 146.692C49.1675 145.846 47.5874 145.969 46.7114 147.064L48.2732 148.313ZM28.5551 172.552L48.268 148.32L46.7166 147.057L27.0037 171.29L28.5551 172.552ZM26.7794 148.635V171.921H28.7794V148.635H26.7794ZM26.273 148.129C26.5385 148.129 26.7794 148.37 26.7794 148.635H28.7794C28.7794 147.265 27.643 146.129 26.273 146.129V148.129ZM16.933 148.129H26.273V146.129H16.933V148.129ZM11.2846 142.48C11.2846 145.615 13.7983 148.129 16.933 148.129V146.129C14.9028 146.129 13.2846 144.511 13.2846 142.48H11.2846ZM11.2846 93.2413V142.48H13.2846V93.2413H11.2846ZM16.933 87.5928C13.7983 87.5928 11.2846 90.1065 11.2846 93.2413H13.2846C13.2846 91.2111 14.9028 89.5928 16.933 89.5928V87.5928ZM87.6928 87.5928H16.933V89.5928H87.6928V87.5928ZM93.3413 93.2413C93.3413 90.1065 90.8276 87.5928 87.6928 87.5928V89.5928C89.723 89.5928 91.3413 91.2111 91.3413 93.2413H93.3413ZM93.3413 143.341V93.2413H91.3413V143.341H93.3413ZM87.6928 148.99C90.8276 148.99 93.3413 146.476 93.3413 143.341H91.3413C91.3413 145.371 89.723 146.99 87.6928 146.99V148.99ZM55.541 148.99H87.6928V146.99H55.541V148.99ZM55.0346 149.496C55.0346 149.231 55.2755 148.99 55.541 148.99V146.99C54.171 146.99 53.0346 148.126 53.0346 149.496H55.0346ZM55.541 150.003C55.2755 150.003 55.0346 149.762 55.0346 149.496H53.0346C53.0346 150.866 54.171 152.003 55.541 152.003V150.003ZM87.6928 150.003H55.541V152.003H87.6928V150.003ZM94.3542 143.341C94.3542 147.007 91.3586 150.003 87.6928 150.003V152.003C92.4632 152.003 96.3542 148.112 96.3542 143.341H94.3542ZM94.3542 93.2413V143.341H96.3542V93.2413H94.3542ZM87.6498 86.5799C91.3622 86.5799 94.3542 89.5792 94.3542 93.2413H96.3542C96.3542 88.4673 92.4595 84.5799 87.6498 84.5799V86.5799ZM25.8426 131.495C25.5771 131.495 25.3361 131.254 25.3361 130.988H23.3361C23.3361 132.359 24.4725 133.495 25.8426 133.495V131.495ZM53.8194 131.495H25.8426V133.495H53.8194V131.495ZM54.3258 130.988C54.3258 131.254 54.0849 131.495 53.8194 131.495V133.495C55.1895 133.495 56.3258 132.359 56.3258 130.988H54.3258ZM53.8194 130.482C54.0849 130.482 54.3258 130.723 54.3258 130.988H56.3258C56.3258 129.618 55.1895 128.482 53.8194 128.482V130.482ZM25.8426 130.482H53.8194V128.482H25.8426V130.482ZM25.3361 130.988C25.3361 130.704 25.5526 130.482 25.8426 130.482V128.482C24.4109 128.482 23.3361 129.637 23.3361 130.988H25.3361ZM26.7033 119.722H75.7704V117.722H26.7033V119.722ZM24.1969 117.215C24.1969 118.567 25.2717 119.722 26.7033 119.722V117.722C26.4134 117.722 26.1969 117.499 26.1969 117.215H24.1969ZM26.7033 114.709C25.3333 114.709 24.1969 115.845 24.1969 117.215H26.1969C26.1969 116.95 26.4379 116.709 26.7033 116.709V114.709ZM75.7704 114.709H26.7033V116.709H75.7704V114.709ZM78.2768 117.215C78.2768 115.845 77.1405 114.709 75.7704 114.709V116.709C76.0359 116.709 76.2768 116.95 76.2768 117.215H78.2768ZM75.7704 119.722C77.1405 119.722 78.2768 118.585 78.2768 117.215H76.2768C76.2768 117.481 76.0359 117.722 75.7704 117.722V119.722ZM76.6312 103.518H26.7033V105.518H76.6312V103.518ZM77.1376 103.012C77.1376 103.277 76.8967 103.518 76.6312 103.518V105.518C78.0013 105.518 79.1376 104.382 79.1376 103.012H77.1376ZM76.6312 102.505C76.8967 102.505 77.1376 102.746 77.1376 103.012H79.1376C79.1376 101.642 78.0013 100.505 76.6312 100.505V102.505ZM26.7033 102.505H76.6312V100.505H26.7033V102.505ZM26.1969 103.012C26.1969 102.746 26.4379 102.505 26.7033 102.505V100.505C25.3333 100.505 24.1969 101.642 24.1969 103.012H26.1969ZM26.7033 103.518C26.4134 103.518 26.1969 103.296 26.1969 103.012H24.1969C24.1969 104.363 25.2717 105.518 26.7033 105.518V103.518Z" fill="#0D2C5E" mask="url(#path-2-outside-1_82_476)"/>
<mask id="path-4-inside-2_82_476" fill="white">
<path fill-rule="evenodd" clip-rule="evenodd" d="M110.848 88.4044C110.848 91.3758 108.439 93.7846 105.468 93.7846C102.496 93.7846 100.087 91.3758 100.087 88.4044C100.087 85.4331 102.496 83.0243 105.468 83.0243C108.439 83.0243 110.848 85.4331 110.848 88.4044ZM128.064 88.4044C128.064 91.3758 125.655 93.7846 122.684 93.7846C119.713 93.7846 117.304 91.3758 117.304 88.4044C117.304 85.4331 119.713 83.0243 122.684 83.0243C125.655 83.0243 128.064 85.4331 128.064 88.4044Z"/>
</mask>
<path fill-rule="evenodd" clip-rule="evenodd" d="M110.848 88.4044C110.848 91.3758 108.439 93.7846 105.468 93.7846C102.496 93.7846 100.087 91.3758 100.087 88.4044C100.087 85.4331 102.496 83.0243 105.468 83.0243C108.439 83.0243 110.848 85.4331 110.848 88.4044ZM128.064 88.4044C128.064 91.3758 125.655 93.7846 122.684 93.7846C119.713 93.7846 117.304 91.3758 117.304 88.4044C117.304 85.4331 119.713 83.0243 122.684 83.0243C125.655 83.0243 128.064 85.4331 128.064 88.4044Z" fill="#2563EB"/>
<path d="M105.468 94.7846C108.991 94.7846 111.848 91.9281 111.848 88.4044H109.848C109.848 90.8235 107.887 92.7846 105.468 92.7846V94.7846ZM99.0874 88.4044C99.0874 91.9281 101.944 94.7846 105.468 94.7846V92.7846C103.048 92.7846 101.087 90.8235 101.087 88.4044H99.0874ZM105.468 82.0243C101.944 82.0243 99.0874 84.8808 99.0874 88.4044H101.087C101.087 85.9854 103.048 84.0243 105.468 84.0243V82.0243ZM111.848 88.4044C111.848 84.8808 108.991 82.0243 105.468 82.0243V84.0243C107.887 84.0243 109.848 85.9854 109.848 88.4044H111.848ZM122.684 94.7846C126.208 94.7846 129.064 91.9281 129.064 88.4044H127.064C127.064 90.8235 125.103 92.7846 122.684 92.7846V94.7846ZM116.304 88.4044C116.304 91.9281 119.16 94.7846 122.684 94.7846V92.7846C120.265 92.7846 118.304 90.8235 118.304 88.4044H116.304ZM122.684 82.0243C119.16 82.0243 116.304 84.8808 116.304 88.4044H118.304C118.304 85.9854 120.265 84.0243 122.684 84.0243V82.0243ZM129.064 88.4044C129.064 84.8808 126.208 82.0243 122.684 82.0243V84.0243C125.103 84.0243 127.064 85.9854 127.064 88.4044H129.064Z" fill="#2563EB" mask="url(#path-4-inside-2_82_476)"/>
</svg>
