<?xml version="1.0" encoding="utf-8"?>
<!-- Generator: Adobe Illustrator 25.2.1, SVG Export Plug-In . SVG Version: 6.00 Build 0)  -->
<svg version="1.1" id="Capa_1" xmlns="http://www.w3.org/2000/svg" xmlns:xlink="http://www.w3.org/1999/xlink" x="0px" y="0px"
	 viewBox="0 0 397 397" style="enable-background:new 0 0 397 397;" xml:space="preserve">
<style type="text/css">
	.st0{fill:#FF0000;}
</style>
<g>
	<path class="st0" d="M203.2,130H38.9c-9.8,0-17.8,8-17.8,17.8v114.4c0,9.8,8,17.8,17.8,17.8h18.2v54.2c0,2.5,1.5,4.6,3.8,5.4
		c0.6,0.2,1.3,0.3,1.9,0.3c1.7,0,3.3-0.7,4.4-2.1l48.1-59.1c1.2-1.5,1-3.7-0.5-4.9c-1.5-1.2-3.7-1-4.9,0.5l-45.8,56.3v-54.1
		c0-1.9-1.6-3.5-3.5-3.5H38.9c-6,0-10.8-4.8-10.8-10.8V147.8c0-6,4.8-10.8,10.8-10.8h164.4c6,0,10.8,4.8,10.8,10.8v116.4
		c0,6-4.8,10.8-10.8,10.8h-74.7c-1.9,0-3.5,1.6-3.5,3.5s1.6,3.5,3.5,3.5h74.7c9.8,0,17.8-8,17.8-17.8V147.8
		C221.1,138,213.1,130,203.2,130z"/>
	<path class="st0" d="M56.1,235.5c0,1.9,1.6,3.5,3.5,3.5h65c1.9,0,3.5-1.6,3.5-3.5s-1.6-3.5-3.5-3.5h-65
		C57.6,232,56.1,233.6,56.1,235.5z"/>
	<path class="st0" d="M61.6,207h114c1.9,0,3.5-1.6,3.5-3.5s-1.6-3.5-3.5-3.5h-114c-1.9,0-3.5,1.6-3.5,3.5S59.6,207,61.6,207z"/>
	<path class="st0" d="M61.6,174h116c1.9,0,3.5-1.6,3.5-3.5s-1.6-3.5-3.5-3.5h-116c-1.9,0-3.5,1.6-3.5,3.5S59.6,174,61.6,174z"/>
	<path class="st0" d="M340.5,57H168.6c-8.6,0-15.6,7-15.6,15.6v36.9c0,1.9,1.6,3.5,3.5,3.5s3.5-1.6,3.5-3.5V72.6
		c0-4.7,3.8-8.6,8.6-8.6h171.9c4.7,0,8.6,3.8,8.6,8.6v116.9c0,4.7-3.8,8.6-8.6,8.6h-25.9c-1.9,0-3.5,1.6-3.5,3.5v58.4l-45.8-54.6
		c-0.7-0.8-1.6-1.3-2.7-1.3h-27c-1.9,0-3.5,1.6-3.5,3.5s1.6,3.5,3.5,3.5h25.4l45.6,54.4c1.3,1.5,3.1,2.3,5,2.3
		c0.8,0,1.5-0.1,2.3-0.4c2.6-1,4.3-3.4,4.3-6.1V205h22.4c8.6,0,15.6-7,15.6-15.6V72.6C356.1,64,349.1,57,340.5,57z"/>
	<circle class="st0" cx="251.6" cy="134.5" r="12.5"/>
	<circle class="st0" cx="291.6" cy="134.5" r="12.5"/>
</g>
</svg>
