<?xml version="1.0" encoding="utf-8"?>
<!-- Generator: Adobe Illustrator 25.2.1, SVG Export Plug-In . SVG Version: 6.00 Build 0)  -->
<svg version="1.1" id="Capa_1" xmlns="http://www.w3.org/2000/svg" xmlns:xlink="http://www.w3.org/1999/xlink" x="0px" y="0px"
	 viewBox="0 0 324 476" style="enable-background:new 0 0 324 476;" xml:space="preserve">
<style type="text/css">
	.st0{fill:#DAE5E7;}
	.st1{fill:#15212F;}
	.st2{fill:#4B858E;}
	.st3{fill:#709CA3;}
	.st4{fill:#FFFFFF;}
</style>
<g>
	<ellipse transform="matrix(0.825 -0.5651 0.5651 0.825 -95.7439 102.7635)" class="st0" cx="118.1" cy="206" rx="76.8" ry="32.5"/>
	<path class="st1" d="M73.7,257.5c-9.1,0-15.8-2.7-19.4-7.8c-10.3-15,10-46.8,45.1-70.9c35.2-24.1,72.1-31.5,82.4-16.5
		c5,7.3,3,18.8-5.6,32.2c-8.5,13.3-22.6,27-39.6,38.7c-17,11.6-34.9,19.8-50.4,22.9C81.7,257.1,77.5,257.5,73.7,257.5z M162.4,155.5
		c-16.3,0-39.7,8.6-62.4,24.2c-34.7,23.8-54.8,54.9-44.9,69.5c4.8,7,15.8,9.1,31,6c15.4-3.1,33.1-11.2,50-22.8
		c16.9-11.6,30.8-25.2,39.3-38.4c8.4-13.1,10.4-24.1,5.6-31.1C177.6,157.9,171,155.5,162.4,155.5z"/>
</g>
<g>
	<g>
		<path class="st0" d="M288.7,328.3L181.8,162l-0.5,0.3c0.2,0.2,0.4,0.5,0.6,0.7c10.1,14.8-10,46.2-45,70.2
			C104.6,255.3,71,263.3,58,252.8l102.5,159.5c11.1,17.3,21.7,25.7,51.9,17.5c7.9-2.2,22.6-9.4,29.8-13.8c10.8-6.5,37-26,49-44
			C303.1,354.2,300.3,346.4,288.7,328.3z"/>
		<path class="st1" d="M192.3,433.5c-15.5,0-23.8-7.7-32.3-20.9L55.8,250.5l2.4,2c12.9,10.5,46.6,2,78.3-19.7
			c16.9-11.6,30.8-25.2,39.3-38.4c8.4-13.1,10.4-24.1,5.6-31.1c-0.1-0.2-0.2-0.3-0.4-0.5l-0.5-0.7l1.4-0.9l0.3,0.4l106.9,166.3
			c11.6,18.1,14.6,26.1,2.5,44.3c-12.2,18.3-38.4,37.6-49.2,44.2c-7.2,4.3-22,11.7-29.9,13.8C204.6,432.5,198,433.5,192.3,433.5z
			 M59.7,254.7l101.2,157.4c11.6,18,22.2,25.2,51.4,17.2c7.8-2.1,22.5-9.4,29.6-13.7c10.3-6.2,36.9-25.9,48.8-43.8
			c11.8-17.7,8.9-25.5-2.5-43.2l-104.1-162c2.3,7.2-0.2,17.1-7.5,28.3c-8.5,13.3-22.6,27-39.6,38.7
			C106.6,254.5,74.2,263.2,59.7,254.7z"/>
	</g>
	<g>
		<path class="st0" d="M52.8,244.1l-0.4,0.2l0.6,0.9C53,244.9,52.9,244.5,52.8,244.1z"/>
		<path class="st1" d="M54.3,248.1l-2.6-4l1.4-0.9l0.2,0.9c0.1,0.3,0.1,0.7,0.2,1L54.3,248.1z"/>
	</g>
</g>
<g>
	<path class="st2" d="M210.6,208.7c-19,10.2-31.9,30.3-31.9,53.3c0,33.4,27.1,60.5,60.5,60.5c13.7,0,26.3-4.6,36.4-12.2L210.6,208.7
		z"/>
</g>
<g>
	<path class="st1" d="M193.5,127.5c-0.7,0-1.3-0.6-1.3-1.3V43.9c0-0.7,0.6-1.3,1.3-1.3s1.3,0.6,1.3,1.3v82.3
		C194.8,126.9,194.2,127.5,193.5,127.5z"/>
</g>
<g>
	<path class="st1" d="M160.1,135.2c-0.7,0-1.3-0.6-1.3-1.3V83.7c0-0.7,0.6-1.3,1.3-1.3s1.3,0.6,1.3,1.3v50.2
		C161.4,134.6,160.8,135.2,160.1,135.2z"/>
</g>
<g>
	<ellipse transform="matrix(0.825 -0.5651 0.5651 0.825 -95.7428 101.7691)" class="st2" cx="116.5" cy="205.5" rx="38" ry="16.1"/>
	<path class="st1" d="M94.5,231.2c-4.5,0-8-1.3-9.8-3.9c-2.5-3.7-1.6-9.5,2.8-16.2c4.2-6.6,11.2-13.4,19.7-19.2
		c8.4-5.8,17.3-9.8,25-11.4c7.8-1.6,13.6-0.4,16.1,3.3l0,0c2.5,3.7,1.6,9.5-2.8,16.2c-4.2,6.6-11.2,13.4-19.7,19.2
		C114.5,227,102.8,231.2,94.5,231.2z M138.5,180.8c-1.8,0-3.9,0.2-6.1,0.7c-7.6,1.5-16.3,5.5-24.7,11.2
		c-8.3,5.7-15.2,12.4-19.4,18.9c-4.1,6.4-5.1,11.8-2.8,15.1c4.9,7.1,22.7,3.3,39.8-8.4c8.3-5.7,15.2-12.4,19.4-18.9
		c4.1-6.4,5.1-11.8,2.8-15.1l0,0C145.8,182,142.7,180.8,138.5,180.8z"/>
</g>
<g>
	<path class="st1" d="M102.6,246.3c-6.8,0-11.9-1.8-15.2-5.3c-8.2-8.7-2.9-24.5-2.7-25.1l0.9,0.3c-0.1,0.2-5.3,15.9,2.5,24.1
		c5.4,5.8,15.9,6.6,31.1,2.4l0.3,1C113.1,245.5,107.4,246.3,102.6,246.3z"/>
</g>
<g>
	<g>
		<path class="st3" d="M289.2,372.1c2.1-3.1,3.7-5.9,4.9-8.5c-6.2,5.7-43.3,40.5-86.4,25.3c-47.2-16.7-122-131.3-122-131.3
			s-4,0-13,1c-3.2,0.4-12-3-12-3l100.1,156.2c5.9,8.8,15.6,19,25.9,19.8c9.8,0.8,14,1,25.7-2.9c7.9-2.3,21.8-9.2,28.7-13.4
			C251.6,408.9,277.4,389.8,289.2,372.1z"/>
	</g>
</g>
<g>
	<path class="st4" d="M100.7,318.5c0,0,21.5,14.5,76.5-19.5s50.5-63.5,50.5-63.5l19.5,29.5c0,0-4.5,28.5-53.5,58.5
		s-75.8,21.8-75.8,21.8L100.7,318.5z"/>
	<path class="st1" d="M127.6,346.8c-6.4,0-9.8-1-9.8-1l-0.2-0.1l-0.1-0.2L99,316.8l2,1.3c0.2,0.1,22,13.9,76-19.5s50.3-62.7,50.3-63
		l-0.3-2.2l20.9,31.5v0.2c0,0.3-5.1,29.1-53.7,58.8C162.2,343.4,139.6,346.8,127.6,346.8z M118.2,344.9c2.4,0.6,29,6.5,75.2-21.8
		s52.7-55.5,53.2-58l-18.4-27.8c-0.1,7-3.9,33.2-50.8,62.2c-46.7,28.9-69.2,23.1-75.3,20.4L118.2,344.9z"/>
</g>
<g>
	<path class="st1" d="M115.8,321.5c-10,0-15.2-2.4-15.4-2.5l0.4-0.9c0.3,0.1,26.6,12.3,76-19.5c55-35.4,50.8-64.2,50.8-64.5l1-0.2
		c0.1,0.3,1.2,7.5-4.5,19.3c-5.3,10.8-17.7,27.5-46.7,46.2C149.4,317.5,128.7,321.5,115.8,321.5z"/>
</g>
<g>
	<path class="st1" d="M129.3,347.2c-8.1,0-12.2-1.6-12.3-1.7l0.4-0.9c0.3,0.1,25.7,10.1,75.5-21c52.1-32.4,53.8-58.3,53.8-58.6h1
		c0,1.1-1.6,26.6-54.2,59.4C163.1,343.4,141.6,347.2,129.3,347.2z"/>
</g>
</svg>
