<?xml version="1.0" encoding="utf-8"?>
<!-- Generator: Adobe Illustrator 25.2.1, SVG Export Plug-In . SVG Version: 6.00 Build 0)  -->
<svg version="1.1" id="Capa_1" xmlns="http://www.w3.org/2000/svg" xmlns:xlink="http://www.w3.org/1999/xlink" x="0px" y="0px"
	 viewBox="0 0 175.7 58.2" style="enable-background:new 0 0 175.7 58.2;" xml:space="preserve">
<style type="text/css">
	.st0{fill-rule:evenodd;clip-rule:evenodd;}
	.st1{fill-rule:evenodd;clip-rule:evenodd;fill:#FFFFFF;}
</style>
<g>
	<polygon class="st0" points="16.9,47.4 56.9,0 40,0 0,47.4 16.9,47.4 	"/>
	<polygon class="st0" points="40,47.4 79.9,0 63,0 23,47.4 40,47.4 	"/>
	<polygon class="st0" points="0,53.8 0,53.4 2.5,53.4 2.5,53.8 1.5,53.8 1.5,58.1 1.1,58.1 1.1,53.8 0,53.8 	"/>
	<polygon class="st0" points="7,58.1 7,53.4 7.4,53.4 7.4,55.4 9.2,55.4 9.2,53.4 9.6,53.4 9.6,58.1 9.2,58.1 9.2,55.7 7.4,55.7 
		7.4,58.1 7,58.1 	"/>
	<polygon class="st0" points="14.3,58.1 14.3,53.4 16.4,53.4 16.4,53.8 14.7,53.8 14.7,55.4 16.3,55.4 16.3,55.8 14.7,55.8 
		14.7,57.7 16.5,57.7 16.5,58.1 14.3,58.1 	"/>
	<polygon class="st0" points="29.1,57.4 29.1,57.4 29.9,53.4 30.2,53.4 29.3,58.1 28.9,58.1 28.1,54.1 28.1,54.1 27.3,58.1 
		26.8,58.1 25.9,53.4 26.4,53.4 27.1,57.3 27.1,57.3 27.9,53.4 28.3,53.4 29.1,57.4 	"/>
	<path class="st0" d="M34.6,55.6c0-1,0.1-2.3,1.4-2.3c1.4,0,1.4,1.5,1.4,2.6c0,1-0.1,2.4-1.4,2.4C34.6,58.2,34.6,56.6,34.6,55.6
		L34.6,55.6z"/>
	<path class="st1" d="M37,55.7c0-0.7,0-2.1-1-2.1c-0.9,0-1,1.4-1,2.1c0,0.7,0,2.1,1,2.1C37,57.8,37,56.4,37,55.7L37,55.7z"/>
	<path class="st0" d="M42.4,55.9v2.2H42v-4.7h0.9c0.9,0,1.4,0.3,1.4,1.2c0,0.5-0.2,1-0.7,1.1v0c0.5,0.1,0.6,0.6,0.6,1.1
		c0,0.2,0,1.1,0.2,1.2v0.1h-0.4c-0.2-0.4-0.2-1.2-0.2-1.5c0-0.6-0.5-0.7-1-0.7H42.4L42.4,55.9z"/>
	<path class="st1" d="M42.4,55.5h0.7c0.1,0,0.8-0.1,0.8-0.9c0-0.7-0.3-0.9-1-0.9h-0.6V55.5L42.4,55.5z"/>
	<polygon class="st0" points="49.1,58.1 49.1,53.4 49.5,53.4 49.5,57.7 51.2,57.7 51.2,58.1 49.1,58.1 	"/>
	<path class="st0" d="M55.7,53.4h0.8c0.5,0,1,0,1.4,0.4c0.3,0.4,0.5,1.1,0.5,1.5c0,0.5,0,1.2-0.2,1.7c-0.3,0.8-0.8,1-1.6,1h-0.9
		V53.4L55.7,53.4z"/>
	<path class="st1" d="M56.1,57.7h0.5c0.2,0,0.5,0,0.7-0.1c0.6-0.3,0.7-1.3,0.7-1.9c0-0.6,0-1.5-0.6-1.9c-0.2-0.1-0.6-0.1-0.9-0.1
		h-0.4V57.7L56.1,57.7z"/>
	<polygon class="st0" points="63.1,53.4 63.4,53.4 63.4,54.8 63.1,54.8 63.1,53.4 	"/>
	<path class="st0" d="M69.4,55.5c0.7,0.3,1.2,0.5,1.2,1.4c0,0.8-0.5,1.3-1.3,1.3c-0.9,0-1.3-0.6-1.3-1.4h0.4c0,0.6,0.2,1.1,0.9,1.1
		c0.6,0,0.9-0.4,0.9-0.9c0-0.7-0.5-0.8-1.1-1c-0.6-0.3-1.1-0.5-1.1-1.3c0-0.8,0.5-1.3,1.2-1.3c0.7,0,1.2,0.5,1.2,1.2h-0.4
		c0-0.5-0.3-0.9-0.8-0.9c-0.5,0-0.8,0.4-0.8,0.9c0,0.5,0.2,0.6,0.6,0.8L69.4,55.5L69.4,55.5z"/>
	<path class="st0" d="M83.1,56.5c0,0.8-0.4,1.7-1.3,1.7c-1.4,0-1.4-1.6-1.4-2.6c0-1,0.1-2.3,1.4-2.3c0.8,0,1.3,0.7,1.3,1.5h-0.4
		c0-0.6-0.3-1.1-0.9-1.1c-1,0-1,1.4-1,2.1c0,0.7,0,2.1,1,2.1c0.7,0,0.9-0.8,0.9-1.3H83.1L83.1,56.5z"/>
	<polygon class="st0" points="87.8,58.1 87.8,53.4 90,53.4 90,53.8 88.2,53.8 88.2,55.4 89.8,55.4 89.8,55.8 88.2,55.8 88.2,57.7 
		90,57.7 90,58.1 87.8,58.1 	"/>
	<polygon class="st0" points="94.9,58.1 94.5,58.1 94.5,53.4 95.2,53.4 96.3,57.5 96.3,57.5 97.5,53.4 98.1,53.4 98.1,58.1 
		97.7,58.1 97.7,53.8 97.7,53.8 96.6,58.1 96.1,58.1 95,53.8 94.9,53.8 94.9,58.1 	"/>
	<polygon class="st0" points="102.9,58.1 102.9,53.4 105,53.4 105,53.8 103.3,53.8 103.3,55.4 104.9,55.4 104.9,55.8 103.3,55.8 
		103.3,57.7 105.1,57.7 105.1,58.1 102.9,58.1 	"/>
	<polygon class="st0" points="111.8,57.4 111.8,57.4 111.8,53.4 112.2,53.4 112.2,58.1 111.7,58.1 110,54.1 110,54.1 110,58.1 
		109.6,58.1 109.6,53.4 110.1,53.4 111.8,57.4 	"/>
	<polygon class="st0" points="116.6,53.8 116.6,53.4 119.2,53.4 119.2,53.8 118.1,53.8 118.1,58.1 117.7,58.1 117.7,53.8 
		116.6,53.8 	"/>
	<path class="st0" d="M131.5,56.5c0,0.8-0.4,1.7-1.3,1.7c-1.4,0-1.4-1.6-1.4-2.6c0-1,0.1-2.3,1.4-2.3c0.8,0,1.3,0.7,1.3,1.5h-0.4
		c0-0.6-0.3-1.1-0.9-1.1c-1,0-1,1.4-1,2.1c0,0.7,0,2.1,1,2.1c0.7,0,0.9-0.8,0.9-1.3H131.5L131.5,56.5z"/>
	<path class="st0" d="M136.2,55.6c0-1,0.1-2.3,1.4-2.3c1.4,0,1.4,1.5,1.4,2.6c0,1-0.1,2.4-1.4,2.4C136.2,58.2,136.2,56.6,136.2,55.6
		L136.2,55.6z"/>
	<path class="st1" d="M138.5,55.7c0-0.7,0-2.1-1-2.1c-0.9,0-1,1.4-1,2.1c0,0.7,0,2.1,1,2.1C138.6,57.8,138.5,56.4,138.5,55.7
		L138.5,55.7z"/>
	<polygon class="st0" points="144,58.1 143.6,58.1 143.6,53.4 144.3,53.4 145.4,57.5 145.4,57.5 146.6,53.4 147.2,53.4 147.2,58.1 
		146.8,58.1 146.8,53.8 146.8,53.8 145.7,58.1 145.2,58.1 144,53.8 144,53.8 144,58.1 	"/>
	<path class="st0" d="M152,58.1v-4.7h0.8c1.1,0,1.6,0.3,1.6,1.2c0,0.5-0.1,0.8-0.4,1c-0.3,0.3-0.8,0.3-1,0.3h-0.6v2.1H152L152,58.1z
		"/>
	<path class="st1" d="M152.5,55.6h0.4c0.7,0,1.3-0.1,1.3-0.9c0-0.7-0.4-0.9-1-0.9h-0.6V55.6L152.5,55.6z"/>
	<polygon class="st0" points="160.2,53.4 161.4,58.1 161,58.1 160.6,56.6 159.2,56.6 158.8,58.1 158.4,58.1 159.7,53.4 160.2,53.4 	
		"/>
	<polygon class="st1" points="160.5,56.3 159.9,53.9 159.9,53.9 159.3,56.3 160.5,56.3 	"/>
	<polygon class="st0" points="168,57.4 168,57.4 168,53.4 168.4,53.4 168.4,58.1 167.9,58.1 166.2,54.1 166.2,54.1 166.2,58.1 
		165.8,58.1 165.8,53.4 166.3,53.4 168,57.4 	"/>
	<polygon class="st0" points="175.3,53.4 175.7,53.4 174.5,56.1 174.5,58.1 174.1,58.1 174.1,56.1 172.9,53.4 173.3,53.4 
		174.3,55.6 175.3,53.4 	"/>
	<path class="st0" d="M65.4,44.3v-9.2h13.5v-4.8H64.1c-1.7,0-3.1,1.4-3.1,3.1v11.9c0,1.7,1.4,3.1,3.1,3.1h14.8v-4.2H65.4L65.4,44.3z
		"/>
	<path class="st0" d="M86.3,44.3v-9.2h13.3v-4.8H84.9c-1.7,0-3.1,1.4-3.1,3.1v11.9c0,1.7,1.4,3.1,3.1,3.1h14.6v-4.2H86.3L86.3,44.3z
		"/>
	<polygon class="st0" points="89.6,37.2 89.6,41.6 99.6,41.6 99.6,37.2 89.6,37.2 	"/>
	<path class="st0" d="M136.8,44.3v-9.2h13.3v-4.8h-14.6c-1.7,0-3.1,1.4-3.1,3.1v11.9c0,1.7,1.4,3.1,3.1,3.1h14.6v-4.2H136.8
		L136.8,44.3z"/>
	<polygon class="st0" points="140.1,37.2 140.1,41.6 150.1,41.6 150.1,37.2 140.1,37.2 	"/>
	<path class="st0" d="M126.1,30.3h-23.3v18.4h4.6V35.1h6.3v13.6h5V35.1h6.3v13.6h4.3V33.5C129.2,31.7,127.8,30.3,126.1,30.3
		L126.1,30.3z"/>
	<polygon class="st0" points="175.4,44.3 168.8,39.5 175.4,34.7 175.4,30.1 170,30.1 170,33.6 164.4,36.6 158.3,33.6 158.3,30.1 
		153.3,30.1 153.3,34.9 159.6,39.5 153.3,44 153.3,48.3 158.3,48.3 158.3,45.3 164.4,42.2 170,45.3 170,48.3 175.4,48.3 175.4,44.3 
			"/>
</g>
</svg>
