<?xml version="1.0" encoding="utf-8"?>
<!-- Generator: Adobe Illustrator 25.2.1, SVG Export Plug-In . SVG Version: 6.00 Build 0)  -->
<svg version="1.1" id="Capa_1" xmlns="http://www.w3.org/2000/svg" xmlns:xlink="http://www.w3.org/1999/xlink" x="0px" y="0px"
	 viewBox="0 0 121.2 40.2" style="enable-background:new 0 0 121.2 40.2;" xml:space="preserve">
<style type="text/css">
	.st0{fill-rule:evenodd;clip-rule:evenodd;}
	.st1{fill-rule:evenodd;clip-rule:evenodd;fill:#FFFFFF;}
</style>
<g>
	<polygon class="st0" points="11.7,32.7 39.2,0 27.6,0 0,32.7 	"/>
	<polygon class="st0" points="27.6,32.7 55.1,0 43.4,0 15.9,32.7 	"/>
	<polygon class="st0" points="0,37.1 0,36.8 1.7,36.8 1.7,37.1 1,37.1 1,40.1 0.8,40.1 0.8,37.1 	"/>
	<polygon class="st0" points="4.8,40.1 4.8,36.8 5.1,36.8 5.1,38.2 6.3,38.2 6.3,36.8 6.6,36.8 6.6,40.1 6.3,40.1 6.3,38.4 
		5.1,38.4 5.1,40.1 	"/>
	<polygon class="st0" points="9.9,40.1 9.9,36.8 11.3,36.8 11.3,37.1 10.1,37.1 10.1,38.2 11.2,38.2 11.2,38.5 10.1,38.5 10.1,39.8 
		11.4,39.8 11.4,40.1 	"/>
	<polygon class="st0" points="20.1,39.6 20.1,39.6 20.6,36.8 20.8,36.8 20.2,40.1 19.9,40.1 19.4,37.3 19.4,37.3 18.8,40.1 
		18.5,40.1 17.9,36.8 18.2,36.8 18.7,39.5 18.7,39.5 19.2,36.8 19.5,36.8 	"/>
	<path class="st0" d="M23.9,38.3c0-0.7,0.1-1.6,1-1.6c1,0,1,1,1,1.8c0,0.7-0.1,1.7-1,1.7C23.9,40.1,23.9,39,23.9,38.3L23.9,38.3z"/>
	<path class="st1" d="M25.5,38.4c0-0.5,0-1.4-0.7-1.4c-0.6,0-0.7,1-0.7,1.4s0,1.4,0.7,1.4S25.5,38.9,25.5,38.4L25.5,38.4z"/>
	<path class="st0" d="M29.2,38.6v1.5H29v-3.2h0.6c0.6,0,1,0.2,1,0.8c0,0.3-0.1,0.7-0.5,0.8l0,0c0.3,0.1,0.4,0.4,0.4,0.8
		c0,0.1,0,0.8,0.1,0.8v0.1h-0.3c-0.1-0.3-0.1-0.8-0.1-1c0-0.4-0.3-0.5-0.7-0.5L29.2,38.6L29.2,38.6z"/>
	<path class="st1" d="M29.2,38.3h0.5c0.1,0,0.6-0.1,0.6-0.6c0-0.5-0.2-0.6-0.7-0.6h-0.4L29.2,38.3L29.2,38.3z"/>
	<polygon class="st0" points="33.9,40.1 33.9,36.8 34.1,36.8 34.1,39.8 35.3,39.8 35.3,40.1 	"/>
	<path class="st0" d="M38.4,36.8H39c0.3,0,0.7,0,1,0.3c0.2,0.3,0.3,0.8,0.3,1c0,0.3,0,0.8-0.1,1.2C39.9,39.9,39.6,40,39,40h-0.6
		V36.8L38.4,36.8z"/>
	<path class="st1" d="M38.7,39.8H39c0.1,0,0.3,0,0.5-0.1c0.4-0.2,0.5-0.9,0.5-1.3s0-1-0.4-1.3C39.4,37,39.2,37,39,37h-0.3V39.8
		L38.7,39.8z"/>
	<polygon class="st0" points="43.5,36.8 43.7,36.8 43.7,37.8 43.5,37.8 	"/>
	<path class="st0" d="M47.9,38.3c0.5,0.2,0.8,0.3,0.8,1c0,0.6-0.3,0.9-0.9,0.9c-0.6,0-0.9-0.4-0.9-1h0.3c0,0.4,0.1,0.8,0.6,0.8
		c0.4,0,0.6-0.3,0.6-0.6c0-0.5-0.3-0.6-0.8-0.7c-0.4-0.2-0.8-0.3-0.8-0.9c0-0.6,0.3-0.9,0.8-0.9s0.8,0.3,0.8,0.8h-0.3
		c0-0.3-0.2-0.6-0.6-0.6c-0.3,0-0.6,0.3-0.6,0.6c0,0.3,0.1,0.4,0.4,0.6L47.9,38.3L47.9,38.3z"/>
	<path class="st0" d="M57.3,39c0,0.6-0.3,1.2-0.9,1.2c-1,0-1-1.1-1-1.8c0-0.7,0.1-1.6,1-1.6c0.6,0,0.9,0.5,0.9,1H57
		c0-0.4-0.2-0.8-0.6-0.8c-0.7,0-0.7,1-0.7,1.4s0,1.4,0.7,1.4c0.5,0,0.6-0.6,0.6-0.9L57.3,39L57.3,39z"/>
	<polygon class="st0" points="60.6,40.1 60.6,36.8 62.1,36.8 62.1,37.1 60.8,37.1 60.8,38.2 61.9,38.2 61.9,38.5 60.8,38.5 
		60.8,39.8 62.1,39.8 62.1,40.1 	"/>
	<polygon class="st0" points="65.4,40.1 65.2,40.1 65.2,36.8 65.7,36.8 66.4,39.7 66.4,39.7 67.2,36.8 67.7,36.8 67.7,40.1 
		67.4,40.1 67.4,37.1 67.4,37.1 66.6,40.1 66.3,40.1 65.5,37.1 65.4,37.1 	"/>
	<polygon class="st0" points="71,40.1 71,36.8 72.4,36.8 72.4,37.1 71.2,37.1 71.2,38.2 72.3,38.2 72.3,38.5 71.2,38.5 71.2,39.8 
		72.5,39.8 72.5,40.1 	"/>
	<polygon class="st0" points="77.1,39.6 77.1,39.6 77.1,36.8 77.4,36.8 77.4,40.1 77,40.1 75.9,37.3 75.9,37.3 75.9,40.1 75.6,40.1 
		75.6,36.8 75.9,36.8 	"/>
	<polygon class="st0" points="80.4,37.1 80.4,36.8 82.2,36.8 82.2,37.1 81.4,37.1 81.4,40.1 81.2,40.1 81.2,37.1 	"/>
	<path class="st0" d="M90.7,39c0,0.6-0.3,1.2-0.9,1.2c-1,0-1-1.1-1-1.8c0-0.7,0.1-1.6,1-1.6c0.6,0,0.9,0.5,0.9,1h-0.3
		c0-0.4-0.2-0.8-0.6-0.8c-0.7,0-0.7,1-0.7,1.4s0,1.4,0.7,1.4c0.5,0,0.6-0.6,0.6-0.9L90.7,39L90.7,39z"/>
	<path class="st0" d="M93.9,38.3c0-0.7,0.1-1.6,1-1.6c1,0,1,1,1,1.8c0,0.7-0.1,1.7-1,1.7C93.9,40.1,93.9,39,93.9,38.3L93.9,38.3z"/>
	<path class="st1" d="M95.5,38.4c0-0.5,0-1.4-0.7-1.4c-0.6,0-0.7,1-0.7,1.4s0,1.4,0.7,1.4C95.6,39.9,95.5,38.9,95.5,38.4L95.5,38.4z
		"/>
	<polygon class="st0" points="99.3,40.1 99,40.1 99,36.8 99.5,36.8 100.3,39.7 100.3,39.7 101.1,36.8 101.5,36.8 101.5,40.1 
		101.2,40.1 101.2,37.1 101.2,37.1 100.5,40.1 100.1,40.1 99.3,37.1 99.3,37.1 	"/>
	<path class="st0" d="M104.8,40.1v-3.2h0.6c0.8,0,1.1,0.2,1.1,0.8c0,0.3-0.1,0.6-0.3,0.7c-0.2,0.2-0.6,0.2-0.7,0.2h-0.4V40
		L104.8,40.1L104.8,40.1z"/>
	<path class="st1" d="M105.2,38.3h0.3c0.5,0,0.9-0.1,0.9-0.6c0-0.5-0.3-0.6-0.7-0.6h-0.4L105.2,38.3L105.2,38.3z"/>
	<polygon class="st0" points="110.5,36.8 111.3,40.1 111,40.1 110.8,39 109.8,39 109.5,40.1 109.2,40.1 110.1,36.8 	"/>
	<polygon class="st1" points="110.7,38.8 110.3,37.2 110.3,37.2 109.9,38.8 	"/>
	<polygon class="st0" points="115.9,39.6 115.9,39.6 115.9,36.8 116.1,36.8 116.1,40.1 115.8,40.1 114.6,37.3 114.6,37.3 
		114.6,40.1 114.3,40.1 114.3,36.8 114.7,36.8 	"/>
	<polygon class="st0" points="120.9,36.8 121.2,36.8 120.3,38.7 120.3,40.1 120.1,40.1 120.1,38.7 119.2,36.8 119.5,36.8 
		120.2,38.3 	"/>
	<path class="st0" d="M45.1,30.6v-6.3h9.3v-3.3H44.2c-1.2,0-2.1,1-2.1,2.1v8.2c0,1.2,1,2.1,2.1,2.1h10.2v-2.9L45.1,30.6L45.1,30.6z"
		/>
	<path class="st0" d="M59.5,30.6v-6.3h9.2v-3.3H58.6c-1.2,0-2.1,1-2.1,2.1v8.2c0,1.2,1,2.1,2.1,2.1h10.1v-2.9L59.5,30.6L59.5,30.6z"
		/>
	<polygon class="st0" points="61.8,25.7 61.8,28.7 68.7,28.7 68.7,25.7 	"/>
	<path class="st0" d="M94.3,30.6v-6.3h9.2v-3.3H93.4c-1.2,0-2.1,1-2.1,2.1v8.2c0,1.2,1,2.1,2.1,2.1h10.1v-2.9L94.3,30.6L94.3,30.6z"
		/>
	<polygon class="st0" points="96.6,25.7 96.6,28.7 103.5,28.7 103.5,25.7 	"/>
	<path class="st0" d="M87,20.9H70.9v12.7h3.2v-9.4h4.3v9.4h3.4v-9.4h4.3v9.4h3V23.1C89.1,21.9,88.1,20.9,87,20.9L87,20.9z"/>
	<polygon class="st0" points="121,30.6 116.4,27.2 121,23.9 121,20.8 117.2,20.8 117.2,23.2 113.4,25.2 109.2,23.2 109.2,20.8 
		105.7,20.8 105.7,24.1 110.1,27.2 105.7,30.3 105.7,33.3 109.2,33.3 109.2,31.2 113.4,29.1 117.2,31.2 117.2,33.3 121,33.3 	"/>
</g>
</svg>
