<?xml version="1.0" encoding="utf-8"?>
<!-- Generator: Adobe Illustrator 25.2.1, SVG Export Plug-In . SVG Version: 6.00 Build 0)  -->
<svg version="1.1" id="Capa_1" xmlns="http://www.w3.org/2000/svg" xmlns:xlink="http://www.w3.org/1999/xlink" x="0px" y="0px"
	 viewBox="0 0 175.7 57.3" style="enable-background:new 0 0 175.7 57.3;" xml:space="preserve">
<style type="text/css">
	.st0{fill-rule:evenodd;clip-rule:evenodd;}
	.st1{fill-rule:evenodd;clip-rule:evenodd;fill:#FFFFFF;}
</style>
<g>
	<path class="st0" d="M21.7,48c-4.8,0.6-10.2-0.6-12.5-5.3c-2.3-4.6-1.1-9.5,0.9-13.8c3.7-8.3,9.3-16,16.5-21.9
		c2.3-1.9,4.3-3.6,7.4-4c2.3-0.3,4,1.9,2.6,2.1c-2,0.2-3.2,1.1-4,2.6c-0.5,1-0.7,2.7,0.8,3.1c1.5,0.3,2.5-0.8,3.4-1.8
		c1.8-2.2,2-6.6-1-7.5c-7.5-2.2-18.4,6-24.9,13.3C4.5,21.7-2.5,32,0.9,42.4c2.6,7.9,12.2,8.9,19.6,7.7c10.3-1.6,17.9-6,29.1-4.3
		c3.3,0.5,6.8,1.5,8.5,4.8c2.4-2.8,7.1-6.6,19.8-0.9c-4.8-4.9-11.6-6.9-18.2-7.7C46.4,40.2,34.6,46.5,21.7,48L21.7,48z"/>
	<path class="st0" d="M37,23c1.5-2.9,2.8-7.3-0.4-9.3c-2-1.2-4.9,0.3-6.5,1.3c-4.5,2.8-9.2,8.7-11.5,16c-1.2,3.7,0.3,7.1,2.5,7.3
		c7.3,0.4,12.3-9.2,15.2-13.7l0.1-0.2l0.3,0c1.5,0,3.4-0.2,4.1-0.7c-2,3-2.9,4.6-3.6,7.6c-0.9,3.8,1.8,7.7,5.8,7
		c4.7-0.8,8-4.1,11.3-7.7c-0.8,2.7-1.8,6.3,1.3,7.3c3.5,1.1,6.3-2.2,8.7-4.5c-0.8,2.1-0.4,5.3,2.1,4.8C71.1,37.2,76.9,31,80.1,26
		h-1.3c-2,2.4-5.5,6.7-7.4,6.7c-1.2,0.1-0.8-1.3-0.6-1.6l10.2-17.7h-5.5l-0.9,1.5c-3.2-3.6-8.1-0.6-10.8,1.9
		c-5.9,5.5-8.5,13.6-15.8,17.4c-1.6,0.8-3.8,0.6-4.3-1.5c-0.3-1,0-2.3,0.3-3.1c2.3-5.6,6.1-11.8,10.3-13.9c1.4-0.5,3-0.5,2.5,2
		c-1.6-0.9-2.9,0.8-3.6,2c-0.6,1-0.5,2.6,0.8,2.6c3.2-0.1,5.2-5.7,3.4-7.6C53.3,10.4,46.8,17,42.9,21c-1.4,1.4-3.5,1.9-5.5,2
		C37.1,23,37,23,37,23L37,23z"/>
	<path class="st1" d="M66.7,28.4c-1,1.7-3.7,5.3-5.7,4.6c-1.5-0.5,0.2-4.8,0.9-6.1c0.6-1.3,5-8.5,8.2-10.6c1.9-1.3,2.3-1,2.9-0.7
		c0.4,0.2,0.8,0.8,0.5,1.4L66.7,28.4L66.7,28.4z"/>
	<polygon class="st0" points="91.2,13.5 85.6,13.5 82.6,18.4 88.1,18.4 91.2,13.5 	"/>
	<path class="st0" d="M111.8,29c-0.6-5.4-8.2-3.4-11-0.3c-1.3,1.3-6.3,7.8-5.4,12.2c1.8-2.4,4.3-4.2,7.2-5c0.3-3.2,1.5-6.7,4.5-7.8
		c1-0.4,3.3-0.5,3.5,1.3c0.8,6.3-4.1,12.9-9.9,16.5c-2.5,1.6-8.5,2.7-9.7-1.5c-2.5-8.9,3.7-16.8,8.3-23.7
		c4.7-6.9,9.8-12.4,16.9-16.3c1.8-1,4.2-2.2,6.2-1.1c-0.9,0.5-5.3,2.7-7.8,5.9c-1.1,1.4-4.1,5.3-3.9,8.6c0.1,1.6,0.6,3.1,2.3,3.7
		c0.9,0.3,1.9,0.1,2.8-0.3c6.2-3.3,9.7-10.3,9.1-17.2c1.2-0.3,3.1-0.4,4.2,0c2.6,0.5,11.4,5.5,15.3,8l4.4-4.5
		c-4.3-2.7-8.7-5.2-14.2-6.4c-5.5-0.6-9.6,1.2-10.7,1.6c-0.5-0.9-1.6-1.5-2.8-1.7c-6-0.6-13.5,3.3-19.8,8.4c-2.5,2-4.5,4-6.6,6.3
		c-3.8,4.3-6.6,8.7-9.2,13.8c-3.6,6.8-5.1,19.2,4.5,20.7C100.8,51.7,113,39.5,111.8,29L111.8,29z"/>
	<path class="st0" d="M175.2,0.4c-4.4,6-12.1,8.8-20,8.4l-4.3,5.1c14.5,0,20.8-7.5,24.7-13.3C176.1-0.1,175.4-0.2,175.2,0.4
		L175.2,0.4z"/>
	<path class="st0" d="M168.6,25.5h-5.5l-0.9,1.5c-3.2-3.6-8.1-0.6-10.8,1.9c-3.2,3-5.9,7.2-8.4,10.6c-1.5,2-3.3,4.7-5.5,5.7
		c-0.9,0.4-2.3,0.4-2.4-0.8c-0.2-3.4,1.3-6.9,2.4-9.7c8-5.4,15.6-11.9,20.6-20.2l-1.3,0.1c-0.7,1.3-6.1,7.4-7.4,8.9
		c-2.4,2.1-4.7,4.5-7.3,6.4c-1.1,0.8-2.3,1.5-3.4,2.3c4.7-10.5,11-20.3,19.8-28.2c1.1-1,3.1-2.3,3.7-1.4c1,1.2,0,3.5-1.3,4.8
		c0.6,0.1,1-0.1,1.6-0.2c1.9-2,1.9-6,0.4-6.4c-2.4-0.8-7.5,2.1-10.6,4.6c-9.7,7.7-16.1,19.2-21.1,29.5c-0.6,0.5-2,0.5-2.9,0.5
		c1.5-2.9,2.8-7.4-0.4-9.4c-2-1.2-4.9,0.3-6.5,1.3c-4.5,2.8-9.2,8.7-11.5,16c-1.2,3.7,0.3,7.1,2.5,7.3c7.3,0.4,12.3-9.2,15.2-13.7
		c0.7,0.1,2.4,0.1,3.1-0.2c-1.4,4-4.5,10.3-0.1,12.8c4.5,2.6,7.9-3.1,10.8-6.2l0.3-0.5c-0.8,2.7-1.8,6.3,1.3,7.3
		c3.5,1.1,6.3-2.2,8.7-4.5c-0.8,2.1-0.4,5.3,2.1,4.8c4.7-0.9,10.4-7.1,13.6-12.1h-1.3c-2,2.7-5.4,6.7-7.4,6.7
		c-1.2,0.1-0.8-1.3-0.6-1.6L168.6,25.5L168.6,25.5z"/>
	<path class="st0" d="M88.5,55c0-1.2,1-2.2,2.3-2.2c1.3,0,2.3,1,2.3,2.2c0,1.3-1,2.3-2.3,2.3C89.5,57.3,88.5,56.3,88.5,55L88.5,55z"
		/>
	<path class="st1" d="M88.9,55c0,1.1,0.8,1.9,1.9,1.9c1.1,0,1.9-0.9,1.9-1.9c0-1-0.8-1.9-1.9-1.9C89.7,53.1,88.9,54,88.9,55L88.9,55
		z"/>
	<path class="st0" d="M89.9,53.8h1c0.5,0,0.7,0.2,0.7,0.6c0,0.4-0.2,0.6-0.6,0.7c0.2,0.4,0.4,0.7,0.7,1l0.1,0.2c-0.1,0-0.2,0-0.3,0
		c-0.1,0-0.2,0-0.3,0l-0.7-1.2h-0.1v1.2c-0.1,0-0.2,0-0.3,0c-0.1,0-0.2,0-0.3,0V53.8L89.9,53.8z"/>
	<path class="st1" d="M90.5,55c0.4,0,0.6-0.1,0.6-0.5c0-0.4-0.2-0.5-0.4-0.5h-0.2V55L90.5,55z"/>
	<path class="st1" d="M123.4,4.5c0.7,6.6-4.8,14.1-8.8,15.3c-1.9,0.6-2.9-1.7-2.2-3.8c0.8-2.3,1.5-3.8,3.2-5.7
		C117.8,7.7,120.8,5.3,123.4,4.5L123.4,4.5z"/>
	<path class="st1" d="M119.8,44.9c-0.9,0.5-3.2,1.1-4,0.3c-1.7-1.6,1.9-7.6,3.2-9.8c0.5-0.8,1.4-2.1,2-2.9c0.8,1.5,2.7,3.5,5.5,3.9
		C125,39,122.9,43,119.8,44.9L119.8,44.9z"/>
	<path class="st1" d="M127.1,35c-1.5,0.1-3.1-1.1-4-2c-1.1-1.3-0.5-3.2,0.8-4.4c1.2-1.1,3.1-1.5,3.9-0.4
		C129.5,30.1,127.7,34.5,127.1,35L127.1,35z"/>
	<path class="st1" d="M28.3,32.7c-0.9,0.5-3.2,1.1-4,0.3c-1.7-1.6,1.9-7.6,3.2-9.8c0.5-0.8,1.4-2.1,2-2.9c0.8,1.5,2.7,3.5,5.5,3.9
		C33.5,26.8,31.4,30.9,28.3,32.7L28.3,32.7z"/>
	<path class="st1" d="M35.6,22.8c-1.5,0.1-3.1-1.1-4-2c-1.1-1.3-0.5-3.2,0.8-4.4c1.2-1.1,3.1-1.5,3.9-0.4C38,18,36.2,22.4,35.6,22.8
		L35.6,22.8z"/>
	<path class="st1" d="M154.3,40.4c-1,1.7-3.8,5.4-5.7,4.6c-2-0.8,0-4.5,0.7-5.7c0.6-1.3,5.2-8.9,8.3-11c1.9-1.3,2.4-1,2.9-0.7
		c0.5,0.3,0.8,0.9,0.5,1.5L154.3,40.4L154.3,40.4z"/>
</g>
</svg>
