<?xml version="1.0" encoding="utf-8"?>
<!-- Generator: Adobe Illustrator 25.2.1, SVG Export Plug-In . SVG Version: 6.00 Build 0)  -->
<svg version="1.1" id="Capa_1" xmlns="http://www.w3.org/2000/svg" xmlns:xlink="http://www.w3.org/1999/xlink" x="0px" y="0px"
	 viewBox="0 0 397 397" style="enable-background:new 0 0 397 397;" xml:space="preserve">
<style type="text/css">
	.st0{fill:#5991CE;}
	.st1{fill:#FF0000;}
</style>
<g>
	<path class="st0" d="M223.3,44h-57.5c-14.8,0-26.7,12-26.7,26.7V127h111V70.7C250.1,56,238.1,44,223.3,44z"/>
</g>
<g>
	<path class="st1" d="M230.6,216h-72c-13.5,0-24.5-11-24.5-24.5V70.6c0-16.9,13.7-30.6,30.6-30.6h59.8c16.9,0,30.6,13.7,30.6,30.6
		v120.9C255.1,205,244.1,216,230.6,216z M164.7,47c-13,0-23.6,10.6-23.6,23.6v120.9c0,9.7,7.9,17.5,17.5,17.5h72
		c9.7,0,17.5-7.9,17.5-17.5V70.6c0-13-10.6-23.6-23.6-23.6H164.7z"/>
</g>
<g>
	<path class="st1" d="M225.4,267h-61.8c-43.3,0-78.6-35.3-78.6-78.6v-67.9c0-1.9,1.6-3.5,3.5-3.5s3.5,1.6,3.5,3.5v67.9
		c0,39.5,32.1,71.6,71.6,71.6h61.8c39.5,0,71.6-32.1,71.6-71.6v-65.9c0-1.9,1.6-3.5,3.5-3.5s3.5,1.6,3.5,3.5v65.9
		C304.1,231.7,268.8,267,225.4,267z"/>
</g>
<g>
	<path class="st1" d="M239.6,355h-86c-1.9,0-3.5-1.6-3.5-3.5s1.6-3.5,3.5-3.5h86c1.9,0,3.5,1.6,3.5,3.5S241.5,355,239.6,355z"/>
</g>
<g>
	<path class="st1" d="M196.6,354.8c-1.9,0-3.5-1.6-3.5-3.5v-87.8c0-1.9,1.6-3.5,3.5-3.5s3.5,1.6,3.5,3.5v87.8
		C200.1,353.2,198.5,354.8,196.6,354.8z"/>
</g>
<g>
	<path class="st1" d="M251.1,129.5h-111c-1.9,0-3.5-1.6-3.5-3.5s1.6-3.5,3.5-3.5h111c1.9,0,3.5,1.6,3.5,3.5S253,129.5,251.1,129.5z"
		/>
</g>
</svg>
