<svg width="210" height="201" viewBox="0 0 210 201" fill="none" xmlns="http://www.w3.org/2000/svg">
<path d="M202.421 74.8H117.273C117.153 74.8 117.072 74.72 117.072 74.6C117.072 74.48 117.153 74.4 117.273 74.4H202.421C202.541 74.4 202.621 74.48 202.621 74.6C202.621 74.72 202.541 74.8 202.421 74.8Z" fill="#F4F4F4"/>
<path d="M196.998 15H182.158V74.6H196.998V15Z" fill="#D3E6FE"/>
<path d="M197.199 74.8H181.957V14.8H197.199V74.8ZM182.359 74.4001H196.798V15.2H182.359V74.4001Z" fill="#F4F4F4"/>
<path d="M174.687 30.7999H159.847V74.5999H174.687V30.7999Z" fill="#D3E6FE"/>
<path d="M174.888 74.8H159.646V30.6H174.888V74.8ZM160.048 74.4H174.487V31H160.048V74.4Z" fill="#F4F4F4"/>
<path d="M152.196 40.7999H137.355V74.5999H152.196V40.7999Z" fill="#D3E6FE"/>
<path d="M152.396 74.8H137.154V40.6H152.396V74.8ZM137.556 74.4H151.995V41H137.556V74.4Z" fill="#F4F4F4"/>
<path d="M122.494 7H117.273V12.2H122.494V7Z" fill="#D3E6FE"/>
<path d="M122.695 12.4H117.072V6.80005H122.695V12.4ZM117.474 12H122.294V7.20005H117.474V12Z" fill="#F4F4F4"/>
<path d="M122.494 14.8H117.273V20H122.494V14.8Z" fill="#D3E6FE"/>
<path d="M122.695 20.22H117.072V14.62H122.695V20.22ZM117.474 19.82H122.294V15.02H117.474V19.82Z" fill="#F4F4F4"/>
<path d="M122.494 22.0399H117.273V27.2399H122.494V22.0399Z" fill="#D3E6FE"/>
<path d="M122.695 27.44H117.072V21.84H122.695V27.44ZM117.474 27.04H122.294V22.24H117.474V27.04Z" fill="#F4F4F4"/>
<path d="M138.761 7.95996H125.266V8.35996H138.761V7.95996Z" fill="#F4F4F4"/>
<path d="M132.817 10.7H125.266V11.1H132.817V10.7Z" fill="#F4F4F4"/>
<path d="M138.761 23.14H125.266V23.54H138.761V23.14Z" fill="#F4F4F4"/>
<path d="M138.62 25.88H125.266V26.28H138.62V25.88Z" fill="#F4F4F4"/>
<path d="M138.761 17.0601H125.266V17.4601H138.761V17.0601Z" fill="#F4F4F4"/>
<g clip-path="url(#clip0_82_489)">
<path d="M87.0606 74.9233H64.8429C59.1242 74.9233 54.5261 79.5601 54.5261 85.2401V106.994H97.4159V85.2401C97.4159 79.5601 92.7792 74.9233 87.0606 74.9233Z" fill="#2563EB"/>
<mask id="path-20-outside-1_82_489" maskUnits="userSpaceOnUse" x="32.6222" y="72.3778" width="87" height="124" fill="black">
<rect fill="white" x="32.6222" y="72.3778" width="87" height="124"/>
<path fill-rule="evenodd" clip-rule="evenodd" d="M89.8813 141.383H62.0608C56.8445 141.383 52.5942 137.133 52.5942 131.917V85.2015C52.5942 78.6714 57.8878 73.3778 64.4178 73.3778H87.5242C94.0543 73.3778 99.3479 78.6714 99.3479 85.2015V131.917C99.3479 137.133 95.0976 141.383 89.8813 141.383ZM64.4178 76.0826C59.3947 76.0826 55.2989 80.1784 55.2989 85.2015V105.255H96.6432V85.2015C96.6432 80.1784 92.5474 76.0826 87.5242 76.0826H64.4178ZM96.6432 107.96V131.917C96.6432 135.626 93.6293 138.679 89.8813 138.679H62.0608C58.3514 138.679 55.2989 135.665 55.2989 131.917V107.96H96.6432ZM87.872 161.089H78.0962V192.387H93.3588C94.093 192.387 94.7112 193.006 94.7112 193.74C94.7112 194.474 94.093 195.092 93.3588 195.092H60.1289C59.3947 195.092 58.7765 194.474 58.7765 193.74C58.7765 193.006 59.3947 192.387 60.1289 192.387H75.3915V161.089H63.9928C47.2619 161.089 33.6222 147.45 33.6222 130.719V104.483C33.6222 103.748 34.2404 103.13 34.9746 103.13C35.7087 103.13 36.327 103.748 36.327 104.483V130.719C36.327 145.981 48.7302 158.385 63.9928 158.385H76.7394L76.7438 158.385L76.7483 158.385H87.872C103.135 158.385 115.538 145.981 115.538 130.719V105.255C115.538 104.521 116.156 103.903 116.89 103.903C117.624 103.903 118.243 104.521 118.243 105.255V130.719C118.281 147.45 104.642 161.089 87.872 161.089Z"/>
</mask>
<path fill-rule="evenodd" clip-rule="evenodd" d="M89.8813 141.383H62.0608C56.8445 141.383 52.5942 137.133 52.5942 131.917V85.2015C52.5942 78.6714 57.8878 73.3778 64.4178 73.3778H87.5242C94.0543 73.3778 99.3479 78.6714 99.3479 85.2015V131.917C99.3479 137.133 95.0976 141.383 89.8813 141.383ZM64.4178 76.0826C59.3947 76.0826 55.2989 80.1784 55.2989 85.2015V105.255H96.6432V85.2015C96.6432 80.1784 92.5474 76.0826 87.5242 76.0826H64.4178ZM96.6432 107.96V131.917C96.6432 135.626 93.6293 138.679 89.8813 138.679H62.0608C58.3514 138.679 55.2989 135.665 55.2989 131.917V107.96H96.6432ZM87.872 161.089H78.0962V192.387H93.3588C94.093 192.387 94.7112 193.006 94.7112 193.74C94.7112 194.474 94.093 195.092 93.3588 195.092H60.1289C59.3947 195.092 58.7765 194.474 58.7765 193.74C58.7765 193.006 59.3947 192.387 60.1289 192.387H75.3915V161.089H63.9928C47.2619 161.089 33.6222 147.45 33.6222 130.719V104.483C33.6222 103.748 34.2404 103.13 34.9746 103.13C35.7087 103.13 36.327 103.748 36.327 104.483V130.719C36.327 145.981 48.7302 158.385 63.9928 158.385H76.7394L76.7438 158.385L76.7483 158.385H87.872C103.135 158.385 115.538 145.981 115.538 130.719V105.255C115.538 104.521 116.156 103.903 116.89 103.903C117.624 103.903 118.243 104.521 118.243 105.255V130.719C118.281 147.45 104.642 161.089 87.872 161.089Z" fill="#0D2C5E"/>
<path d="M55.2989 105.255H54.2989V106.255H55.2989V105.255ZM96.6432 105.255V106.255H97.6432V105.255H96.6432ZM96.6432 107.96H97.6432V106.96H96.6432V107.96ZM55.2989 107.96V106.96H54.2989V107.96H55.2989ZM78.0962 161.089V160.089H77.0962V161.089H78.0962ZM78.0962 192.387H77.0962V193.387H78.0962V192.387ZM75.3915 192.387V193.387H76.3915V192.387H75.3915ZM75.3915 161.089H76.3915V160.089H75.3915V161.089ZM76.7394 158.385V159.385H76.7411L76.7394 158.385ZM76.7438 158.385L76.7456 157.385L76.7421 157.385L76.7438 158.385ZM76.7483 158.385L76.7466 159.385H76.7483V158.385ZM118.243 130.719H117.243V130.721L118.243 130.719ZM62.0608 142.383H89.8813V140.383H62.0608V142.383ZM51.5942 131.917C51.5942 137.685 56.2922 142.383 62.0608 142.383V140.383C57.3968 140.383 53.5942 136.581 53.5942 131.917H51.5942ZM51.5942 85.2015V131.917H53.5942V85.2015H51.5942ZM64.4178 72.3778C57.3355 72.3778 51.5942 78.1191 51.5942 85.2015H53.5942C53.5942 79.2237 58.44 74.3778 64.4178 74.3778V72.3778ZM87.5242 72.3778H64.4178V74.3778H87.5242V72.3778ZM100.348 85.2015C100.348 78.1191 94.6066 72.3778 87.5242 72.3778V74.3778C93.502 74.3778 98.3479 79.2237 98.3479 85.2015H100.348ZM100.348 131.917V85.2015H98.3479V131.917H100.348ZM89.8813 142.383C95.6499 142.383 100.348 137.685 100.348 131.917H98.3479C98.3479 136.581 94.5453 140.383 89.8813 140.383V142.383ZM56.2989 85.2015C56.2989 80.7306 59.947 77.0826 64.4178 77.0826V75.0826C58.8424 75.0826 54.2989 79.6261 54.2989 85.2015H56.2989ZM56.2989 105.255V85.2015H54.2989V105.255H56.2989ZM55.2989 106.255H96.6432V104.255H55.2989V106.255ZM95.6432 85.2015V105.255H97.6432V85.2015H95.6432ZM87.5242 77.0826C91.9951 77.0826 95.6432 80.7306 95.6432 85.2015H97.6432C97.6432 79.6261 93.0997 75.0826 87.5242 75.0826V77.0826ZM64.4178 77.0826H87.5242V75.0826H64.4178V77.0826ZM95.6432 107.96V131.917H97.6432V107.96H95.6432ZM95.6432 131.917C95.6432 135.077 93.0733 137.679 89.8813 137.679V139.679C94.1853 139.679 97.6432 136.175 97.6432 131.917H95.6432ZM89.8813 137.679H62.0608V139.679H89.8813V137.679ZM62.0608 137.679C58.9 137.679 56.2989 135.109 56.2989 131.917H54.2989C54.2989 136.221 57.8029 139.679 62.0608 139.679V137.679ZM56.2989 131.917V107.96H54.2989V131.917H56.2989ZM96.6432 106.96H55.2989V108.96H96.6432V106.96ZM78.0962 162.089H87.872V160.089H78.0962V162.089ZM79.0962 192.387V161.089H77.0962V192.387H79.0962ZM93.3588 191.387H78.0962V193.387H93.3588V191.387ZM95.7112 193.74C95.7112 192.453 94.6453 191.387 93.3588 191.387V193.387C93.5407 193.387 93.7112 193.558 93.7112 193.74H95.7112ZM93.3588 196.092C94.6453 196.092 95.7112 195.026 95.7112 193.74H93.7112C93.7112 193.922 93.5407 194.092 93.3588 194.092V196.092ZM60.1289 196.092H93.3588V194.092H60.1289V196.092ZM57.7765 193.74C57.7765 195.026 58.8424 196.092 60.1289 196.092V194.092C59.947 194.092 59.7765 193.922 59.7765 193.74H57.7765ZM60.1289 191.387C58.8424 191.387 57.7765 192.453 57.7765 193.74H59.7765C59.7765 193.558 59.947 193.387 60.1289 193.387V191.387ZM75.3915 191.387H60.1289V193.387H75.3915V191.387ZM74.3915 161.089V192.387H76.3915V161.089H74.3915ZM63.9928 162.089H75.3915V160.089H63.9928V162.089ZM32.6222 130.719C32.6222 148.002 46.7096 162.089 63.9928 162.089V160.089C47.8142 160.089 34.6222 146.897 34.6222 130.719H32.6222ZM32.6222 104.483V130.719H34.6222V104.483H32.6222ZM34.9746 102.13C33.6881 102.13 32.6222 103.196 32.6222 104.483H34.6222C34.6222 104.301 34.7927 104.13 34.9746 104.13V102.13ZM37.327 104.483C37.327 103.196 36.261 102.13 34.9746 102.13V104.13C35.1564 104.13 35.327 104.301 35.327 104.483H37.327ZM37.327 130.719V104.483H35.327V130.719H37.327ZM63.9928 157.385C49.2825 157.385 37.327 145.429 37.327 130.719H35.327C35.327 146.534 48.1779 159.385 63.9928 159.385V157.385ZM76.7394 157.385H63.9928V159.385H76.7394V157.385ZM76.7421 157.385L76.7377 157.385L76.7411 159.385L76.7456 159.385L76.7421 157.385ZM76.75 157.385L76.7456 157.385L76.7421 159.385L76.7466 159.385L76.75 157.385ZM87.872 157.385H76.7483V159.385H87.872V157.385ZM114.538 130.719C114.538 145.429 102.582 157.385 87.872 157.385V159.385C103.687 159.385 116.538 146.534 116.538 130.719H114.538ZM114.538 105.255V130.719H116.538V105.255H114.538ZM116.89 102.903C115.604 102.903 114.538 103.969 114.538 105.255H116.538C116.538 105.074 116.708 104.903 116.89 104.903V102.903ZM119.243 105.255C119.243 103.969 118.177 102.903 116.89 102.903V104.903C117.072 104.903 117.243 105.074 117.243 105.255H119.243ZM119.243 130.719V105.255H117.243V130.719H119.243ZM87.872 162.089C105.193 162.089 119.283 148.003 119.243 130.716L117.243 130.721C117.28 146.897 104.091 160.089 87.872 160.089V162.089Z" fill="#0D2C5E" mask="url(#path-20-outside-1_82_489)"/>
</g>
<defs>
<clipPath id="clip0_82_489">
<rect width="159.141" height="159.141" fill="white" transform="translate(0.952271 41.3591)"/>
</clipPath>
</defs>
</svg>
