<?xml version="1.0" encoding="utf-8"?>
<!-- Generator: Adobe Illustrator 25.2.1, SVG Export Plug-In . SVG Version: 6.00 Build 0)  -->
<svg version="1.1" id="Capa_1" xmlns="http://www.w3.org/2000/svg" xmlns:xlink="http://www.w3.org/1999/xlink" x="0px" y="0px"
	 viewBox="0 0 3816 4007" style="enable-background:new 0 0 3816 4007;" xml:space="preserve">
<style type="text/css">
	.st0{fill:#414042;}
	.st1{fill:#00FF00;}
	.st2{fill:#231F20;}
	.st3{fill:#E6E7E8;}
</style>
<g>
	<path class="st0" d="M670.9,1851.1l64,969.3c0,46.6,23.7,90,63,115c18.7,11.9,42.9,23.7,74.1,33.6
		c116.8,37.4,1182.7,386.7,1279.5,417.9c3.5,1.1,7,2.4,10.4,3.8c26,10.8,177.9,63.2,315.8-122.3c6.6-8.8,12-18.5,16.3-28.6
		l470.5-995.7c6.9-16.6,10.5-34.3,10.6-52.3l42.9-1045.1"/>
	<path d="M2243.3,3409.3c-42,0-72.8-11.2-82.8-15.3c-3.2-1.3-6.6-2.6-10.1-3.7c-42.1-13.5-262.6-85.7-517.8-169.2
		c-326-106.7-695.6-227.6-761.7-248.7c-28.7-9.2-53.9-20.6-74.9-34c-40.5-25.8-64.6-69.8-64.7-117.8l-64-969.2l7-0.5l64,969.4v0.1
		c0,45.7,23,87.6,61.4,112.1c20.5,13.1,45.2,24.3,73.3,33.2c66.1,21.1,435.6,142,761.7,248.7c255.3,83.5,475.7,155.7,517.8,169.2
		c3.7,1.2,7.3,2.5,10.7,3.9c12.1,5.1,56.3,20.9,114.1,12.3c73.4-11,139.9-55.9,197.6-133.5c6.4-8.6,11.7-18,15.9-27.9l0.1-0.1
		l470.5-995.6c6.8-16.2,10.2-33.3,10.3-50.9l0-0.1l42.9-1045.1l7,0.3l-42.9,1045.1c-0.1,18.5-3.7,36.5-10.9,53.6l-0.1,0.1
		l-470.5,995.6c-4.4,10.4-10,20.3-16.7,29.3c-32,43-67.2,76.6-104.8,99.8c-31,19.1-63.7,31.3-97.3,36.4
		C2266,3408.5,2254.3,3409.3,2243.3,3409.3z"/>
</g>
<g>
	<line class="st1" x1="2232.5" y1="2510" x2="2236.5" y2="3401.5"/>
	<rect x="2231" y="2510" transform="matrix(1 -4.486775e-03 4.486775e-03 1 -13.2393 10.0554)" width="7" height="891.5"/>
</g>
<g>
	<line class="st1" x1="798.4" y1="2037.9" x2="836.5" y2="2951.5"/>
	
		<rect x="813.9" y="2037.5" transform="matrix(0.9991 -4.170886e-02 4.170886e-02 0.9991 -103.3389 36.2649)" width="7" height="914.4"/>
</g>
<g>
	<line class="st1" x1="2476" y1="2400" x2="2496.5" y2="3234.5"/>
	
		<rect x="2482.8" y="2399.9" transform="matrix(0.9997 -2.455820e-02 2.455820e-02 0.9997 -68.4367 61.9075)" width="7" height="834.8"/>
</g>
<g>
	<path class="st2" d="M1285.8,751.1L685.9,1785.4c-44.9,100.9,7.4,218.4,112.4,252.5l1429.3,464.8
		c101.8,33.1,212.1-16.3,255.1-114.3L2997,1216.8c51.2-116.7-10.5-251.9-132.2-289.6L1658.6,594.7
		C1513.6,561.4,1363.6,624.3,1285.8,751.1z"/>
</g>
<g>
	<g>
		<path class="st3" d="M1730.7,1708.8c-50.1-3-97.4-8.5-142.2-16.5c-44.8-8-83.6-17.8-116.5-29.4l69.9-101.3
			c40.1,14.4,81.1,26.1,123.1,35.1c41.9,9,81.9,14.7,120,16.9c44.3,2.6,80.4-0.1,108.4-8.4c28-8.2,46.2-21.3,54.6-39.3
			c10.9-23.6-4.6-43.8-46.6-60.6l-109.1-45.2c-53.8-22.5-91.4-48.6-113-78.2c-21.6-29.7-24.6-61.2-9.1-94.7
			c21.8-47.1,64.1-82.1,127-104.9c62.8-22.8,140.8-31.4,233.9-25.9c54.2,3.2,102.9,12.2,146.1,26.7c43.2,14.6,78.5,34,106,58.3
			l-149.7,72.7c-20.8-18.4-43.6-33-68.4-43.7c-24.8-10.7-50.6-16.9-77.5-18.5c-36.4-2.2-66.9,0.9-91.6,9.2
			c-24.7,8.3-41.2,21.4-49.5,39.4c-5.5,11.9-3.6,23.6,5.7,35.1c9.3,11.5,25.3,22.3,47.7,32.5l101.7,44.8
			c52.9,23.5,90.1,49.4,111.6,77.8c21.5,28.4,25.3,57.6,11.3,87.8c-22.2,47.9-67.4,83.2-135.7,105.8
			C1920.6,1706.8,1834.5,1715,1730.7,1708.8z M1638.2,1820.5l79.4-171.5l157,9.4l-79.4,171.5L1638.2,1820.5z M1921.2,1209.2
			l79.5-171.8l157,9.4l-79.5,171.8L1921.2,1209.2z"/>
	</g>
</g>
</svg>
