<?xml version="1.0" encoding="utf-8"?>
<!-- Generator: Adobe Illustrator 25.2.1, SVG Export Plug-In . SVG Version: 6.00 Build 0)  -->
<svg version="1.1" id="Capa_1" xmlns="http://www.w3.org/2000/svg" xmlns:xlink="http://www.w3.org/1999/xlink" x="0px" y="0px"
	 viewBox="0 0 397 397" style="enable-background:new 0 0 397 397;" xml:space="preserve">
<style type="text/css">
	.st0{fill:#FF0000;}
</style>
<g>
	<path class="st0" d="M133.8,99h28.4c5.4,0,9.8-4.4,9.8-9.8V60.8c0-5.4-4.4-9.8-9.8-9.8h-28.4c-5.4,0-9.8,4.4-9.8,9.8v28.4
		C124.1,94.6,128.4,99,133.8,99z M131.1,60.8c0-1.5,1.3-2.8,2.8-2.8h28.4c1.5,0,2.8,1.3,2.8,2.8v28.4c0,1.5-1.3,2.8-2.8,2.8h-28.4
		c-1.5,0-2.8-1.3-2.8-2.8V60.8z"/>
	<path class="st0" d="M67.8,99h28.4c5.4,0,9.8-4.4,9.8-9.8V60.8c0-5.4-4.4-9.8-9.8-9.8H67.8c-5.4,0-9.8,4.4-9.8,9.8v28.4
		C58.1,94.6,62.4,99,67.8,99z M65.1,60.8c0-1.5,1.3-2.8,2.8-2.8h28.4c1.5,0,2.8,1.3,2.8,2.8v28.4c0,1.5-1.3,2.8-2.8,2.8H67.8
		c-1.5,0-2.8-1.3-2.8-2.8V60.8z"/>
	<path class="st0" d="M133.8,173h28.4c5.4,0,9.8-4.4,9.8-9.8v-28.4c0-5.4-4.4-9.8-9.8-9.8h-28.4c-5.4,0-9.8,4.4-9.8,9.8v28.4
		C124.1,168.6,128.4,173,133.8,173z M131.1,134.8c0-1.5,1.3-2.8,2.8-2.8h28.4c1.5,0,2.8,1.3,2.8,2.8v28.4c0,1.5-1.3,2.8-2.8,2.8
		h-28.4c-1.5,0-2.8-1.3-2.8-2.8V134.8z"/>
	<path class="st0" d="M67.8,173h28.4c5.4,0,9.8-4.4,9.8-9.8v-28.4c0-5.4-4.4-9.8-9.8-9.8H67.8c-5.4,0-9.8,4.4-9.8,9.8v28.4
		C58.1,168.6,62.4,173,67.8,173z M65.1,134.8c0-1.5,1.3-2.8,2.8-2.8h28.4c1.5,0,2.8,1.3,2.8,2.8v28.4c0,1.5-1.3,2.8-2.8,2.8H67.8
		c-1.5,0-2.8-1.3-2.8-2.8V134.8z"/>
	<path class="st0" d="M133.8,249h28.4c5.4,0,9.8-4.4,9.8-9.8v-28.4c0-5.4-4.4-9.8-9.8-9.8h-28.4c-5.4,0-9.8,4.4-9.8,9.8v28.4
		C124.1,244.6,128.4,249,133.8,249z M131.1,210.8c0-1.5,1.3-2.8,2.8-2.8h28.4c1.5,0,2.8,1.3,2.8,2.8v28.4c0,1.5-1.3,2.8-2.8,2.8
		h-28.4c-1.5,0-2.8-1.3-2.8-2.8V210.8z"/>
	<path class="st0" d="M67.8,249h28.4c5.4,0,9.8-4.4,9.8-9.8v-28.4c0-5.4-4.4-9.8-9.8-9.8H67.8c-5.4,0-9.8,4.4-9.8,9.8v28.4
		C58.1,244.6,62.4,249,67.8,249z M65.1,210.8c0-1.5,1.3-2.8,2.8-2.8h28.4c1.5,0,2.8,1.3,2.8,2.8v28.4c0,1.5-1.3,2.8-2.8,2.8H67.8
		c-1.5,0-2.8-1.3-2.8-2.8V210.8z"/>
	<path class="st0" d="M328.3,218h-28.4c-5.4,0-9.8,4.4-9.8,9.8v28.4c0,5.4,4.4,9.8,9.8,9.8h28.4c5.4,0,9.8-4.4,9.8-9.8v-28.4
		C338.1,222.4,333.7,218,328.3,218z M331.1,256.2c0,1.5-1.3,2.8-2.8,2.8h-28.4c-1.5,0-2.8-1.3-2.8-2.8v-28.4c0-1.5,1.3-2.8,2.8-2.8
		h28.4c1.5,0,2.8,1.3,2.8,2.8V256.2z"/>
	<path class="st0" d="M233.8,266h28.4c5.4,0,9.8-4.4,9.8-9.8v-28.4c0-5.4-4.4-9.8-9.8-9.8h-28.4c-5.4,0-9.8,4.4-9.8,9.8v28.4
		C224.1,261.6,228.4,266,233.8,266z M231.1,227.8c0-1.5,1.3-2.8,2.8-2.8h28.4c1.5,0,2.8,1.3,2.8,2.8v28.4c0,1.5-1.3,2.8-2.8,2.8
		h-28.4c-1.5,0-2.8-1.3-2.8-2.8V227.8z"/>
	<path class="st0" d="M148.1,307H84c-13.8,0-25,11.2-25,25v27.5c0,1.9,1.6,3.5,3.5,3.5c1.9,0,3.5-1.6,3.5-3.5V332
		c0-9.9,8.1-18,18-18h64c9.9,0,18,8.1,18,18v27.5c0,1.9,1.6,3.5,3.5,3.5s3.5-1.6,3.5-3.5V332C173.1,318.2,161.8,307,148.1,307z"/>
	<path class="st0" d="M313.1,307h-64c-13.8,0-25,11.2-25,25v28.5c0,1.9,1.6,3.5,3.5,3.5s3.5-1.6,3.5-3.5V332c0-9.9,8.1-18,18-18h64
		c9.9,0,18,8.1,18,18v28.5c0,1.9,1.6,3.5,3.5,3.5s3.5-1.6,3.5-3.5V332C338.1,318.2,326.8,307,313.1,307z"/>
	<path class="st0" d="M355.4,182H204.1V33.6c0-8.6-7-15.6-15.6-15.6H40.7c-8.6,0-15.6,7-15.6,15.6V368c0,9.4,7.6,17,17,17h309.4
		c10.8,0,19.6-8.8,19.6-19.6V197.6C371.1,189,364,182,355.4,182z M364.1,365.4c0,7-5.7,12.6-12.6,12.6H42c-5.5,0-10-4.5-10-10V33.6
		c0-4.8,3.9-8.6,8.6-8.6h147.7c4.8,0,8.6,3.9,8.6,8.6v314.9c0,1.9,1.6,3.5,3.5,3.5s3.5-1.6,3.5-3.5V189h151.4c4.8,0,8.6,3.9,8.6,8.6
		V365.4z"/>
</g>
</svg>
