<svg width="158" height="201" viewBox="0 0 158 201" fill="none" xmlns="http://www.w3.org/2000/svg">
<path d="M112.331 77.8433C132.397 77.8433 148.664 61.1119 148.664 40.4727C148.664 19.8334 132.397 3.10205 112.331 3.10205C92.2642 3.10205 75.9972 19.8334 75.9972 40.4727C75.9972 61.1119 92.2642 77.8433 112.331 77.8433Z" fill="#E3C763"/>
<path d="M112.331 78.0618C92.1878 78.0618 75.7847 61.1904 75.7847 40.4727C75.7847 19.755 92.1878 2.88354 112.331 2.88354C132.473 2.88354 148.876 19.755 148.876 40.4727C148.876 61.1904 132.473 78.0618 112.331 78.0618ZM112.331 3.32063C92.4215 3.32063 76.2096 19.9953 76.2096 40.4727C76.2096 60.95 92.4215 77.6248 112.331 77.6248C132.239 77.6248 148.451 60.95 148.451 40.4727C148.451 19.9953 132.239 3.32063 112.331 3.32063Z" fill="black"/>
<path d="M117.961 76.9691C138.028 76.9691 154.295 60.2377 154.295 39.5985C154.295 18.9593 138.028 2.22791 117.961 2.22791C97.8948 2.22791 81.6278 18.9593 81.6278 39.5985C81.6278 60.2377 97.8948 76.9691 117.961 76.9691Z" fill="#FEEAA0"/>
<path d="M117.961 77.1877C97.8184 77.1877 81.4153 60.3163 81.4153 39.5985C81.4153 18.8808 97.8184 2.0094 117.961 2.0094C138.104 2.0094 154.507 18.8808 154.507 39.5985C154.507 60.3163 138.104 77.1877 117.961 77.1877ZM117.961 2.44648C98.0521 2.44648 81.8402 19.1212 81.8402 39.5985C81.8402 60.0759 98.0521 76.7506 117.961 76.7506C137.87 76.7506 154.082 60.0759 154.082 39.5985C154.082 19.1212 137.87 2.44648 117.961 2.44648Z" fill="black"/>
<path d="M117.642 68.8831C102.004 68.8831 89.2769 55.7924 89.2769 39.7078C89.2769 23.6231 102.004 10.5325 117.642 10.5325C133.281 10.5325 146.008 23.6231 146.008 39.7078C146.008 55.7924 133.281 68.8831 117.642 68.8831ZM117.642 10.9696C102.238 10.9696 89.7018 23.8635 89.7018 39.7078C89.7018 55.552 102.238 68.446 117.642 68.446C133.047 68.446 145.583 55.552 145.583 39.7078C145.583 23.8635 133.047 10.9696 117.642 10.9696Z" fill="black"/>
<path d="M140.165 48.0124C140.122 48.0124 140.059 48.0124 140.016 47.9905C139.74 47.9031 139.57 47.5972 139.655 47.313C139.676 47.2256 141.907 39.0959 138.826 31.2721C134.513 20.345 122.954 17.198 122.827 17.1762C122.551 17.1106 122.381 16.8046 122.444 16.5205C122.508 16.2364 122.805 16.0616 123.082 16.1272C123.209 16.149 126.163 16.9358 129.732 19.143C133.026 21.1755 137.445 24.8688 139.804 30.8787C143.033 39.0522 140.76 47.2693 140.675 47.619C140.611 47.8594 140.398 48.0124 140.165 48.0124Z" fill="white"/>
<path d="M119.661 56.4262H112.33V55.9891H119.661C123.932 55.9891 127.416 52.405 127.416 48.0123C127.416 43.6196 123.932 40.0355 119.661 40.0355H115.836C111.204 40.0355 107.443 36.1673 107.443 31.4031C107.443 26.6389 111.204 22.7708 115.836 22.7708H122.954V23.2078H115.836C111.438 23.2078 107.868 26.8793 107.868 31.4031C107.868 35.927 111.438 39.5985 115.836 39.5985H119.661C124.165 39.5985 127.841 43.3792 127.841 48.0123C127.841 52.6454 124.165 56.4262 119.661 56.4262Z" fill="black"/>
<path d="M117.215 19.6977L116.79 19.7168L118.49 59.7136L118.915 59.6945L117.215 19.6977Z" fill="black"/>
<mask id="path-9-outside-1_82_501" maskUnits="userSpaceOnUse" x="9.61597" y="50.0331" width="139" height="147" fill="black">
<rect fill="white" x="9.61597" y="50.0331" width="139" height="147"/>
<path fill-rule="evenodd" clip-rule="evenodd" d="M81.2085 115.71H140.877C144.269 115.71 147.069 118.471 147.069 121.862V188.038C147.069 192.297 143.598 195.768 139.339 195.768H17.3203C13.6132 195.768 10.616 192.77 10.616 189.063V57.1853C10.616 53.7937 13.3766 51.0331 16.7682 51.0331H75.0563C78.4479 51.0331 81.2085 53.7937 81.2085 57.1853V115.71ZM139.339 193.007C142.06 193.007 144.308 190.798 144.308 188.038H144.229V121.862C144.229 120.009 142.731 118.471 140.838 118.471H81.1297V181.373C81.1297 182.122 80.4987 182.753 79.7494 182.753C79.0001 182.753 78.3691 182.122 78.3691 181.373V57.1853C78.3691 55.3317 76.8705 53.7937 74.9775 53.7937H16.7287C14.8752 53.7937 13.3371 55.2923 13.3371 57.1853V189.063C13.3371 191.232 15.1118 193.007 17.2809 193.007H139.339ZM27.4555 82.9772H38.6557C40.7853 82.9772 42.5205 81.242 42.5205 79.1124V67.9122C42.5205 65.7826 40.7853 64.0474 38.6557 64.0474H27.4555C25.3259 64.0474 23.5907 65.7826 23.5907 67.9122V79.1124C23.6301 81.242 25.3259 82.9772 27.4555 82.9772ZM26.3907 67.9122C26.3907 67.3207 26.9034 66.808 27.495 66.808H38.6951C39.2867 66.808 39.7994 67.3207 39.7994 67.9122V79.1124C39.7994 79.7039 39.2867 80.2166 38.6951 80.2166H27.4555C26.864 80.2166 26.3513 79.7039 26.3513 79.1124V67.9122H26.3907ZM53.4841 82.9772H64.6843C66.8139 82.9772 68.5491 81.242 68.5491 79.1124V67.9122C68.5491 65.7826 66.8139 64.0474 64.6843 64.0474H53.4841C51.3545 64.0474 49.6193 65.7826 49.6193 67.9122V79.1124C49.6587 81.242 51.3545 82.9772 53.4841 82.9772ZM52.4193 67.9122C52.4193 67.3207 52.932 66.808 53.5236 66.808H64.7237C65.3153 66.808 65.828 67.3207 65.828 67.9122V79.1124C65.828 79.7039 65.3153 80.2166 64.7237 80.2166H53.5236C52.932 80.2166 52.4193 79.7039 52.4193 79.1124V67.9122ZM64.6843 112.161H53.4841C51.3545 112.161 49.6587 110.425 49.6193 108.296V97.0957C49.6193 94.9661 51.3545 93.2308 53.4841 93.2308H64.6843C66.8139 93.2308 68.5491 94.9661 68.5491 97.0957V108.296C68.5491 110.425 66.8139 112.161 64.6843 112.161ZM53.5236 95.9914C52.932 95.9914 52.4193 96.5041 52.4193 97.0957V108.296C52.4193 108.887 52.932 109.4 53.5236 109.4H64.7237C65.3153 109.4 65.828 108.887 65.828 108.296V97.0957C65.828 96.5041 65.3153 95.9914 64.7237 95.9914H53.5236ZM27.4555 112.161H38.6557C40.7853 112.161 42.5205 110.425 42.5205 108.296V97.0957C42.5205 94.9661 40.7853 93.2308 38.6557 93.2308H27.4555C25.3259 93.2308 23.5907 94.9661 23.5907 97.0957V108.296C23.6301 110.425 25.3259 112.161 27.4555 112.161ZM26.3907 97.0957C26.3907 96.5041 26.9034 95.9914 27.495 95.9914H38.6951C39.2867 95.9914 39.7994 96.5041 39.7994 97.0957V108.296C39.7994 108.887 39.2867 109.4 38.6951 109.4H27.4555C26.864 109.4 26.3513 108.887 26.3513 108.296V97.0957H26.3907ZM64.6843 142.133H53.4841C51.3545 142.133 49.6587 140.398 49.6193 138.268V127.068C49.6193 124.938 51.3545 123.203 53.4841 123.203H64.6843C66.8139 123.203 68.5491 124.938 68.5491 127.068V138.268C68.5491 140.398 66.8139 142.133 64.6843 142.133ZM53.5236 125.964C52.932 125.964 52.4193 126.476 52.4193 127.068V138.268C52.4193 138.86 52.932 139.372 53.5236 139.372H64.7237C65.3153 139.372 65.828 138.86 65.828 138.268V127.068C65.828 126.476 65.3153 125.964 64.7237 125.964H53.5236ZM27.4555 142.133H38.6557C40.7853 142.133 42.5205 140.398 42.5205 138.268V127.068C42.5205 124.938 40.7853 123.203 38.6557 123.203H27.4555C25.3259 123.203 23.5907 124.938 23.5907 127.068V138.268C23.6301 140.398 25.3259 142.133 27.4555 142.133ZM26.3907 127.068C26.3907 126.476 26.9034 125.964 27.495 125.964H38.6951C39.2867 125.964 39.7994 126.476 39.7994 127.068V138.268C39.7994 138.86 39.2867 139.372 38.6951 139.372H27.4555C26.864 139.372 26.3513 138.86 26.3513 138.268V127.068H26.3907ZM118.989 129.908H130.189C132.319 129.908 134.054 131.643 134.054 133.772V144.973C134.054 147.102 132.319 148.837 130.189 148.837H118.989C116.86 148.837 115.124 147.102 115.124 144.973V133.772C115.124 131.643 116.86 129.908 118.989 129.908ZM130.189 146.077C130.781 146.077 131.294 145.564 131.294 144.973V133.772C131.294 133.181 130.781 132.668 130.189 132.668H118.989C118.398 132.668 117.885 133.181 117.885 133.772V144.973C117.885 145.564 118.398 146.077 118.989 146.077H130.189ZM92.9213 148.837H104.122C106.251 148.837 107.986 147.102 107.986 144.973V133.772C107.986 131.643 106.251 129.908 104.122 129.908H92.9213C90.7917 129.908 89.0565 131.643 89.0565 133.772V144.973C89.0959 147.102 90.7917 148.837 92.9213 148.837ZM91.8565 133.772C91.8565 133.181 92.3692 132.668 92.9608 132.668H104.161C104.752 132.668 105.265 133.181 105.265 133.772V144.973C105.265 145.564 104.752 146.077 104.161 146.077H92.9608C92.3692 146.077 91.8565 145.564 91.8565 144.973V133.772ZM33.8444 165.007H59.1237C64.5266 165.007 68.983 169.424 68.9435 174.866V185.711C68.9435 186.46 68.3125 187.091 67.5632 187.091C66.8139 187.091 66.1829 186.46 66.1829 185.711V174.866C66.1829 170.962 62.9885 167.767 59.0842 167.767H33.8444C29.9401 167.767 26.7457 170.962 26.7457 174.866V185.711C26.7457 186.46 26.1147 187.091 25.3654 187.091C24.6161 187.091 23.9851 186.46 23.9851 185.711V174.866C23.9851 169.424 28.4021 165.007 33.8444 165.007ZM124.195 165.007H98.9553C93.5129 165.007 89.096 169.424 89.096 174.866V186.105C89.096 186.855 89.727 187.486 90.4763 187.486C91.2256 187.486 91.8566 186.855 91.8566 186.105V174.866C91.8566 170.962 95.051 167.767 98.9553 167.767H124.195C128.099 167.767 131.294 170.962 131.294 174.866V186.105C131.294 186.855 131.925 187.486 132.674 187.486C133.423 187.486 134.054 186.855 134.054 186.105V174.866C134.054 169.424 129.598 165.007 124.195 165.007Z"/>
</mask>
<path fill-rule="evenodd" clip-rule="evenodd" d="M81.2085 115.71H140.877C144.269 115.71 147.069 118.471 147.069 121.862V188.038C147.069 192.297 143.598 195.768 139.339 195.768H17.3203C13.6132 195.768 10.616 192.77 10.616 189.063V57.1853C10.616 53.7937 13.3766 51.0331 16.7682 51.0331H75.0563C78.4479 51.0331 81.2085 53.7937 81.2085 57.1853V115.71ZM139.339 193.007C142.06 193.007 144.308 190.798 144.308 188.038H144.229V121.862C144.229 120.009 142.731 118.471 140.838 118.471H81.1297V181.373C81.1297 182.122 80.4987 182.753 79.7494 182.753C79.0001 182.753 78.3691 182.122 78.3691 181.373V57.1853C78.3691 55.3317 76.8705 53.7937 74.9775 53.7937H16.7287C14.8752 53.7937 13.3371 55.2923 13.3371 57.1853V189.063C13.3371 191.232 15.1118 193.007 17.2809 193.007H139.339ZM27.4555 82.9772H38.6557C40.7853 82.9772 42.5205 81.242 42.5205 79.1124V67.9122C42.5205 65.7826 40.7853 64.0474 38.6557 64.0474H27.4555C25.3259 64.0474 23.5907 65.7826 23.5907 67.9122V79.1124C23.6301 81.242 25.3259 82.9772 27.4555 82.9772ZM26.3907 67.9122C26.3907 67.3207 26.9034 66.808 27.495 66.808H38.6951C39.2867 66.808 39.7994 67.3207 39.7994 67.9122V79.1124C39.7994 79.7039 39.2867 80.2166 38.6951 80.2166H27.4555C26.864 80.2166 26.3513 79.7039 26.3513 79.1124V67.9122H26.3907ZM53.4841 82.9772H64.6843C66.8139 82.9772 68.5491 81.242 68.5491 79.1124V67.9122C68.5491 65.7826 66.8139 64.0474 64.6843 64.0474H53.4841C51.3545 64.0474 49.6193 65.7826 49.6193 67.9122V79.1124C49.6587 81.242 51.3545 82.9772 53.4841 82.9772ZM52.4193 67.9122C52.4193 67.3207 52.932 66.808 53.5236 66.808H64.7237C65.3153 66.808 65.828 67.3207 65.828 67.9122V79.1124C65.828 79.7039 65.3153 80.2166 64.7237 80.2166H53.5236C52.932 80.2166 52.4193 79.7039 52.4193 79.1124V67.9122ZM64.6843 112.161H53.4841C51.3545 112.161 49.6587 110.425 49.6193 108.296V97.0957C49.6193 94.9661 51.3545 93.2308 53.4841 93.2308H64.6843C66.8139 93.2308 68.5491 94.9661 68.5491 97.0957V108.296C68.5491 110.425 66.8139 112.161 64.6843 112.161ZM53.5236 95.9914C52.932 95.9914 52.4193 96.5041 52.4193 97.0957V108.296C52.4193 108.887 52.932 109.4 53.5236 109.4H64.7237C65.3153 109.4 65.828 108.887 65.828 108.296V97.0957C65.828 96.5041 65.3153 95.9914 64.7237 95.9914H53.5236ZM27.4555 112.161H38.6557C40.7853 112.161 42.5205 110.425 42.5205 108.296V97.0957C42.5205 94.9661 40.7853 93.2308 38.6557 93.2308H27.4555C25.3259 93.2308 23.5907 94.9661 23.5907 97.0957V108.296C23.6301 110.425 25.3259 112.161 27.4555 112.161ZM26.3907 97.0957C26.3907 96.5041 26.9034 95.9914 27.495 95.9914H38.6951C39.2867 95.9914 39.7994 96.5041 39.7994 97.0957V108.296C39.7994 108.887 39.2867 109.4 38.6951 109.4H27.4555C26.864 109.4 26.3513 108.887 26.3513 108.296V97.0957H26.3907ZM64.6843 142.133H53.4841C51.3545 142.133 49.6587 140.398 49.6193 138.268V127.068C49.6193 124.938 51.3545 123.203 53.4841 123.203H64.6843C66.8139 123.203 68.5491 124.938 68.5491 127.068V138.268C68.5491 140.398 66.8139 142.133 64.6843 142.133ZM53.5236 125.964C52.932 125.964 52.4193 126.476 52.4193 127.068V138.268C52.4193 138.86 52.932 139.372 53.5236 139.372H64.7237C65.3153 139.372 65.828 138.86 65.828 138.268V127.068C65.828 126.476 65.3153 125.964 64.7237 125.964H53.5236ZM27.4555 142.133H38.6557C40.7853 142.133 42.5205 140.398 42.5205 138.268V127.068C42.5205 124.938 40.7853 123.203 38.6557 123.203H27.4555C25.3259 123.203 23.5907 124.938 23.5907 127.068V138.268C23.6301 140.398 25.3259 142.133 27.4555 142.133ZM26.3907 127.068C26.3907 126.476 26.9034 125.964 27.495 125.964H38.6951C39.2867 125.964 39.7994 126.476 39.7994 127.068V138.268C39.7994 138.86 39.2867 139.372 38.6951 139.372H27.4555C26.864 139.372 26.3513 138.86 26.3513 138.268V127.068H26.3907ZM118.989 129.908H130.189C132.319 129.908 134.054 131.643 134.054 133.772V144.973C134.054 147.102 132.319 148.837 130.189 148.837H118.989C116.86 148.837 115.124 147.102 115.124 144.973V133.772C115.124 131.643 116.86 129.908 118.989 129.908ZM130.189 146.077C130.781 146.077 131.294 145.564 131.294 144.973V133.772C131.294 133.181 130.781 132.668 130.189 132.668H118.989C118.398 132.668 117.885 133.181 117.885 133.772V144.973C117.885 145.564 118.398 146.077 118.989 146.077H130.189ZM92.9213 148.837H104.122C106.251 148.837 107.986 147.102 107.986 144.973V133.772C107.986 131.643 106.251 129.908 104.122 129.908H92.9213C90.7917 129.908 89.0565 131.643 89.0565 133.772V144.973C89.0959 147.102 90.7917 148.837 92.9213 148.837ZM91.8565 133.772C91.8565 133.181 92.3692 132.668 92.9608 132.668H104.161C104.752 132.668 105.265 133.181 105.265 133.772V144.973C105.265 145.564 104.752 146.077 104.161 146.077H92.9608C92.3692 146.077 91.8565 145.564 91.8565 144.973V133.772ZM33.8444 165.007H59.1237C64.5266 165.007 68.983 169.424 68.9435 174.866V185.711C68.9435 186.46 68.3125 187.091 67.5632 187.091C66.8139 187.091 66.1829 186.46 66.1829 185.711V174.866C66.1829 170.962 62.9885 167.767 59.0842 167.767H33.8444C29.9401 167.767 26.7457 170.962 26.7457 174.866V185.711C26.7457 186.46 26.1147 187.091 25.3654 187.091C24.6161 187.091 23.9851 186.46 23.9851 185.711V174.866C23.9851 169.424 28.4021 165.007 33.8444 165.007ZM124.195 165.007H98.9553C93.5129 165.007 89.096 169.424 89.096 174.866V186.105C89.096 186.855 89.727 187.486 90.4763 187.486C91.2256 187.486 91.8566 186.855 91.8566 186.105V174.866C91.8566 170.962 95.051 167.767 98.9553 167.767H124.195C128.099 167.767 131.294 170.962 131.294 174.866V186.105C131.294 186.855 131.925 187.486 132.674 187.486C133.423 187.486 134.054 186.855 134.054 186.105V174.866C134.054 169.424 129.598 165.007 124.195 165.007Z" fill="#0D2C5E"/>
<path d="M81.2085 115.71H80.2085V116.71H81.2085V115.71ZM144.308 188.038H145.308V187.038H144.308V188.038ZM144.229 188.038H143.229V189.038H144.229V188.038ZM81.1297 118.471V117.471H80.1297V118.471H81.1297ZM23.5907 79.1124H22.5907V79.1216L22.5909 79.1309L23.5907 79.1124ZM26.3907 67.9122V68.9122H27.3907V67.9122H26.3907ZM26.3513 67.9122V66.9122H25.3513V67.9122H26.3513ZM49.6193 79.1124H48.6193V79.1216L48.6195 79.1309L49.6193 79.1124ZM49.6193 108.296H48.6193V108.305L48.6195 108.314L49.6193 108.296ZM23.5907 108.296H22.5907V108.305L22.5909 108.314L23.5907 108.296ZM26.3907 97.0957V98.0957H27.3907V97.0957H26.3907ZM26.3513 97.0957V96.0957H25.3513V97.0957H26.3513ZM49.6193 138.268H48.6193V138.277L48.6195 138.287L49.6193 138.268ZM23.5907 138.268H22.5907V138.277L22.5909 138.287L23.5907 138.268ZM26.3907 127.068V128.068H27.3907V127.068H26.3907ZM26.3513 127.068V126.068H25.3513V127.068H26.3513ZM89.0565 144.973H88.0565V144.982L88.0567 144.991L89.0565 144.973ZM68.9435 174.866L67.9435 174.859V174.866H68.9435ZM140.877 114.71H81.2085V116.71H140.877V114.71ZM148.069 121.862C148.069 117.91 144.813 114.71 140.877 114.71V116.71C143.725 116.71 146.069 119.031 146.069 121.862H148.069ZM148.069 188.038V121.862H146.069V188.038H148.069ZM139.339 196.768C144.15 196.768 148.069 192.849 148.069 188.038H146.069C146.069 191.745 143.046 194.768 139.339 194.768V196.768ZM17.3203 196.768H139.339V194.768H17.3203V196.768ZM9.61597 189.063C9.61597 193.323 13.0609 196.768 17.3203 196.768V194.768C14.1655 194.768 11.616 192.218 11.616 189.063H9.61597ZM9.61597 57.1853V189.063H11.616V57.1853H9.61597ZM16.7682 50.0331C12.8243 50.0331 9.61597 53.2414 9.61597 57.1853H11.616C11.616 54.346 13.9289 52.0331 16.7682 52.0331V50.0331ZM75.0563 50.0331H16.7682V52.0331H75.0563V50.0331ZM82.2085 57.1853C82.2085 53.2414 79.0002 50.0331 75.0563 50.0331V52.0331C77.8957 52.0331 80.2085 54.346 80.2085 57.1853H82.2085ZM82.2085 115.71V57.1853H80.2085V115.71H82.2085ZM143.308 188.038C143.308 190.241 141.513 192.007 139.339 192.007V194.007C142.607 194.007 145.308 191.356 145.308 188.038H143.308ZM144.229 189.038H144.308V187.038H144.229V189.038ZM143.229 121.862V188.038H145.229V121.862H143.229ZM140.838 119.471C142.171 119.471 143.229 120.553 143.229 121.862H145.229C145.229 119.464 143.29 117.471 140.838 117.471V119.471ZM81.1297 119.471H140.838V117.471H81.1297V119.471ZM82.1297 181.373V118.471H80.1297V181.373H82.1297ZM79.7494 183.753C81.051 183.753 82.1297 182.675 82.1297 181.373H80.1297C80.1297 181.57 79.9464 181.753 79.7494 181.753V183.753ZM77.3691 181.373C77.3691 182.675 78.4478 183.753 79.7494 183.753V181.753C79.5523 181.753 79.3691 181.57 79.3691 181.373H77.3691ZM77.3691 57.1853V181.373H79.3691V57.1853H77.3691ZM74.9775 54.7937C76.3106 54.7937 77.3691 55.8764 77.3691 57.1853H79.3691C79.3691 54.787 77.4303 52.7937 74.9775 52.7937V54.7937ZM16.7287 54.7937H74.9775V52.7937H16.7287V54.7937ZM14.3371 57.1853C14.3371 55.8521 15.4199 54.7937 16.7287 54.7937V52.7937C14.3305 52.7937 12.3371 54.7325 12.3371 57.1853H14.3371ZM14.3371 189.063V57.1853H12.3371V189.063H14.3371ZM17.2809 192.007C15.6641 192.007 14.3371 190.68 14.3371 189.063H12.3371C12.3371 191.785 14.5595 194.007 17.2809 194.007V192.007ZM139.339 192.007H17.2809V194.007H139.339V192.007ZM38.6557 81.9772H27.4555V83.9772H38.6557V81.9772ZM41.5205 79.1124C41.5205 80.6897 40.233 81.9772 38.6557 81.9772V83.9772C41.3376 83.9772 43.5205 81.7943 43.5205 79.1124H41.5205ZM41.5205 67.9122V79.1124H43.5205V67.9122H41.5205ZM38.6557 65.0474C40.233 65.0474 41.5205 66.3349 41.5205 67.9122H43.5205C43.5205 65.2303 41.3376 63.0474 38.6557 63.0474V65.0474ZM27.4555 65.0474H38.6557V63.0474H27.4555V65.0474ZM24.5907 67.9122C24.5907 66.3349 25.8782 65.0474 27.4555 65.0474V63.0474C24.7736 63.0474 22.5907 65.2303 22.5907 67.9122H24.5907ZM24.5907 79.1124V67.9122H22.5907V79.1124H24.5907ZM27.4555 81.9772C25.8947 81.9772 24.6203 80.7026 24.5905 79.0939L22.5909 79.1309C22.6399 81.7814 24.7571 83.9772 27.4555 83.9772V81.9772ZM27.495 65.808C26.3511 65.808 25.3907 66.7684 25.3907 67.9122H27.3907C27.3907 67.9084 27.3937 67.8798 27.4281 67.8454C27.4625 67.811 27.4912 67.808 27.495 67.808V65.808ZM38.6951 65.808H27.495V67.808H38.6951V65.808ZM40.7994 67.9122C40.7994 66.7684 39.839 65.808 38.6951 65.808V67.808C38.6989 67.808 38.7276 67.811 38.762 67.8454C38.7964 67.8798 38.7994 67.9084 38.7994 67.9122H40.7994ZM40.7994 79.1124V67.9122H38.7994V79.1124H40.7994ZM38.6951 81.2166C39.839 81.2166 40.7994 80.2562 40.7994 79.1124H38.7994C38.7994 79.1162 38.7964 79.1449 38.762 79.1792C38.7276 79.2136 38.6989 79.2166 38.6951 79.2166V81.2166ZM27.4555 81.2166H38.6951V79.2166H27.4555V81.2166ZM25.3513 79.1124C25.3513 80.2562 26.3117 81.2166 27.4555 81.2166V79.2166C27.4517 79.2166 27.4231 79.2136 27.3887 79.1792C27.3543 79.1449 27.3513 79.1162 27.3513 79.1124H25.3513ZM25.3513 67.9122V79.1124H27.3513V67.9122H25.3513ZM26.3907 66.9122H26.3513V68.9122H26.3907V66.9122ZM64.6843 81.9772H53.4841V83.9772H64.6843V81.9772ZM67.5491 79.1124C67.5491 80.6897 66.2616 81.9772 64.6843 81.9772V83.9772C67.3662 83.9772 69.5491 81.7943 69.5491 79.1124H67.5491ZM67.5491 67.9122V79.1124H69.5491V67.9122H67.5491ZM64.6843 65.0474C66.2616 65.0474 67.5491 66.3349 67.5491 67.9122H69.5491C69.5491 65.2303 67.3662 63.0474 64.6843 63.0474V65.0474ZM53.4841 65.0474H64.6843V63.0474H53.4841V65.0474ZM50.6193 67.9122C50.6193 66.3349 51.9068 65.0474 53.4841 65.0474V63.0474C50.8022 63.0474 48.6193 65.2303 48.6193 67.9122H50.6193ZM50.6193 79.1124V67.9122H48.6193V79.1124H50.6193ZM53.4841 81.9772C51.9233 81.9772 50.6489 80.7026 50.6191 79.0939L48.6195 79.1309C48.6685 81.7814 50.7857 83.9772 53.4841 83.9772V81.9772ZM53.5236 65.808C52.3797 65.808 51.4193 66.7684 51.4193 67.9122H53.4193C53.4193 67.9084 53.4223 67.8798 53.4567 67.8454C53.4911 67.811 53.5198 67.808 53.5236 67.808V65.808ZM64.7237 65.808H53.5236V67.808H64.7237V65.808ZM66.828 67.9122C66.828 66.7684 65.8676 65.808 64.7237 65.808V67.808C64.7275 67.808 64.7562 67.811 64.7906 67.8454C64.825 67.8798 64.828 67.9084 64.828 67.9122H66.828ZM66.828 79.1124V67.9122H64.828V79.1124H66.828ZM64.7237 81.2166C65.8676 81.2166 66.828 80.2562 66.828 79.1124H64.828C64.828 79.1162 64.825 79.1449 64.7906 79.1792C64.7562 79.2136 64.7275 79.2166 64.7237 79.2166V81.2166ZM53.5236 81.2166H64.7237V79.2166H53.5236V81.2166ZM51.4193 79.1124C51.4193 80.2562 52.3797 81.2166 53.5236 81.2166V79.2166C53.5198 79.2166 53.4911 79.2136 53.4567 79.1792C53.4223 79.1449 53.4193 79.1162 53.4193 79.1124H51.4193ZM51.4193 67.9122V79.1124H53.4193V67.9122H51.4193ZM53.4841 113.161H64.6843V111.161H53.4841V113.161ZM48.6195 108.314C48.6685 110.965 50.7857 113.161 53.4841 113.161V111.161C51.9233 111.161 50.6489 109.886 50.6191 108.277L48.6195 108.314ZM48.6193 97.0957V108.296H50.6193V97.0957H48.6193ZM53.4841 92.2308C50.8022 92.2308 48.6193 94.4138 48.6193 97.0957H50.6193C50.6193 95.5183 51.9068 94.2308 53.4841 94.2308V92.2308ZM64.6843 92.2308H53.4841V94.2308H64.6843V92.2308ZM69.5491 97.0957C69.5491 94.4138 67.3662 92.2308 64.6843 92.2308V94.2308C66.2616 94.2308 67.5491 95.5183 67.5491 97.0957H69.5491ZM69.5491 108.296V97.0957H67.5491V108.296H69.5491ZM64.6843 113.161C67.3662 113.161 69.5491 110.978 69.5491 108.296H67.5491C67.5491 109.873 66.2616 111.161 64.6843 111.161V113.161ZM53.4193 97.0957C53.4193 97.0918 53.4223 97.0632 53.4567 97.0288C53.4911 96.9944 53.5198 96.9914 53.5236 96.9914V94.9914C52.3797 94.9914 51.4193 95.9518 51.4193 97.0957H53.4193ZM53.4193 108.296V97.0957H51.4193V108.296H53.4193ZM53.5236 108.4C53.5198 108.4 53.4911 108.397 53.4567 108.363C53.4223 108.328 53.4193 108.3 53.4193 108.296H51.4193C51.4193 109.44 52.3797 110.4 53.5236 110.4V108.4ZM64.7237 108.4H53.5236V110.4H64.7237V108.4ZM64.828 108.296C64.828 108.3 64.825 108.328 64.7906 108.363C64.7562 108.397 64.7275 108.4 64.7237 108.4V110.4C65.8676 110.4 66.828 109.44 66.828 108.296H64.828ZM64.828 97.0957V108.296H66.828V97.0957H64.828ZM64.7237 96.9914C64.7275 96.9914 64.7562 96.9944 64.7906 97.0288C64.825 97.0632 64.828 97.0919 64.828 97.0957H66.828C66.828 95.9518 65.8676 94.9914 64.7237 94.9914V96.9914ZM53.5236 96.9914H64.7237V94.9914H53.5236V96.9914ZM38.6557 111.161H27.4555V113.161H38.6557V111.161ZM41.5205 108.296C41.5205 109.873 40.233 111.161 38.6557 111.161V113.161C41.3376 113.161 43.5205 110.978 43.5205 108.296H41.5205ZM41.5205 97.0957V108.296H43.5205V97.0957H41.5205ZM38.6557 94.2308C40.233 94.2308 41.5205 95.5183 41.5205 97.0957H43.5205C43.5205 94.4138 41.3376 92.2308 38.6557 92.2308V94.2308ZM27.4555 94.2308H38.6557V92.2308H27.4555V94.2308ZM24.5907 97.0957C24.5907 95.5183 25.8782 94.2308 27.4555 94.2308V92.2308C24.7736 92.2308 22.5907 94.4138 22.5907 97.0957H24.5907ZM24.5907 108.296V97.0957H22.5907V108.296H24.5907ZM27.4555 111.161C25.8947 111.161 24.6203 109.886 24.5905 108.277L22.5909 108.314C22.6399 110.965 24.7571 113.161 27.4555 113.161V111.161ZM27.495 94.9914C26.3511 94.9914 25.3907 95.9518 25.3907 97.0957H27.3907C27.3907 97.0919 27.3937 97.0632 27.4281 97.0288C27.4625 96.9944 27.4912 96.9914 27.495 96.9914V94.9914ZM38.6951 94.9914H27.495V96.9914H38.6951V94.9914ZM40.7994 97.0957C40.7994 95.9518 39.839 94.9914 38.6951 94.9914V96.9914C38.6989 96.9914 38.7276 96.9944 38.762 97.0288C38.7964 97.0632 38.7994 97.0919 38.7994 97.0957H40.7994ZM40.7994 108.296V97.0957H38.7994V108.296H40.7994ZM38.6951 110.4C39.839 110.4 40.7994 109.44 40.7994 108.296H38.7994C38.7994 108.3 38.7964 108.328 38.762 108.363C38.7276 108.397 38.6989 108.4 38.6951 108.4V110.4ZM27.4555 110.4H38.6951V108.4H27.4555V110.4ZM25.3513 108.296C25.3513 109.44 26.3117 110.4 27.4555 110.4V108.4C27.4517 108.4 27.4231 108.397 27.3887 108.363C27.3543 108.328 27.3513 108.3 27.3513 108.296H25.3513ZM25.3513 97.0957V108.296H27.3513V97.0957H25.3513ZM26.3907 96.0957H26.3513V98.0957H26.3907V96.0957ZM53.4841 143.133H64.6843V141.133H53.4841V143.133ZM48.6195 138.287C48.6685 140.937 50.7857 143.133 53.4841 143.133V141.133C51.9233 141.133 50.6489 139.858 50.6191 138.25L48.6195 138.287ZM48.6193 127.068V138.268H50.6193V127.068H48.6193ZM53.4841 122.203C50.8022 122.203 48.6193 124.386 48.6193 127.068H50.6193C50.6193 125.491 51.9068 124.203 53.4841 124.203V122.203ZM64.6843 122.203H53.4841V124.203H64.6843V122.203ZM69.5491 127.068C69.5491 124.386 67.3662 122.203 64.6843 122.203V124.203C66.2616 124.203 67.5491 125.491 67.5491 127.068H69.5491ZM69.5491 138.268V127.068H67.5491V138.268H69.5491ZM64.6843 143.133C67.3662 143.133 69.5491 140.95 69.5491 138.268H67.5491C67.5491 139.845 66.2616 141.133 64.6843 141.133V143.133ZM53.4193 127.068C53.4193 127.064 53.4223 127.036 53.4567 127.001C53.4911 126.967 53.5197 126.964 53.5236 126.964V124.964C52.3797 124.964 51.4193 125.924 51.4193 127.068H53.4193ZM53.4193 138.268V127.068H51.4193V138.268H53.4193ZM53.5236 138.372C53.5198 138.372 53.4911 138.369 53.4567 138.335C53.4223 138.301 53.4193 138.272 53.4193 138.268H51.4193C51.4193 139.412 52.3797 140.372 53.5236 140.372V138.372ZM64.7237 138.372H53.5236V140.372H64.7237V138.372ZM64.828 138.268C64.828 138.272 64.825 138.301 64.7906 138.335C64.7562 138.369 64.7275 138.372 64.7237 138.372V140.372C65.8676 140.372 66.828 139.412 66.828 138.268H64.828ZM64.828 127.068V138.268H66.828V127.068H64.828ZM64.7237 126.964C64.7275 126.964 64.7562 126.967 64.7906 127.001C64.825 127.036 64.828 127.064 64.828 127.068H66.828C66.828 125.924 65.8676 124.964 64.7237 124.964V126.964ZM53.5236 126.964H64.7237V124.964H53.5236V126.964ZM38.6557 141.133H27.4555V143.133H38.6557V141.133ZM41.5205 138.268C41.5205 139.845 40.233 141.133 38.6557 141.133V143.133C41.3376 143.133 43.5205 140.95 43.5205 138.268H41.5205ZM41.5205 127.068V138.268H43.5205V127.068H41.5205ZM38.6557 124.203C40.233 124.203 41.5205 125.491 41.5205 127.068H43.5205C43.5205 124.386 41.3376 122.203 38.6557 122.203V124.203ZM27.4555 124.203H38.6557V122.203H27.4555V124.203ZM24.5907 127.068C24.5907 125.491 25.8782 124.203 27.4555 124.203V122.203C24.7736 122.203 22.5907 124.386 22.5907 127.068H24.5907ZM24.5907 138.268V127.068H22.5907V138.268H24.5907ZM27.4555 141.133C25.8947 141.133 24.6203 139.858 24.5905 138.25L22.5909 138.287C22.6399 140.937 24.7571 143.133 27.4555 143.133V141.133ZM27.495 124.964C26.3511 124.964 25.3907 125.924 25.3907 127.068H27.3907C27.3907 127.064 27.3937 127.036 27.4281 127.001C27.4625 126.967 27.4912 126.964 27.495 126.964V124.964ZM38.6951 124.964H27.495V126.964H38.6951V124.964ZM40.7994 127.068C40.7994 125.924 39.839 124.964 38.6951 124.964V126.964C38.6989 126.964 38.7276 126.967 38.762 127.001C38.7964 127.036 38.7994 127.064 38.7994 127.068H40.7994ZM40.7994 138.268V127.068H38.7994V138.268H40.7994ZM38.6951 140.372C39.839 140.372 40.7994 139.412 40.7994 138.268H38.7994C38.7994 138.272 38.7964 138.301 38.762 138.335C38.7276 138.369 38.6989 138.372 38.6951 138.372V140.372ZM27.4555 140.372H38.6951V138.372H27.4555V140.372ZM25.3513 138.268C25.3513 139.412 26.3117 140.372 27.4555 140.372V138.372C27.4517 138.372 27.4231 138.369 27.3887 138.335C27.3543 138.301 27.3513 138.272 27.3513 138.268H25.3513ZM25.3513 127.068V138.268H27.3513V127.068H25.3513ZM26.3907 126.068H26.3513V128.068H26.3907V126.068ZM130.189 128.908H118.989V130.908H130.189V128.908ZM135.054 133.772C135.054 131.09 132.871 128.908 130.189 128.908V130.908C131.767 130.908 133.054 132.195 133.054 133.772H135.054ZM135.054 144.973V133.772H133.054V144.973H135.054ZM130.189 149.837C132.871 149.837 135.054 147.654 135.054 144.973H133.054C133.054 146.55 131.767 147.837 130.189 147.837V149.837ZM118.989 149.837H130.189V147.837H118.989V149.837ZM114.124 144.973C114.124 147.654 116.307 149.837 118.989 149.837V147.837C117.412 147.837 116.124 146.55 116.124 144.973H114.124ZM114.124 133.772V144.973H116.124V133.772H114.124ZM118.989 128.908C116.307 128.908 114.124 131.09 114.124 133.772H116.124C116.124 132.195 117.412 130.908 118.989 130.908V128.908ZM130.294 144.973C130.294 144.976 130.291 145.005 130.256 145.039C130.222 145.074 130.193 145.077 130.189 145.077V147.077C131.333 147.077 132.294 146.116 132.294 144.973H130.294ZM130.294 133.772V144.973H132.294V133.772H130.294ZM130.189 133.668C130.193 133.668 130.222 133.671 130.256 133.706C130.291 133.74 130.294 133.769 130.294 133.772H132.294C132.294 132.629 131.333 131.668 130.189 131.668V133.668ZM118.989 133.668H130.189V131.668H118.989V133.668ZM118.885 133.772C118.885 133.769 118.888 133.74 118.922 133.706C118.957 133.671 118.985 133.668 118.989 133.668V131.668C117.845 131.668 116.885 132.629 116.885 133.772H118.885ZM118.885 144.973V133.772H116.885V144.973H118.885ZM118.989 145.077C118.985 145.077 118.957 145.074 118.922 145.039C118.888 145.005 118.885 144.976 118.885 144.973H116.885C116.885 146.116 117.845 147.077 118.989 147.077V145.077ZM130.189 145.077H118.989V147.077H130.189V145.077ZM104.122 147.837H92.9213V149.837H104.122V147.837ZM106.986 144.973C106.986 146.55 105.699 147.837 104.122 147.837V149.837C106.803 149.837 108.986 147.654 108.986 144.973H106.986ZM106.986 133.772V144.973H108.986V133.772H106.986ZM104.122 130.908C105.699 130.908 106.986 132.195 106.986 133.772H108.986C108.986 131.09 106.803 128.908 104.122 128.908V130.908ZM92.9213 130.908H104.122V128.908H92.9213V130.908ZM90.0565 133.772C90.0565 132.195 91.344 130.908 92.9213 130.908V128.908C90.2394 128.908 88.0565 131.09 88.0565 133.772H90.0565ZM90.0565 144.973V133.772H88.0565V144.973H90.0565ZM92.9213 147.837C91.3605 147.837 90.0861 146.563 90.0563 144.954L88.0567 144.991C88.1057 147.642 90.2229 149.837 92.9213 149.837V147.837ZM92.9608 131.668C91.8169 131.668 90.8565 132.629 90.8565 133.772H92.8565C92.8565 133.769 92.8595 133.74 92.8939 133.706C92.9283 133.671 92.957 133.668 92.9608 133.668V131.668ZM104.161 131.668H92.9608V133.668H104.161V131.668ZM106.265 133.772C106.265 132.629 105.305 131.668 104.161 131.668V133.668C104.165 133.668 104.193 133.671 104.228 133.706C104.262 133.74 104.265 133.769 104.265 133.772H106.265ZM106.265 144.973V133.772H104.265V144.973H106.265ZM104.161 147.077C105.305 147.077 106.265 146.116 106.265 144.973H104.265C104.265 144.976 104.262 145.005 104.228 145.039C104.193 145.074 104.165 145.077 104.161 145.077V147.077ZM92.9608 147.077H104.161V145.077H92.9608V147.077ZM90.8565 144.973C90.8565 146.116 91.8169 147.077 92.9608 147.077V145.077C92.957 145.077 92.9283 145.074 92.8939 145.039C92.8595 145.005 92.8565 144.976 92.8565 144.973H90.8565ZM90.8565 133.772V144.973H92.8565V133.772H90.8565ZM59.1237 164.007H33.8444V166.007H59.1237V164.007ZM69.9435 174.873C69.987 168.869 65.0748 164.007 59.1237 164.007V166.007C63.9783 166.007 67.9789 169.978 67.9436 174.859L69.9435 174.873ZM69.9435 185.711V174.866H67.9435V185.711H69.9435ZM67.5632 188.091C68.8648 188.091 69.9435 187.013 69.9435 185.711H67.9435C67.9435 185.908 67.7603 186.091 67.5632 186.091V188.091ZM65.1829 185.711C65.1829 187.013 66.2616 188.091 67.5632 188.091V186.091C67.3662 186.091 67.1829 185.908 67.1829 185.711H65.1829ZM65.1829 174.866V185.711H67.1829V174.866H65.1829ZM59.0842 168.767C62.4362 168.767 65.1829 171.514 65.1829 174.866H67.1829C67.1829 170.409 63.5408 166.767 59.0842 166.767V168.767ZM33.8444 168.767H59.0842V166.767H33.8444V168.767ZM27.7457 174.866C27.7457 171.514 30.4924 168.767 33.8444 168.767V166.767C29.3879 166.767 25.7457 170.409 25.7457 174.866H27.7457ZM27.7457 185.711V174.866H25.7457V185.711H27.7457ZM25.3654 188.091C26.667 188.091 27.7457 187.013 27.7457 185.711H25.7457C25.7457 185.908 25.5625 186.091 25.3654 186.091V188.091ZM22.9851 185.711C22.9851 187.013 24.0638 188.091 25.3654 188.091V186.091C25.1684 186.091 24.9851 185.908 24.9851 185.711H22.9851ZM22.9851 174.866V185.711H24.9851V174.866H22.9851ZM33.8444 164.007C27.8498 164.007 22.9851 168.871 22.9851 174.866H24.9851C24.9851 169.976 28.9544 166.007 33.8444 166.007V164.007ZM98.9553 166.007H124.195V164.007H98.9553V166.007ZM90.096 174.866C90.096 169.976 94.0652 166.007 98.9553 166.007V164.007C92.9606 164.007 88.096 168.871 88.096 174.866H90.096ZM90.096 186.105V174.866H88.096V186.105H90.096ZM90.4763 186.486C90.2792 186.486 90.096 186.302 90.096 186.105H88.096C88.096 187.407 89.1747 188.486 90.4763 188.486V186.486ZM90.8566 186.105C90.8566 186.302 90.6733 186.486 90.4763 186.486V188.486C91.7779 188.486 92.8566 187.407 92.8566 186.105H90.8566ZM90.8566 174.866V186.105H92.8566V174.866H90.8566ZM98.9553 166.767C94.4987 166.767 90.8566 170.409 90.8566 174.866H92.8566C92.8566 171.514 95.6033 168.767 98.9553 168.767V166.767ZM124.195 166.767H98.9553V168.767H124.195V166.767ZM132.294 174.866C132.294 170.409 128.652 166.767 124.195 166.767V168.767C127.547 168.767 130.294 171.514 130.294 174.866H132.294ZM132.294 186.105V174.866H130.294V186.105H132.294ZM132.674 186.486C132.477 186.486 132.294 186.302 132.294 186.105H130.294C130.294 187.407 131.372 188.486 132.674 188.486V186.486ZM133.054 186.105C133.054 186.302 132.871 186.486 132.674 186.486V188.486C133.976 188.486 135.054 187.407 135.054 186.105H133.054ZM133.054 174.866V186.105H135.054V174.866H133.054ZM124.195 166.007C129.048 166.007 133.054 169.978 133.054 174.866H135.054C135.054 168.869 130.148 164.007 124.195 164.007V166.007Z" fill="#0D2C5E" mask="url(#path-9-outside-1_82_501)"/>
</svg>
