<?xml version="1.0" encoding="utf-8"?>
<!-- Generator: Adobe Illustrator 25.2.1, SVG Export Plug-In . SVG Version: 6.00 Build 0)  -->
<svg version="1.1" id="Capa_1" xmlns="http://www.w3.org/2000/svg" xmlns:xlink="http://www.w3.org/1999/xlink" x="0px" y="0px"
	 viewBox="0 0 488 400" style="enable-background:new 0 0 488 400;" xml:space="preserve">
<style type="text/css">
	.st0{fill:#FFE993;}
</style>
<g>
	<path d="M455,371.5H31c-0.6,0-1-0.4-1-1s0.4-1,1-1h424c0.6,0,1,0.4,1,1S455.6,371.5,455,371.5z"/>
</g>
<g>
	<rect x="354.1" y="72.5" class="st0" width="73.9" height="298"/>
	<path d="M429,371.5h-75.9v-300H429V371.5z M355.1,369.5H427v-296h-71.9V369.5z"/>
</g>
<g>
	<rect x="243" y="151.5" class="st0" width="73.9" height="219"/>
	<path d="M317.9,371.5H242v-221h75.9V371.5z M244,369.5h71.9v-217H244V369.5z"/>
</g>
<g>
	<rect x="131" y="201.5" class="st0" width="73.9" height="169"/>
	<path d="M205.9,371.5H130v-171h75.9V371.5z M132,369.5h71.9v-167H132V369.5z"/>
</g>
<g>
	<rect x="31" y="32.5" class="st0" width="26" height="26"/>
	<path d="M58,59.5H30v-28h28V59.5z M32,57.5h24v-24H32V57.5z"/>
</g>
<g>
	<rect x="31" y="71.5" class="st0" width="26" height="26"/>
	<path d="M58,98.6H30v-28h28V98.6z M32,96.6h24v-24H32V96.6z"/>
</g>
<g>
	<rect x="31" y="107.7" class="st0" width="26" height="26"/>
	<path d="M58,134.7H30v-28h28V134.7z M32,132.7h24v-24H32V132.7z"/>
</g>
<g>
	<rect x="70.8" y="37.3" width="67.2" height="2"/>
</g>
<g>
	<rect x="70.8" y="51" width="37.6" height="2"/>
</g>
<g>
	<rect x="70.8" y="113.2" width="67.2" height="2"/>
</g>
<g>
	<rect x="70.8" y="126.9" width="66.5" height="2"/>
</g>
<g>
	<rect x="70.8" y="82.8" width="67.2" height="2"/>
</g>
</svg>
