<?xml version="1.0" encoding="utf-8"?>
<!-- Generator: Adobe Illustrator 25.2.1, SVG Export Plug-In . SVG Version: 6.00 Build 0)  -->
<svg version="1.1" id="Capa_1" xmlns="http://www.w3.org/2000/svg" xmlns:xlink="http://www.w3.org/1999/xlink" x="0px" y="0px"
	 viewBox="0 0 3325.1 4002" style="enable-background:new 0 0 3325.1 4002;" xml:space="preserve">
<style type="text/css">
	.st0{fill:#19191B;}
	.st1{fill:#FFFFFF;}
	.st2{fill:#15212F;}
	.st3{fill:#FBB348;}
</style>
<g>
	<path class="st0" d="M1693.3,3955L1693.3,3955c-647.3,0-1172-524.7-1172-1172V1252c0-647.3,524.7-1172,1172-1172h0
		c647.3,0,1172,524.7,1172,1172v1531C2865.2,3430.3,2340.5,3955,1693.3,3955z"/>
	<g>
		<path class="st1" d="M724.3,1118.6l-77.4-43.1l4.4-17.7l88.6-1.8l-3.9,15.6l-66.5-0.4l-0.2,1l58.9,30.9L724.3,1118.6z
			 M711.4,1103.4l-14.3-3.6l9.8-39.4l14.3,3.6L711.4,1103.4z"/>
		<path class="st1" d="M756,1009.3c-1.4,4.3-3.2,8.4-5.4,12.2s-4.4,7.1-6.9,9.8l-14.8-7.1c3.1-3.3,5.7-6.8,7.9-10.4
			c2.2-3.6,3.9-7,5-10.3c1.3-3.8,1.5-7,0.7-9.5c-0.8-2.5-2.5-4.2-5.2-5.1c-3.5-1.2-7.1,0-10.5,3.5l-9.3,9c-4.6,4.5-9.5,7.5-14.6,9.1
			c-5.1,1.6-10.2,1.5-15.3-0.1c-7.1-2.4-11.8-6.4-14.3-12.1c-2.4-5.7-2.3-12.5,0.4-20.6c1.6-4.7,3.9-8.8,7.1-12.4
			c3.1-3.6,6.9-6.5,11.3-8.6l8.7,13.7c-3.3,1.6-6.1,3.5-8.3,5.5c-2.2,2.1-3.7,4.2-4.4,6.6c-1,3.1-1.1,5.8-0.3,8.1
			c0.8,2.2,2.6,3.8,5.3,4.7c1.8,0.6,3.7,0.5,5.7-0.2s4-2,6.1-3.8l9.1-8.4c4.8-4.4,9.6-7.3,14.5-8.9c4.9-1.6,9.7-1.6,14.2-0.1
			c7.2,2.4,11.9,6.7,14.2,12.8C759.3,992.8,758.9,1000.3,756,1009.3z"/>
		<path class="st1" d="M710,923.6l-13.5-5.7l21.3-50.7l13.5,5.7L710,923.6z M775.4,951.1l-78.8-33.2l5.8-13.7l78.8,33.2L775.4,951.1
			z M742.7,937.3l-13.5-5.7l17.4-41.3l13.5,5.7L742.7,937.3z M775.4,951.1l-13.5-5.7l21.3-50.7l13.5,5.7L775.4,951.1z"/>
		<path class="st1" d="M820.9,853.9c-2.1,4-4.5,7.8-7.2,11.2s-5.5,6.3-8.4,8.6l-13.5-9.3c3.5-2.8,6.7-5.8,9.5-9
			c2.8-3.2,4.9-6.3,6.5-9.4c1.8-3.6,2.6-6.7,2.2-9.3c-0.4-2.6-1.8-4.6-4.4-5.9c-3.3-1.7-7-1.1-11,1.8l-10.6,7.5
			c-5.2,3.7-10.5,5.9-15.9,6.7c-5.3,0.8-10.3-0.1-15-2.5c-6.6-3.4-10.7-8.1-12.2-14.1s-0.3-12.7,3.5-20.3c2.3-4.4,5.2-8.1,8.9-11.2
			c3.7-3.1,7.8-5.3,12.5-6.8l6.5,14.9c-3.5,1.1-6.6,2.5-9,4.2c-2.5,1.7-4.3,3.6-5.4,5.8c-1.5,2.9-2,5.6-1.5,7.9
			c0.5,2.3,2,4.1,4.5,5.5c1.7,0.9,3.6,1.1,5.7,0.7c2.1-0.4,4.3-1.3,6.6-2.8l10.3-6.9c5.4-3.6,10.6-5.8,15.7-6.6
			c5.1-0.8,9.8-0.1,14,2.1c6.7,3.5,10.8,8.4,12.1,14.9C826.8,838.1,825.2,845.5,820.9,853.9z"/>
		<path class="st1" d="M863.7,778.2c-10.7,17.3-28.4,18.3-52.9,3.1c-25.2-15.7-32.5-32.1-21.8-49.4c10.7-17.3,28.7-18.1,54-2.5
			C867.5,744.6,874.5,760.9,863.7,778.2z M850.8,770.2c5.2-8.4-0.1-17.6-16.1-27.5c-16.7-10.3-27.6-11.3-32.8-2.8
			c-5.2,8.4,0.5,17.8,17.1,28.2C835,777.9,845.6,778.6,850.8,770.2z"/>
		<path class="st1" d="M894,729.4l-68.9-50.7l8.8-12l68.9,50.7L894,729.4z M877.1,699.4l-11.8-8.7l8.5-11.6c2.1-2.8,2.8-5.6,2.1-8.4
			c-0.6-2.8-2.5-5.4-5.7-7.8c-3.2-2.4-6.2-3.4-9.1-3.1c-2.9,0.3-5.4,1.8-7.4,4.6l-8.4,11.4l-12.6-7.6l9.2-12.5
			c5.1-6.9,10.9-11,17.3-12.1c6.4-1.1,12.9,0.8,19.6,5.7c7.2,5.3,11.4,11.3,12.6,18.1c1.2,6.7-0.8,13.6-5.9,20.5L877.1,699.4z
			 M918.1,696.6l-41.4-11.7l9.3-12.6l42.6,10L918.1,696.6z"/>
		<path class="st1" d="M892.2,614.3l-10.8-9.4l33.2-38.3l10.8,9.4L892.2,614.3z M957.7,647.6l-64.6-56.1l9.8-11.2l64.6,56.1
			L957.7,647.6z M946,661l-10.8-9.4l33.2-38.3l10.8,9.4L946,661z"/>
		<path class="st1" d="M997.4,603.1l-43.2-77.4l13.1-12.8l76.3,45l-11.5,11.2L975.7,534l-0.7,0.7l33.9,57.2L997.4,603.1z
			 M994.4,583.4l-10.3-10.5l29.1-28.4l10.3,10.5L994.4,583.4z"/>
		<path class="st1" d="M1081.8,527c-3.5,2.9-7.2,5.4-11,7.5s-7.5,3.7-11.1,4.7l-8.8-13.8c4.4-1.2,8.4-2.7,12.2-4.6
			c3.8-1.8,7-3.8,9.7-6c3.1-2.6,5-5.1,5.7-7.7c0.7-2.5,0.1-4.9-1.7-7.1c-2.4-2.9-6-3.8-10.8-2.7l-12.7,2.7c-6.3,1.3-12,1.3-17.2-0.1
			c-5.2-1.4-9.5-4.1-12.9-8.2c-4.8-5.8-6.7-11.7-5.7-17.8c1-6.1,4.7-11.9,11.2-17.2c3.8-3.1,8-5.4,12.6-6.8
			c4.6-1.4,9.3-1.8,14.2-1.3l0.1,16.2c-3.7-0.4-7-0.3-9.9,0.3c-2.9,0.6-5.4,1.6-7.2,3.2c-2.6,2.1-4.1,4.3-4.5,6.7
			c-0.5,2.3,0.2,4.6,2,6.8c1.2,1.5,2.8,2.4,4.9,2.9c2.1,0.5,4.5,0.5,7.2,0l12.2-2.3c6.3-1.2,12-1.1,17.1,0.1c5,1.3,9.1,3.7,12.1,7.4
			c4.8,5.9,6.6,12,5.3,18.4C1093.3,514.7,1089,520.9,1081.8,527z"/>
		<path class="st1" d="M1164.9,379.2l-7.3-12.7l47.7-27.3l7.3,12.7L1164.9,379.2z M1200.1,440.8l-42.5-74.2l12.9-7.4l42.5,74.2
			L1200.1,440.8z M1184.2,413.1l-7.3-12.8l38.1-21.8l7.3,12.8L1184.2,413.1z"/>
		<path class="st1" d="M1243.4,335.9l-6-13l46-21.2l6,13L1243.4,335.9z M1289.5,393.1l-35.8-77.7l13.5-6.2l35.8,77.7L1289.5,393.1z
			 M1273.3,400.6l-6-13l46-21.2l6,13L1273.3,400.6z"/>
		<path class="st1" d="M1349.2,367.1l-28.7-80.6l13.5-4.8l28.7,80.6L1349.2,367.1z M1378,356.9l-35.8-58.2l-5.8,2.1l-6.3-17.6
			l11.4-4.1l35.8,58.2l3.6-1.3l6.3,17.6L1378,356.9z M1385.6,354.1l-28.7-80.6l13.5-4.8l28.7,80.6L1385.6,354.1z"/>
		<path class="st1" d="M1423.3,341.6l1-88.6l17.7-4.6l43.8,77l-15.6,4l-31.3-58.7l-1,0.3l1,66.5L1423.3,341.6z M1430.5,323
			l-3.7-14.2l39.3-10.2l3.7,14.2L1430.5,323z"/>
		<path class="st1" d="M1510.7,320.5l-13.8-84.4l14.1-2.3l13.8,84.4L1510.7,320.5z M1540.8,315.6l-24.7-63.7l-6.1,1l-3-18.4l12-2
			l24.7,63.7l3.7-0.6l3,18.4L1540.8,315.6z M1548.8,314.3l-13.8-84.4l14.1-2.3l13.8,84.4L1548.8,314.3z"/>
		<path class="st1" d="M1628.8,307c-25.5,1.8-39.3-11.9-41.4-41.2c-1-13.9,1.4-24.9,7.3-33c5.9-8.1,14.7-12.6,26.4-13.4
			c5.3-0.4,10,0.2,14.3,1.7c4.2,1.5,7.5,3.9,9.8,7.1l-7.5,12.3c-1.9-2.1-4.1-3.7-6.8-4.7c-2.7-1-5.6-1.4-8.6-1.2
			c-6.5,0.5-11.5,3.3-15,8.4c-3.5,5.1-5,12.2-4.3,21.1c1.4,19.6,10.3,28.8,26.6,27.7c5.4-0.4,10.7-2,15.8-4.8l3.6,14.5
			C1642.8,304.7,1636,306.5,1628.8,307z"/>
		<path class="st1" d="M1679,303.6l0.3-14.3l50.7,1l-0.3,14.3L1679,303.6z M1680.4,232.4l0.3-14.3l50.7,1l-0.3,14.3L1680.4,232.4z
			 M1696.9,304l1.7-85.5l14.9,0.3l-1.7,85.5L1696.9,304z"/>
		<path class="st1" d="M1762.7,306.6l9.2-85l14.8,1.6l-9.2,85L1762.7,306.6z M1762.7,306.6l1.6-14.6l54.7,5.9l-1.6,14.6
			L1762.7,306.6z M1766.5,271.3l1.6-14.6l44.6,4.8l-1.6,14.6L1766.5,271.3z M1770.3,236.1l1.6-14.6l54.7,5.9L1825,242L1770.3,236.1z
			"/>
		<path class="st1" d="M1845.1,316.9l16.8-83.9l14.6,2.9l-16.8,83.9L1845.1,316.9z M1865.1,288.9l2.9-14.4l14.1,2.8
			c3.4,0.7,6.2,0.1,8.6-1.6c2.3-1.8,3.9-4.6,4.6-8.4c0.8-3.9,0.4-7.1-1-9.6c-1.5-2.5-3.9-4.1-7.3-4.8l-13.9-2.8l1.5-14.6l15.2,3
			c8.4,1.7,14.5,5.2,18.3,10.5c3.7,5.3,4.8,12.1,3.2,20.2c-1.8,8.8-5.4,15.1-11,19.1c-5.6,3.9-12.6,5.1-21.1,3.4L1865.1,288.9z
			 M1885,324.9l-6.9-42.4l15.4,3.1l9,42.8L1885,324.9z"/>
		<path class="st1" d="M1922.1,333.2l46.5-75.4l17.5,5.2l-2.1,88.6l-15.4-4.6l3.3-66.4l-1-0.3l-33.4,57.5L1922.1,333.2z M1937.9,321
			l4.2-14.1l39,11.5l-4.2,14.1L1937.9,321z"/>
		<path class="st1" d="M2029.6,370c-4.2-1.7-8.2-3.7-11.9-6c-3.7-2.3-6.8-4.8-9.4-7.5l7.9-14.4c3.2,3.2,6.5,6.1,9.9,8.5
			c3.4,2.4,6.7,4.3,10,5.6c3.7,1.5,6.9,1.9,9.4,1.3c2.6-0.6,4.4-2.3,5.4-4.9c1.4-3.5,0.4-7-2.9-10.7l-8.5-9.8
			c-4.2-4.9-6.9-9.9-8.2-15.1c-1.3-5.2-1-10.3,1-15.2c2.8-6.9,7-11.5,12.9-13.6c5.8-2.1,12.7-1.6,20.5,1.5c4.6,1.8,8.6,4.4,12,7.7
			s6.1,7.3,8,11.8l-14.2,7.9c-1.4-3.4-3.1-6.3-5-8.6c-1.9-2.3-4-3.9-6.3-4.8c-3.1-1.2-5.8-1.5-8-0.8c-2.3,0.7-3.9,2.4-5,5.1
			c-0.7,1.8-0.8,3.7-0.2,5.7s1.7,4.1,3.5,6.3l7.9,9.5c4.1,5,6.8,10,8.1,15c1.3,5,1.1,9.7-0.7,14.2c-2.8,7.1-7.3,11.6-13.6,13.5
			C2045.9,374.2,2038.3,373.4,2029.6,370z"/>
		<path class="st1" d="M2160.8,431.9l45-72.8l12.7,7.8l-45,72.8L2160.8,431.9z M2185.2,418.1l7.7-12.5l9.4,5.8
			c4.2,2.6,8.2,3.4,12,2.3c3.8-1,7.1-3.8,9.8-8.2c2.6-4.2,3.4-8.1,2.5-11.8c-0.9-3.7-3.4-6.8-7.6-9.4l-9.2-5.7l7.7-12.5l9.2,5.7
			c8.5,5.3,13.8,11.5,15.9,18.7c2,7.2,0.6,14.7-4.2,22.5c-5.4,8.7-11.9,14-19.5,15.8c-7.6,1.9-15.7,0.2-24.2-5.1L2185.2,418.1z"/>
		<path class="st1" d="M2226.5,473.5l69.6-54.8l14.7,10.9l-32.4,82.4l-12.9-9.6l26-61.2l-0.8-0.6l-51.1,42.5L2226.5,473.5z
			 M2245.5,467.4l8.8-11.8l32.6,24.2l-8.8,11.8L2245.5,467.4z"/>
		<path class="st1" d="M2297.6,527.9l56.6-64.1l11.2,9.9l-56.6,64.1L2297.6,527.9z M2328.1,554.9l15.3-40.2l11.8,10.4l-13.7,41.6
			L2328.1,554.9z M2328.9,513.8l9.7-11l10.8,9.5c2.6,2.3,5.3,3.3,8.2,2.9c2.9-0.4,5.6-2,8.2-5c2.6-3,3.9-5.9,3.9-8.8
			s-1.3-5.5-3.9-7.8l-10.6-9.4l8.7-11.9l11.6,10.3c6.5,5.7,10,11.8,10.5,18.3c0.5,6.5-1.9,12.8-7.4,19c-5.9,6.7-12.3,10.4-19.1,11
			c-6.8,0.6-13.4-1.9-19.9-7.6L2328.9,513.8z"/>
		<path class="st1" d="M2356.3,580.8l77.7-42.5l12.7,13.2l-45.7,75.9l-11.1-11.6l35.8-56.1l-0.7-0.7l-57.5,33.4L2356.3,580.8z
			 M2376,578l10.6-10.2l28.1,29.3l-10.6,10.2L2376,578z"/>
		<path class="st1" d="M2480.8,728.5l70.4-48.5l8.5,12.3l-70.4,48.5L2480.8,728.5z M2526.2,669.5l12.1-8.3l34.4,49.9l-12.1,8.3
			L2526.2,669.5z"/>
		<path class="st1" d="M2529.1,806.5c-10.2-17.6-2.8-33.7,22.3-48.1c25.7-14.9,43.7-13.5,53.9,4.1s2.4,33.9-23.3,48.7
			C2556.9,825.7,2539.3,824.2,2529.1,806.5z M2542.2,798.9c5,8.6,15.6,8.2,31.9-1.2c17-9.8,23-19,18-27.6c-5-8.6-15.9-8-32.9,1.8
			C2542.9,781.3,2537.2,790.3,2542.2,798.9z"/>
		<path class="st1" d="M2557.8,856.3l77.2-36.9l6.4,13.4l-77.2,36.9L2557.8,856.3z M2563.9,869l13.7-6.5l2.7,5.7
			c3.2,6.6,7.6,10.6,13.2,12c5.6,1.4,12.3,0.2,20.1-3.5c8.5-4.1,14.2-8.8,17-14.2c2.8-5.4,2.6-11.4-0.5-18l-2.6-5.4l13.1-7.8
			l3.2,6.7c10.8,22.6,3,40.3-23.4,52.9c-25,11.9-42.9,6.6-53.7-16.1L2563.9,869z"/>
		<path class="st1" d="M2591.3,928.1l52.6,8.6l43.6,3.1l6.7,17.4l-55-8.6l-41.2-3.1L2591.3,928.1z M2607.7,970.6l28.4-30l35-43.3
			l6.7,17.4l-30.3,31.5l-33.2,41.8L2607.7,970.6z"/>
		<path class="st1" d="M2628.2,1035.6c-1.3-4.4-2.2-8.7-2.6-13.1c-0.4-4.3-0.4-8.4,0-12l16.2-2.7c-0.6,4.5-0.8,8.8-0.6,13
			c0.2,4.2,0.8,8,1.8,11.3c1.2,3.9,2.8,6.6,4.8,8.2c2.1,1.6,4.5,2,7.2,1.2c3.6-1.1,5.8-4,6.6-8.9l2.4-12.7
			c1.2-6.3,3.5-11.6,6.8-15.8c3.3-4.2,7.5-7.1,12.6-8.7c7.2-2.1,13.4-1.6,18.6,1.7c5.3,3.3,9.1,8.9,11.5,17.1
			c1.4,4.7,1.9,9.5,1.4,14.2c-0.5,4.8-1.9,9.3-4.3,13.6l-15-6.2c1.8-3.2,3-6.3,3.6-9.3c0.6-2.9,0.6-5.6-0.1-7.9
			c-0.9-3.2-2.4-5.4-4.4-6.8c-2-1.3-4.3-1.6-7.1-0.8c-1.8,0.5-3.3,1.7-4.6,3.4c-1.2,1.7-2.2,3.9-2.8,6.6l-2.6,12.1
			c-1.4,6.3-3.6,11.5-6.8,15.7c-3.1,4.1-7,6.9-11.5,8.3c-7.3,2.2-13.6,1.4-19-2.3C2634.9,1051,2630.9,1044.6,2628.2,1035.6z"/>
	</g>
	<g>
		<path class="st1" d="M1030.1,3600.2c-20.2-17.9-19.7-38.8,1.5-62.6c10-11.3,20.4-17.8,31-19.4c10.6-1.7,20.5,1.6,29.8,9.9
			c4.5,4,7.7,8.2,9.7,12.7c2,4.5,2.5,8.8,1.5,12.9l-13.1,1.2c0.6-3.4,0.4-6.7-0.7-9.8c-1-3.1-2.8-5.7-5.3-7.9
			c-5.9-5.2-12.6-7.2-20.2-5.8c-7.6,1.4-15.1,6.2-22.5,14.5c-16.1,18.1-16.9,33.7-2.2,46.8c4.4,3.9,9.6,6.8,15.7,8.7l-5.5,10.5
			C1042.5,3609.2,1035.9,3605.4,1030.1,3600.2z"/>
		<path class="st1" d="M1071.1,3633.3l75.4-59.4l14.2,10.6l-35.1,89.4l-10.3-7.7l32.1-77.6l-0.9-0.7l-65.1,53.1L1071.1,3633.3z
			 M1093.9,3622.1l7.4-10l35.4,26.3l-7.4,10L1093.9,3622.1z"/>
		<path class="st1" d="M1153.7,3692.5l48.4-79.1l10.9,6.6l-48.4,79.1L1153.7,3692.5z M1182.2,3668.6l6.5-10.6l15.3,9.4
			c4.1,2.5,8.1,3.3,11.8,2.4c3.7-0.9,6.9-3.5,9.5-7.7c2.8-4.6,3.9-8.9,3.1-12.8s-3.2-7.1-7.4-9.7l-15.1-9.3l5.2-11.3l16.4,10
			c7.7,4.7,12.4,10.4,14,17.1c1.6,6.7,0.1,13.9-4.5,21.6c-4.9,7.9-10.7,12.8-17.6,14.6c-6.9,1.8-14.2,0.4-21.8-4.3L1182.2,3668.6z
			 M1193.5,3716.8l6.2-47.3l11.5,7l-5.1,48L1193.5,3716.8z"/>
		<path class="st1" d="M1261.1,3754.6c-19.2-9.4-21.8-28.2-8-56.3c14.2-28.9,30.9-38.6,50.1-29.2c19.2,9.4,21.6,28.6,7.4,57.5
			C1296.8,3754.7,1280.3,3764,1261.1,3754.6z M1266.5,3743.8c11.3,5.6,22.2-2.1,32.5-23c10.7-21.7,10.4-35.4-1-40.9
			c-11.3-5.6-22.4,2.5-33,24.2C1254.6,3725,1255.1,3738.3,1266.5,3743.8z"/>
		<path class="st1" d="M1324.6,3782.2l33-86.6l11.9,4.5l-33,86.6L1324.6,3782.2z M1324.6,3782.2l4.4-11.6l53.7,20.5l-4.4,11.6
			L1324.6,3782.2z"/>
		<path class="st1" d="M1415.6,3814.7l3.3-12l50.9,14.1l-3.3,12L1415.6,3814.7z M1434.8,3820l24.6-89.3l12.3,3.4l-24.6,89.3
			L1434.8,3820z M1436.9,3737.3l3.3-12l50.9,14.1l-3.3,12L1436.9,3737.3z"/>
		<path class="st1" d="M1507.5,3838l16-91.3l12.5,2.2l-16,91.3L1507.5,3838z M1545.9,3844.7l-12.4-73.7l-5.5-1l3.8-21.9l8,1.4
			l12.4,73.7l3,0.5l-3.8,21.9L1545.9,3844.7z M1549.5,3845.4l16-91.3l12.5,2.2l-16,91.3L1549.5,3845.4z"/>
		<path class="st1" d="M1603.3,3852.8l7.3-92.4l12.7,1l-7.3,92.4L1603.3,3852.8z M1603.3,3852.8l1-12.4l57.3,4.5l-1,12.4
			L1603.3,3852.8z M1606.4,3812.7l1-12.4l46.3,3.6l-1,12.4L1606.4,3812.7z M1609.6,3772.7l1-12.4l57.3,4.5l-1,12.4L1609.6,3772.7z"
			/>
		<path class="st1" d="M1787.6,3774.9l-1.4-12.3l57.1-6.3l1.4,12.3L1787.6,3774.9z M1796.4,3854.7l-10.2-92.1l12.6-1.4l10.2,92.1
			L1796.4,3854.7z M1792.4,3818.6l-1.4-12.3l46.2-5.1l1.4,12.3L1792.4,3818.6z"/>
		<path class="st1" d="M1874.6,3763.5l-2.5-12.1l51.7-10.8l2.5,12.1L1874.6,3763.5z M1891,3842.1l-2.5-12.1l51.7-10.8l2.5,12.1
			L1891,3842.1z M1910.6,3838l-18.9-90.7l12.5-2.6l18.9,90.7L1910.6,3838z"/>
		<path class="st1" d="M1983.5,3820.8l-27.5-88.5l12.2-3.8l27.5,88.5L1983.5,3820.8z M2020.6,3809.3l-44.7-59.9l-5.4,1.7l-6.6-21.2
			l7.7-2.4l44.7,59.9l2.9-0.9l6.6,21.2L2020.6,3809.3z M2024.2,3808.2l-27.5-88.5l12.2-3.8l27.5,88.5L2024.2,3808.2z"/>
		<path class="st1" d="M2068.8,3792.9l-12.6-95.2l16.4-6.8l58.8,75.9l-11.9,4.9l-50.3-67.3l-1,0.4l12.4,83.1L2068.8,3792.9z
			 M2070.9,3767.6l-4.8-11.4l40.6-17l4.8,11.4L2070.9,3767.6z"/>
		<path class="st1" d="M2162.5,3751.8l-43.5-81.9l11.2-6l43.5,81.9L2162.5,3751.8z M2196.8,3733.5l-55.1-50.6l-5,2.6l-10.4-19.6
			l7.1-3.8l55.1,50.6l2.7-1.4l10.4,19.6L2196.8,3733.5z M2200.1,3731.8l-43.5-81.9l11.2-6l43.5,81.9L2200.1,3731.8z"/>
		<path class="st1" d="M2202.4,3637.9l-6.8-10.4l46.1-30.1l6.8,10.4L2202.4,3637.9z M2251.7,3696.3l-12.1-1.6l-3.6-89.1l12.5,2.1
			L2251.7,3696.3z M2246.4,3705.1l-6.8-10.4l47.1-30.8l6.8,10.4L2246.4,3705.1z"/>
		<path class="st1" d="M2320.5,3655.1l-37.8-88.3l13.9-11l77.1,57.2l-10.1,8l-66.6-51.2l-0.9,0.7l34.4,76.7L2320.5,3655.1z
			 M2315.6,3630.2l-7.7-9.7l34.6-27.3l7.7,9.7L2315.6,3630.2z"/>
		<path class="st1" d="M2418.2,3574.5c-3.6,3.4-7.2,6.2-11,8.6c-3.7,2.3-7.5,4.1-11.3,5.4l-7.9-10.7c4.7-1.6,8.9-3.4,12.7-5.5
			c3.8-2.1,7.1-4.5,10-7.2c4.2-3.9,6.5-7.6,7.1-11.1c0.6-3.5-0.7-6.8-3.6-9.9c-3.8-4-8.5-5.1-14.1-3.4l-16,5c-6.3,2-11.9,2.6-17,1.8
			s-9.7-3.3-13.8-7.7c-5.6-5.9-8.2-12-7.9-18.4c0.3-6.4,3.5-12.4,9.5-18.1c4.2-4,8.6-6.9,13.1-8.6c4.5-1.7,9.7-2.5,15.6-2.4
			l0.1,12.6c-4.8,0.2-8.8,0.8-12,1.9c-3.2,1.1-6.1,2.8-8.6,5.2c-3.1,2.9-4.7,5.9-4.9,9c-0.2,3.1,1.2,6.3,4,9.3
			c2.1,2.2,4.3,3.4,6.7,3.8c2.4,0.3,5.2,0,8.3-0.9l13.6-4.1c6.9-2.1,12.9-2.8,18.2-2.1c5.2,0.6,10,3.3,14.4,7.9
			c5.8,6.1,8.2,12.4,7.4,19C2430,3560.5,2425.8,3567.4,2418.2,3574.5z"/>
	</g>
	<g>
		<defs>
			<path id="SVGID_1_" d="M1693.3,3641L1693.3,3641c-490.7,0-888.5-397.8-888.5-888.5v-1470c0-490.7,397.8-888.5,888.5-888.5h0
				c490.7,0,888.5,397.8,888.5,888.5v1470C2581.8,3243.2,2184,3641,1693.3,3641z"/>
		</defs>
		<clipPath id="SVGID_2_">
			<use xlink:href="#SVGID_1_"  style="overflow:visible;"/>
		</clipPath>
		<g style="clip-path:url(#SVGID_2_);">
			
				<image style="overflow:visible;" width="3428" height="3275" xlink:href="../../../Downloads/adam-winger-seBIOE8VvZs-unsplash.png"  transform="matrix(1 0 0 1 -51.25 363)">
			</image>
		</g>
	</g>
	<g>
		<polygon class="st2" points="1026,1473 1005.2,1576.9 948,1587.3 1005.2,1608.1 1026,1680.9 1046.7,1608.1 1103.9,1592.5 
			1041.6,1566.5 		"/>
	</g>
	<g>
		
			<ellipse transform="matrix(0.7071 -0.7071 0.7071 0.7071 -661.8081 2534.2268)" class="st3" cx="2728.2" cy="2066" rx="109.2" ry="109.2"/>
		<path class="st2" d="M2728.2,2176.4c-60.8,0-110.4-49.4-110.4-110.4s49.4-110.4,110.4-110.4c61,0,110.4,49.4,110.4,110.4
			S2789.2,2176.4,2728.2,2176.4z M2728.2,1957.9c-59.6,0-108.1,48.5-108.1,108.1c0,59.6,48.5,108.1,108.1,108.1
			c59.6,0,108.1-48.5,108.1-108.1C2836.2,2006.4,2787.8,1957.9,2728.2,1957.9z"/>
	</g>
	<g>
		<g>
			<path class="st0" d="M2720.1,2103.8c-10-1.2-18.3-4.6-27.1-13.9l12.8-14.8c8.3,7.9,17.4,9.3,24.3,9.3c7.7,0,13-2.8,13-7.4
				c0-4.2-4.9-6.7-13.9-7.4c-18.1-1.6-33.9-6-34.1-26.7c0-13.9,10.7-21.8,24.1-24.3v-10.9l19.9-0.2v10.7c8.1,1.2,15.1,3.9,21.6,9
				l-11.6,14.8c-5.8-4.2-12.3-5.6-19.5-5.6c-5.8,0-11.4,1.9-11.1,6.3c0,5.8,5.6,6.5,13.9,7.2c16.5,1.6,33.9,8.1,33.9,27.4
				c0,15.5-11.8,23.9-26.7,26.4h0.2v11.6l-19.9,0.2L2720.1,2103.8z"/>
		</g>
	</g>
	<g>
		<path class="st1" d="M2766.2,1898.3c-1.6,0-3-1.4-3-3v-190.8c0-1.6,1.4-3,3-3c1.6,0,3,1.4,3,3v190.8
			C2769.2,1896.9,2767.8,1898.3,2766.2,1898.3z"/>
	</g>
	<g>
		<path class="st1" d="M2688.8,1916.2c-1.6,0-3-1.4-3-3v-116.4c0-1.6,1.4-3,3-3s3,1.4,3,3v116.4
			C2691.5,1914.8,2690.4,1916.2,2688.8,1916.2z"/>
	</g>
</g>
</svg>
