<svg width="404" height="523" viewBox="0 0 404 523" fill="none" xmlns="http://www.w3.org/2000/svg">
<path d="M202 502.309C297.24 502.309 374.448 500.044 374.448 497.249C374.448 494.454 297.24 492.189 202 492.189C106.76 492.189 29.5519 494.454 29.5519 497.249C29.5519 500.044 106.76 502.309 202 502.309Z" fill="#D3E6FE"/>
<path d="M248.811 82.9568C261.901 73.9724 269.436 62.1895 265.642 56.6389C261.848 51.0883 248.16 53.872 235.071 62.8563C221.981 71.8407 214.445 83.6236 218.239 89.1742C222.034 94.7248 235.721 91.9412 248.811 82.9568Z" fill="#D3E6FE"/>
<path d="M225.342 92.2038C221.938 92.2038 219.432 91.1918 218.085 89.2801C216.215 86.5438 216.963 82.2332 220.18 77.2105C223.36 72.2252 228.634 67.09 234.993 62.7044C248.161 53.6709 261.964 50.8972 265.817 56.5197C269.67 62.1422 262.076 74.0619 248.946 83.0954C242.587 87.4434 235.891 90.5171 230.093 91.679C228.372 92.0539 226.764 92.2038 225.342 92.2038ZM258.56 53.9708C252.463 53.9708 243.709 57.1944 235.218 63.0418C228.896 67.3898 223.696 72.4876 220.517 77.4354C217.374 82.3457 216.626 86.4689 218.422 89.0927C220.217 91.7165 224.332 92.5037 230.018 91.3417C235.779 90.1797 242.4 87.1436 248.722 82.7955C261.702 73.8744 269.221 62.2171 265.518 56.7446C264.209 54.8704 261.74 53.9708 258.56 53.9708Z" fill="#2563EB"/>
<path d="M305.806 118.742L265.78 56.4072L265.593 56.5196C265.667 56.5946 265.742 56.7071 265.817 56.782C269.595 62.3296 262.076 74.0993 248.984 83.0953C236.901 91.3792 224.332 94.3778 219.469 90.4421L257.812 150.228C261.964 156.713 265.929 159.861 277.226 156.788C280.181 155.963 285.68 153.264 288.374 151.615C292.414 149.179 302.214 141.869 306.703 135.122C311.155 128.45 310.107 125.526 305.806 118.742Z" fill="#D3E6FE"/>
<path d="M269.745 158.175C263.947 158.175 260.842 155.288 257.662 150.34L218.684 89.58L219.582 90.3296C224.407 94.2654 237.013 91.0793 248.871 82.9454C261.852 74.0244 269.371 62.3671 265.667 56.8945C265.63 56.8195 265.593 56.782 265.518 56.7071L265.331 56.4447L265.854 56.1073L265.967 56.2573L305.955 118.592C310.294 125.377 311.417 128.375 306.89 135.197C302.327 142.057 292.526 149.291 288.486 151.765C285.793 153.377 280.256 156.15 277.301 156.938C274.346 157.8 271.877 158.175 269.745 158.175ZM220.143 91.1543L257.999 150.153C262.338 156.9 266.303 159.599 277.226 156.6C280.144 155.813 285.643 153.077 288.299 151.465C292.152 149.141 302.102 141.757 306.554 135.047C310.968 128.413 309.883 125.489 305.619 118.854L266.64 58.1314C268.585 64.1662 261.179 74.9615 249.059 83.2828C237.687 91.0793 225.567 94.3404 220.143 91.1543Z" fill="#2563EB"/>
<path d="M217.561 87.181L217.412 87.256L217.636 87.5933C217.599 87.4809 217.561 87.331 217.561 87.181Z" fill="#D3E6FE"/>
<path d="M218.123 88.6804L217.15 87.181L217.674 86.8437L217.749 87.1436C217.786 87.256 217.786 87.4059 217.823 87.5184L218.123 88.6804Z" fill="#2563EB"/>
<path d="M276.59 73.9119C269.483 77.7352 264.657 85.2694 264.657 93.8906C264.657 106.41 274.795 116.568 287.289 116.568C292.414 116.568 297.127 114.844 300.905 111.995L276.59 73.9119Z" fill="#2563EB"/>
<path d="M270.194 43.4754C269.932 43.4754 269.708 43.2505 269.708 42.9881V12.1394C269.708 11.877 269.932 11.6521 270.194 11.6521C270.456 11.6521 270.68 11.877 270.68 12.1394V42.9881C270.68 43.2505 270.456 43.4754 270.194 43.4754Z" fill="#598EF3"/>
<path d="M257.7 46.3616C257.438 46.3616 257.213 46.1367 257.213 45.8744V27.0577C257.213 26.7953 257.438 26.5704 257.7 26.5704C257.962 26.5704 258.186 26.7953 258.186 27.0577V45.8744C258.149 46.1367 257.962 46.3616 257.7 46.3616Z" fill="#598EF3"/>
<path d="M327.614 498.186H199.419C176.226 498.186 157.448 479.369 157.448 456.13V255.369C157.448 232.129 176.226 213.312 199.419 213.312H327.577C350.769 213.312 369.548 232.129 369.548 255.369V456.13C369.585 479.332 350.769 498.186 327.614 498.186Z" fill="#DCEBFA"/>
<path d="M327.614 498.373H199.419C176.189 498.373 157.261 479.407 157.261 456.13V255.369C157.261 232.092 176.189 213.125 199.419 213.125H327.577C350.807 213.125 369.735 232.092 369.735 255.369V456.13C369.772 479.407 350.844 498.373 327.614 498.373ZM199.419 213.5C176.376 213.5 157.635 232.279 157.635 255.369V456.13C157.635 479.219 176.376 497.999 199.419 497.999H327.577C350.62 497.999 369.361 479.219 369.361 456.13V255.369C369.361 232.279 350.62 213.5 327.577 213.5H199.419Z" fill="#2563EB"/>
<g opacity="0.57">
<path d="M336.33 481.094H189.431C177.348 481.094 167.136 475.846 159.168 467.075C164.218 485.067 181.239 497.811 196.351 497.961H328.549C345.869 497.961 362.141 485.817 367.565 468.574C359.672 476.483 347.777 481.094 336.33 481.094Z" fill="#A8D1F1"/>
</g>
<path d="M294.434 411.712H243.148C239.333 411.712 236.19 408.601 236.19 404.74V398.668C236.19 394.844 239.295 391.696 243.148 391.696H294.434C298.249 391.696 301.391 394.807 301.391 398.668V404.74C301.391 408.601 298.249 411.712 294.434 411.712Z" fill="#D0A91F"/>
<path d="M294.434 411.899H243.148C239.22 411.899 236.003 408.713 236.003 404.74V398.668C236.003 394.732 239.183 391.508 243.148 391.508H294.434C298.361 391.508 301.578 394.694 301.578 398.668V404.74C301.578 408.676 298.361 411.899 294.434 411.899ZM243.148 391.921C239.407 391.921 236.377 394.957 236.377 398.705V404.777C236.377 408.526 239.407 411.562 243.148 411.562H294.434C298.174 411.562 301.204 408.526 301.204 404.777V398.705C301.204 394.957 298.174 391.921 294.434 391.921H243.148Z" fill="#2563EB"/>
<path d="M286.578 392.221H235.293C231.477 392.221 228.335 389.109 228.335 385.249V379.176C228.335 375.353 231.44 372.204 235.293 372.204H286.578C290.394 372.204 293.536 375.316 293.536 379.176V385.249C293.536 389.109 290.394 392.221 286.578 392.221Z" fill="#D0A91F"/>
<path d="M286.578 392.408H235.293C231.365 392.408 228.148 389.222 228.148 385.249V379.176C228.148 375.241 231.327 372.017 235.293 372.017H286.578C290.506 372.017 293.723 375.203 293.723 379.176V385.249C293.723 389.184 290.506 392.408 286.578 392.408ZM235.293 372.429C231.552 372.429 228.522 375.466 228.522 379.214V385.286C228.522 389.034 231.552 392.071 235.293 392.071H286.578C290.319 392.071 293.349 389.034 293.349 385.286V379.214C293.349 375.466 290.319 372.429 286.578 372.429H235.293Z" fill="#2563EB"/>
<path d="M291.441 372.354H240.156C236.34 372.354 233.198 369.243 233.198 365.383V359.31C233.198 355.487 236.303 352.338 240.156 352.338H291.441C295.257 352.338 298.399 355.449 298.399 359.31V365.383C298.399 369.243 295.257 372.354 291.441 372.354Z" fill="#D0A91F"/>
<path d="M291.441 372.542H240.156C236.228 372.542 233.011 369.356 233.011 365.383V359.31C233.011 355.374 236.19 352.151 240.156 352.151H291.441C295.369 352.151 298.586 355.337 298.586 359.31V365.383C298.586 369.318 295.369 372.542 291.441 372.542ZM240.156 352.563C236.415 352.563 233.385 355.599 233.385 359.348V365.42C233.385 369.168 236.415 372.204 240.156 372.204H291.441C295.182 372.204 298.212 369.168 298.212 365.42V359.348C298.212 355.599 295.182 352.563 291.441 352.563H240.156Z" fill="#2563EB"/>
<path d="M274.608 352.488H223.322C219.507 352.488 216.364 349.377 216.364 345.516V339.444C216.364 335.621 219.469 332.472 223.322 332.472H274.608C278.423 332.472 281.565 335.583 281.565 339.444V345.516C281.565 349.377 278.423 352.488 274.608 352.488Z" fill="#D0A91F"/>
<path d="M274.608 352.676H223.322C219.394 352.676 216.177 349.49 216.177 345.516V339.444C216.177 335.508 219.357 332.285 223.322 332.285H274.608C278.535 332.285 281.753 335.471 281.753 339.444V345.516C281.753 349.452 278.535 352.676 274.608 352.676ZM223.322 332.697C219.581 332.697 216.551 335.733 216.551 339.481V345.554C216.551 349.302 219.581 352.338 223.322 352.338H274.608C278.348 352.338 281.378 349.302 281.378 345.554V339.481C281.378 335.733 278.348 332.697 274.608 332.697H223.322Z" fill="#2563EB"/>
<path d="M284.109 431.878H232.898C229.045 431.878 225.941 428.767 225.941 424.906V418.721C225.941 414.861 229.045 411.749 232.898 411.749H284.109C287.962 411.749 291.067 414.861 291.067 418.721V424.906C291.067 428.729 287.962 431.878 284.109 431.878Z" fill="#D0A91F"/>
<path d="M284.109 432.065H232.898C228.971 432.065 225.754 428.842 225.754 424.906V418.721C225.754 414.748 228.971 411.562 232.898 411.562H284.109C288.074 411.562 291.254 414.786 291.254 418.721V424.906C291.254 428.842 288.037 432.065 284.109 432.065ZM232.898 411.899C229.158 411.899 226.128 414.935 226.128 418.684V424.869C226.128 428.617 229.158 431.653 232.898 431.653H284.109C287.85 431.653 290.88 428.617 290.88 424.869V418.684C290.88 414.935 287.85 411.899 284.109 411.899H232.898Z" fill="#2563EB"/>
<path d="M301.541 451.969H250.33C246.477 451.969 243.373 448.858 243.373 444.997V438.812C243.373 434.952 246.477 431.84 250.33 431.84H301.541C305.394 431.84 308.499 434.952 308.499 438.812V444.997C308.536 448.858 305.394 451.969 301.541 451.969Z" fill="#D0A91F"/>
<path d="M301.541 452.156H250.33C246.365 452.156 243.186 448.933 243.186 444.997V438.812C243.186 434.839 246.403 431.653 250.33 431.653H301.541C305.506 431.653 308.686 434.877 308.686 438.812V444.997C308.723 448.933 305.506 452.156 301.541 452.156ZM250.33 431.99C246.59 431.99 243.56 435.027 243.56 438.775V444.96C243.56 448.708 246.59 451.744 250.33 451.744H301.541C305.282 451.744 308.312 448.708 308.312 444.96V438.775C308.312 435.027 305.282 431.99 301.541 431.99H250.33Z" fill="#2563EB"/>
<path d="M284.109 472.098H232.898C229.045 472.098 225.941 468.986 225.941 465.126V458.903C225.941 455.043 229.045 451.932 232.898 451.932H284.109C287.962 451.932 291.067 455.043 291.067 458.903V465.088C291.067 468.949 287.962 472.098 284.109 472.098Z" fill="#D0A91F"/>
<path d="M284.109 472.285H232.898C228.971 472.285 225.754 469.061 225.754 465.126V458.903C225.754 454.93 228.971 451.744 232.898 451.744H284.109C288.074 451.744 291.254 454.968 291.254 458.903V465.088C291.254 469.061 288.037 472.285 284.109 472.285ZM232.898 452.119C229.158 452.119 226.128 455.155 226.128 458.903V465.088C226.128 468.837 229.158 471.873 232.898 471.873H284.109C287.85 471.873 290.88 468.837 290.88 465.088V458.903C290.88 455.155 287.85 452.119 284.109 452.119H232.898Z" fill="#2563EB"/>
<path d="M298.549 492.189H247.338C243.485 492.189 240.38 489.078 240.38 485.217V479.032C240.38 475.171 243.485 472.06 247.338 472.06H298.549C302.401 472.06 305.506 475.171 305.506 479.032V485.217C305.544 489.078 302.401 492.189 298.549 492.189Z" fill="#D0A91F"/>
<path d="M298.549 492.376H247.338C243.373 492.376 240.193 489.152 240.193 485.217V479.032C240.193 475.059 243.41 471.873 247.338 471.873H298.549C302.514 471.873 305.693 475.096 305.693 479.032V485.217C305.731 489.152 302.514 492.376 298.549 492.376ZM247.338 472.21C243.597 472.21 240.567 475.246 240.567 478.995V485.179C240.567 488.928 243.597 491.964 247.338 491.964H298.549C302.289 491.964 305.319 488.928 305.319 485.179V478.995C305.319 475.246 302.289 472.21 298.549 472.21H247.338Z" fill="#2563EB"/>
<path d="M230.43 449.008L197.062 487.953C194.556 490.877 190.142 491.214 187.224 488.703L182.548 484.692C179.63 482.181 179.294 477.758 181.8 474.834L215.167 435.889C217.674 432.965 222.088 432.628 225.006 435.139L229.681 439.15C232.599 441.661 232.936 446.084 230.43 449.008Z" fill="#D0A91F"/>
<path d="M191.788 490.577C190.142 490.577 188.496 490.015 187.149 488.853L182.473 484.842C181.014 483.605 180.154 481.843 180.004 479.932C179.855 478.02 180.453 476.183 181.725 474.721L215.093 435.776C217.674 432.778 222.2 432.44 225.193 434.989L229.869 439C231.327 440.237 232.188 441.998 232.337 443.91C232.487 445.822 231.889 447.658 230.617 449.12L197.249 488.066C195.828 489.715 193.808 490.577 191.788 490.577ZM220.479 433.64C218.571 433.64 216.664 434.427 215.317 436.001L181.95 474.946C180.753 476.333 180.191 478.095 180.341 479.894C180.491 481.693 181.314 483.343 182.698 484.542L187.374 488.553C190.217 490.989 194.519 490.652 196.95 487.803L230.317 448.858C231.514 447.471 232.076 445.709 231.926 443.91C231.776 442.111 230.953 440.462 229.569 439.262L224.893 435.251C223.621 434.164 222.05 433.64 220.479 433.64Z" fill="#2563EB"/>
<path d="M258.859 318.603C271.792 318.603 282.276 308.098 282.276 295.139C282.276 282.18 271.792 271.674 258.859 271.674C245.926 271.674 235.442 282.18 235.442 295.139C235.442 308.098 245.926 318.603 258.859 318.603Z" fill="#D0A91F"/>
<path d="M258.859 318.828C245.841 318.828 235.255 308.22 235.255 295.176C235.255 282.132 245.841 271.487 258.859 271.487C271.877 271.487 282.463 282.094 282.463 295.139C282.463 308.183 271.877 318.828 258.859 318.828ZM258.859 271.862C246.028 271.862 235.629 282.319 235.629 295.139C235.629 307.958 246.066 318.416 258.859 318.416C271.653 318.416 282.089 307.958 282.089 295.139C282.089 282.319 271.653 271.862 258.859 271.862Z" fill="#2563EB"/>
<path d="M257.213 304.397C255.193 304.172 253.51 303.422 251.752 301.586L254.333 298.55C256.016 300.161 257.849 300.424 259.271 300.424C260.842 300.424 261.927 299.862 261.889 298.925C261.889 298.1 260.917 297.575 259.084 297.388C255.418 297.088 252.238 296.151 252.201 291.99C252.163 289.141 254.37 287.567 257.101 287.042V284.868L261.141 284.831V286.967C262.787 287.192 264.208 287.754 265.518 288.804L263.198 291.84C262.039 290.978 260.73 290.716 259.233 290.716C258.074 290.716 256.951 291.09 256.951 291.99C256.951 293.152 258.074 293.302 259.757 293.452C263.086 293.789 266.603 295.101 266.64 298.999C266.677 302.148 264.209 303.835 261.253 304.36H261.291V306.684L257.251 306.721L257.213 304.397Z" fill="white"/>
<path d="M345.121 214.437H178.396C174.543 214.437 171.401 211.288 171.401 207.428V200.418C171.401 196.557 174.543 193.409 178.396 193.409H345.121C348.974 193.409 352.116 196.557 352.116 200.418V207.428C352.079 211.288 348.974 214.437 345.121 214.437Z" fill="#0D2C5E"/>
<path d="M345.121 214.624H178.396C174.431 214.624 171.214 211.401 171.214 207.428V200.418C171.214 196.445 174.431 193.221 178.396 193.221H345.121C349.086 193.221 352.303 196.445 352.303 200.418V207.428C352.266 211.401 349.049 214.624 345.121 214.624ZM178.396 193.634C174.655 193.634 171.588 196.67 171.588 200.456V207.465C171.588 211.213 174.618 214.287 178.396 214.287H345.121C348.862 214.287 351.929 211.251 351.929 207.465V200.456C351.929 196.707 348.899 193.634 345.121 193.634H178.396Z" fill="#2563EB"/>
<path d="M101.823 474.159L101.561 496.949H152.959L118.731 474.159H101.823Z" fill="#334155"/>
<path d="M130.44 251.883L126.699 479.669H98.793C98.793 479.669 88.7678 329.473 87.5334 302.523C86.2989 275.572 87.683 251.92 87.683 251.92H130.44V251.883Z" fill="#0D2C5E"/>
<path d="M87.683 305.934C89.4785 340.269 98.793 479.632 98.793 479.632H122.135C93.743 381.838 88.5808 320.665 87.683 305.934Z" fill="#08214A"/>
<path d="M126.685 471.705L98.2612 472.241L98.2774 473.103L126.701 472.567L126.685 471.705Z" fill="#2563EB"/>
<path d="M40.7367 474.159L36.6967 496.949H66.66L57.6448 474.159H40.7367Z" fill="#334155"/>
<path d="M61.423 251.883C61.423 251.883 55.2508 264.515 49.9015 293.677C44.5522 322.839 36.2478 479.632 36.2478 479.632H63.5552L106.05 251.845L61.423 251.883Z" fill="#0D2C5E"/>
<path d="M128.569 251.883H87.6456H61.423C61.423 251.883 61.423 251.883 61.423 251.92C61.423 251.92 61.423 251.92 61.423 251.958C61.423 251.958 61.423 251.995 61.3856 252.033C61.3856 252.07 61.3856 252.07 61.3482 252.108C61.3482 252.108 61.3482 252.145 61.3108 252.145C61.2734 252.22 61.236 252.333 61.1985 252.445C61.1611 252.52 61.1237 252.595 61.0863 252.67C60.1511 254.807 57.3456 261.629 54.2034 273.961C52.7819 279.433 51.323 285.993 49.9015 293.714C44.5522 322.876 36.2478 479.669 36.2478 479.669H42.1208C42.42 452.944 44.5148 386.073 57.4578 336.295C64.7148 308.37 71.9345 287.492 77.77 272.874C108.033 269.425 122.322 258.78 128.569 251.883Z" fill="#08214A"/>
<path d="M39.9885 479.482L39.6144 479.444C39.764 477.833 53.4551 316.542 56.4477 297.5C59.4403 278.459 66.4355 256.831 66.5103 256.606L66.8844 256.718C66.8096 256.943 59.8144 278.534 56.8592 297.538C53.8292 316.579 40.1381 477.87 39.9885 479.482Z" fill="#2563EB"/>
<path d="M100.701 277.724L86.8077 353.977L87.1757 354.044L101.069 277.792L100.701 277.724Z" fill="#2563EB"/>
<path d="M36.6845 471.716L36.6636 472.578L64.8977 473.265L64.9186 472.403L36.6845 471.716Z" fill="#2563EB"/>
<path d="M75.3759 167.133L43.2429 177.403C43.2429 177.403 53.3803 231.792 53.3429 237.677C53.3055 243.524 56.4103 260.167 56.4103 260.167C56.4103 260.167 80.9122 265.339 101.112 266.014C121.312 266.689 132.198 256.418 132.198 256.418L127.148 169.157L99.1296 166.533L75.3759 167.133Z" fill="#D3E6FE"/>
<path d="M108.519 184.15L110.838 185.687L99.1296 166.121L75.3385 166.796L63.9667 171.069L78.9296 192.997C78.9296 192.997 85.9622 179.465 90.6756 178.378C95.4263 177.291 95.0148 179.652 95.0148 179.652C95.0148 179.652 99.0922 176.241 101.075 176.204C103.095 176.166 108.519 184.15 108.519 184.15Z" fill="#0D2C5E"/>
<path d="M71.9719 136.584L72.7201 171.181L95.0149 178.078L103.955 170.432L96.2493 139.583L71.9719 136.584Z" fill="#FFC7AE"/>
<path d="M96.5486 140.557L94.379 139.358L71.9719 136.584L72.7201 171.181L79.2664 183.138C79.9771 176.092 81.6604 166.833 85.7004 161.548C90.3764 155.438 96.586 153.039 100.289 152.102L96.5486 140.557Z" fill="#F9A280"/>
<path d="M113.906 105.51C113.681 107.759 112.783 112.257 104.254 116.531C96.6982 120.354 86.7104 121.778 86.7104 121.778L72.1963 147.229C72.1963 147.229 65.1637 139.17 64.1537 124.777C63.1437 110.383 68.1563 108.884 68.1563 108.884C68.1563 108.884 69.0167 99.3256 78.1067 98.8009C90.4885 98.0512 97.5211 93.4408 99.5785 94.1904C102.571 95.2774 101.337 101.05 96.5859 98.9133C96.5859 98.9133 99.5411 97.1516 104.554 95.6523C111.287 93.6657 109.267 101.65 107.172 102.249C107.172 102.249 109.08 96.327 111.025 97.6389C112.933 98.9133 114.242 102.024 113.906 105.51Z" fill="#334155"/>
<path d="M70.6626 120.129C71.4108 111.508 82.1467 106.335 94.3789 108.359C104.629 110.046 108.257 114.544 108.182 128.375C108.145 139.995 109.866 149.328 103.506 151.577C97.1471 153.826 84.7652 150.94 78.0693 144.606C71.3734 138.271 69.9519 128.225 70.6626 120.129Z" fill="#FFC7AE"/>
<path d="M100.925 152.14C95.6134 151.502 88.3938 149.516 82.6704 144.043C75.4882 137.184 73.1315 123.278 72.3834 115.256C71.4482 116.718 70.8497 118.33 70.7001 120.129C69.9893 128.263 71.3734 138.196 78.1067 144.568C83.9797 150.116 94.1919 153.039 100.925 152.14Z" fill="#F9A280"/>
<path d="M74.9645 137.709C74.9645 137.709 78.1441 131.524 76.4608 116.755C76.4608 116.755 83.4186 117.13 87.5708 107.947L72.9071 106.822L66.0615 123.84C66.0615 123.84 64.9393 138.983 72.1963 147.229C72.1963 147.229 74.5904 144.081 74.9645 137.709Z" fill="#334155"/>
<path d="M76.4608 136.772C76.4608 136.772 66.5478 124.889 64.5278 130.324C62.5078 135.759 70.4756 143.519 76.4608 140.707V136.772Z" fill="#F9A280"/>
<path d="M74.2164 138.833C74.2164 138.833 67.2586 128.937 66.1738 132.274C65.1264 135.61 71.9719 140.895 74.2164 138.833Z" fill="#DD7F62"/>
<path d="M102.347 131.224L102.122 130.737C103.581 130.099 105.9 128.75 105.975 127.85C105.975 127.775 106.013 127.551 105.564 127.288C103.357 125.939 101.786 123.24 101.786 120.654H102.309C102.309 123.053 103.768 125.601 105.826 126.838C106.387 127.176 106.499 127.588 106.461 127.888C106.424 129.387 102.796 131.037 102.347 131.224Z" fill="#F9A280"/>
<path d="M87.5708 118.742C87.5708 118.742 91.6482 116.755 96.9975 116.868C96.9975 116.868 92.5834 112.257 87.5708 118.742Z" fill="#0D2C5E"/>
<path d="M103.768 117.618C103.768 117.618 105.938 117.618 107.322 118.742C107.322 118.742 105.826 114.281 103.768 117.618Z" fill="#0D2C5E"/>
<path d="M95.6133 119.604C95.127 119.604 94.7529 120.129 94.7529 120.766C94.7529 121.403 95.127 121.928 95.6133 121.928C96.0996 121.928 96.4737 121.403 96.4737 120.766C96.4737 120.129 96.0996 119.604 95.6133 119.604Z" fill="#0D2C5E"/>
<path d="M105.938 120.541C105.451 120.541 105.077 121.066 105.077 121.703C105.077 122.34 105.451 122.865 105.938 122.865C106.424 122.865 106.798 122.34 106.798 121.703C106.798 121.066 106.424 120.541 105.938 120.541Z" fill="#0D2C5E"/>
<path d="M105.526 133.96L93.9674 132.573C93.9674 132.573 101.187 142.207 105.526 133.96Z" fill="white"/>
<path d="M96.9975 125.152C95.6134 123.24 88.9549 121.778 89.0297 125.152C89.0671 128.525 99.3541 128.45 96.9975 125.152Z" fill="#FFA5AC"/>
<path d="M106.798 126.539C106.686 127.551 107.434 128.038 108.182 128.3C108.182 127.101 108.145 125.976 108.107 124.927C107.621 124.964 106.948 125.302 106.798 126.539Z" fill="#FFA5AC"/>
<path d="M98.0448 152.477C84.9148 152.477 76.6852 143.518 76.6104 143.406L77.0218 143.069C77.0966 143.181 86.1492 152.964 100.327 151.877L100.364 152.402C99.5411 152.44 98.7929 152.477 98.0448 152.477Z" fill="#DD7F62"/>
<path d="M72.4208 158.774L66.2111 163.31L63.9667 171.069L78.3311 191.31L86.4859 176.391L94.6033 178.565L88.6182 172.268L72.7948 167.208L72.4208 158.774Z" fill="#D3E6FE"/>
<path d="M94.6033 178.565L99.1296 166.158L100.401 156.45L106.349 159.224C106.349 159.224 109.716 172.343 110.913 185.575L101.112 174.03L94.6033 178.565Z" fill="#D3E6FE"/>
<path d="M43.2429 177.703C43.2429 177.703 24.0903 208.627 18.7785 240.675C16.6837 253.232 53.3429 243.786 53.3429 243.786C53.3429 243.786 60.6374 188.911 43.2429 177.703Z" fill="#D3E6FE"/>
<path d="M203.085 171.968C203.085 171.968 209.182 160.011 211.352 158.324C213.521 156.638 237.911 143.406 237.911 143.406C237.911 143.406 239.52 144.868 237.911 147.267C236.303 149.628 230.093 156.3 230.093 156.3C230.093 156.3 232.487 156.638 232.749 158.175C233.011 159.711 232.749 162.223 232.749 162.223C232.749 162.223 234.357 163.122 234.357 164.134C234.357 165.146 232.749 168.407 232.749 168.407C232.749 168.407 234.507 169.607 233.909 171.256C233.31 172.868 226.988 178.64 226.988 178.64C226.988 178.64 225.08 178.79 225.08 175.529C225.08 175.529 220.666 181.414 211.352 182.089L203.085 171.968Z" fill="#FFC7AE"/>
<path d="M225.267 175.529L224.893 175.454C225.155 174.255 225.454 173.018 225.567 172.493C225.118 172.456 224.183 172.343 223.584 171.856C222.836 171.219 223.771 168.632 224.07 167.845C223.696 167.545 222.574 166.683 222.013 166.084C221.302 165.296 222.537 163.01 222.649 162.747L222.986 162.935C222.499 163.835 221.863 165.409 222.275 165.821C222.911 166.496 224.37 167.62 224.407 167.62L224.519 167.695L224.482 167.845C223.958 169.157 223.397 171.181 223.809 171.556C224.482 172.118 225.791 172.118 225.791 172.118H226.016L225.978 172.343C225.978 172.381 225.604 173.992 225.267 175.529Z" fill="#334155"/>
<path d="M203.085 170.806C203.085 170.806 208.172 158.212 210.679 156.225C213.185 154.239 222.686 156.225 222.686 156.225L228.784 167.47C228.784 167.47 226.09 168.632 224.295 167.808C222.499 166.983 218.01 161.023 218.01 161.023C218.01 161.023 219.881 174.742 209.743 178.191L203.085 170.806Z" fill="#F9A280"/>
<path d="M209.818 178.378L209.706 178.041C219.581 174.667 217.861 161.211 217.861 161.061L217.749 160.349L218.197 160.911C218.235 160.986 222.649 166.833 224.407 167.62C225.866 168.295 227.923 167.583 228.559 167.358L222.574 156.3L222.911 156.113L229.12 167.508L228.933 167.583C228.821 167.62 226.165 168.745 224.295 167.92C222.761 167.208 219.507 163.085 218.347 161.623C218.497 164.472 218.721 175.342 209.818 178.378Z" fill="#334155"/>
<path d="M92.6207 126.501C89.067 126.501 86.1866 123.615 86.1866 120.054C86.1866 116.493 89.067 113.607 92.6207 113.607C96.1744 113.607 99.0548 116.493 99.0548 120.054C99.0548 123.615 96.1744 126.501 92.6207 126.501ZM92.6207 114.431C89.5533 114.431 87.0096 116.943 87.0096 120.054C87.0096 123.128 89.5159 125.676 92.6207 125.676C95.6881 125.676 98.2318 123.165 98.2318 120.054C98.1944 116.943 95.6881 114.431 92.6207 114.431Z" fill="#2563EB"/>
<path d="M106.985 126.501C103.431 126.501 100.551 123.615 100.551 120.054C100.551 116.493 103.431 113.607 106.985 113.607C110.539 113.607 113.419 116.493 113.419 120.054C113.419 123.615 110.539 126.501 106.985 126.501ZM106.985 114.431C103.918 114.431 101.374 116.943 101.374 120.054C101.374 123.128 103.88 125.676 106.985 125.676C110.09 125.676 112.596 123.165 112.596 120.054C112.596 116.943 110.053 114.431 106.985 114.431Z" fill="#2563EB"/>
<path d="M86.5413 119.617L65.6958 121.687L65.7807 122.545L86.6262 120.475L86.5413 119.617Z" fill="#2563EB"/>
<path d="M101 119.604H98.6433V120.466H101V119.604Z" fill="#2563EB"/>
<path d="M69.0541 250.459C56.7097 238.052 54.7271 210.801 54.7271 210.801L52.2582 225.27C53.0811 231.417 53.6797 236.327 53.6797 238.014C53.6423 243.861 56.7471 260.504 56.7471 260.504C56.7471 260.504 77.9945 265.002 97.2219 266.164C97.1845 266.164 81.3611 262.828 69.0541 250.459Z" fill="#598EF3"/>
<path d="M54.8767 231.904H54.5026C54.5026 231.754 54.4652 216.986 52.3704 203.492C50.2756 190.035 46.0485 183.701 46.0111 183.663L46.3104 183.438C46.3478 183.513 50.6122 189.885 52.707 203.454C54.8393 216.948 54.8767 231.754 54.8767 231.904Z" fill="#2563EB"/>
<path d="M105.264 265.677C104.18 224.183 94.5285 178.303 94.4163 177.853L94.7903 177.778C94.9026 178.228 104.554 224.145 105.638 265.677H105.264Z" fill="#2563EB"/>
<path d="M129.536 198.189L106.855 200.69L106.896 201.062L129.577 198.561L129.536 198.189Z" fill="#2563EB"/>
<path d="M31.7215 232.054L31.4971 231.754C31.5345 231.717 37.1456 227.931 47.8067 228.756L47.7693 229.13C37.2952 228.306 31.7963 232.017 31.7215 232.054Z" fill="#2563EB"/>
<path d="M94.6782 178.903L88.5059 172.456L72.2711 167.47L72.3833 167.096L88.693 172.118L94.5285 178.191L99.3167 162.598L99.6533 162.71L94.6782 178.903Z" fill="#2563EB"/>
<path d="M99.9899 270.212C95.0147 270.212 90.1144 269.837 85.7003 269.313C69.9144 267.401 56.5973 263.165 56.4851 263.128L56.5973 262.753C56.747 262.791 69.9892 267.026 85.7377 268.938C100.252 270.7 119.928 270.775 131.188 261.179L131.412 261.479C123.519 268.188 111.511 270.212 99.9899 270.212Z" fill="#2563EB"/>
<path d="M107.696 166.946C107.696 166.946 118.843 165.071 125.988 166.121C133.133 167.171 167.136 198.319 167.136 198.319L203.122 170.806L216.103 181.564C216.103 181.564 178.246 229.393 171.027 230.33C163.807 231.267 121.05 206.191 121.05 206.191L107.696 166.946Z" fill="#D3E6FE"/>
<path d="M170.466 222.271C166.613 223.658 143.27 216.124 129.579 211.101C141.176 217.736 165.341 231.117 171.027 230.367C178.246 229.43 216.103 181.602 216.103 181.602C216.103 181.602 175.665 220.359 170.466 222.271Z" fill="#D3E6FE"/>
<path d="M166.932 199.56L161.692 213.202L162.041 213.337L167.282 199.695L166.932 199.56Z" fill="#2563EB"/>
<path d="M168.904 199.61L166.939 218.512L167.311 218.551L169.276 199.649L168.904 199.61Z" fill="#2563EB"/>
<path d="M129.392 211.101C128.345 192.734 125.016 170.619 124.978 170.394L125.352 170.319C125.39 170.544 128.719 192.697 129.766 211.064L129.392 211.101Z" fill="#2563EB"/>
<path d="M199.84 173.233L199.587 173.509L212.804 185.632L213.056 185.356L199.84 173.233Z" fill="#2563EB"/>
<g opacity="0.44">
<path d="M125.838 169.195C133.021 171.219 167.099 198.319 167.099 198.319C167.099 198.319 133.095 167.208 125.951 166.121C118.806 165.071 107.658 166.946 107.658 166.946C107.658 166.946 118.694 167.17 125.838 169.195Z" fill="#598EF3"/>
</g>
<path d="M264.994 262.228C264.732 262.228 264.508 262.003 264.508 261.741V230.892C264.508 230.63 264.732 230.405 264.994 230.405C265.256 230.405 265.48 230.63 265.48 230.892V261.741C265.443 262.041 265.219 262.228 264.994 262.228Z" fill="#2563EB"/>
<path d="M252.463 265.115C252.201 265.115 251.976 264.89 251.976 264.627V245.811C251.976 245.548 252.201 245.323 252.463 245.323C252.724 245.323 252.949 245.548 252.949 245.811V264.627C252.949 264.927 252.724 265.115 252.463 265.115Z" fill="#2563EB"/>
<path d="M77.7325 226.282C94.0123 226.282 107.21 213.058 107.21 196.745C107.21 180.432 94.0123 167.208 77.7325 167.208C61.4528 167.208 48.2555 180.432 48.2555 196.745C48.2555 213.058 61.4528 226.282 77.7325 226.282Z" fill="#D0A91F"/>
<path d="M77.7326 226.507C73.2437 226.507 68.7922 225.457 64.64 223.433C57.5326 219.91 52.1833 213.837 49.6396 206.303C47.0959 198.769 47.6196 190.71 51.0985 183.588C54.6148 176.466 60.6748 171.106 68.1937 168.557C83.6803 163.272 100.588 171.631 105.9 187.149C111.175 202.705 102.87 219.61 87.3463 224.932C84.1666 225.982 80.9496 226.507 77.7326 226.507ZM77.7326 167.433C74.6277 167.433 71.4481 167.92 68.3433 169.007C60.9366 171.519 54.9889 176.766 51.5474 183.813C48.1059 190.823 47.5822 198.769 50.0885 206.191C52.5948 213.612 57.8318 219.572 64.8644 223.021C71.8596 226.469 79.79 226.994 87.1966 224.483C102.459 219.272 110.651 202.592 105.451 187.299C101.299 175.117 89.89 167.433 77.7326 167.433Z" fill="#2563EB"/>
<path d="M79.4907 208.402C76.9844 208.964 74.7026 208.777 71.8222 207.278L73.6926 202.63C76.3111 203.867 78.6304 203.417 80.3137 202.855C82.1841 202.217 83.2315 201.093 82.82 199.968C82.4833 198.956 81.0993 198.732 78.8548 199.294C74.3659 200.418 70.1763 200.606 68.4556 195.658C67.2959 192.284 69.2785 189.511 72.2711 187.786L71.3733 185.2L76.1615 183.513L77.0593 186.062C79.1167 185.687 81.0244 185.762 83.007 186.437L81.4359 190.972C79.7152 190.41 78.0319 190.635 76.2737 191.235C74.8896 191.722 73.6926 192.622 74.0667 193.671C74.553 195.058 75.9744 194.758 77.9944 194.271C82.1093 193.296 86.8226 193.484 88.3937 198.094C89.703 201.843 87.4585 204.841 84.1293 206.678H84.1667L85.1393 209.452L80.3511 211.138L79.4907 208.402Z" fill="white"/>
<path d="M58.0938 225.645C58.0938 225.645 60.6375 217.398 62.1338 214.4C63.63 211.401 73.9919 203.979 73.9919 203.979C73.9919 203.979 74.8523 205.291 74.2163 207.915C73.5804 210.501 69.2786 215.786 69.2786 215.786C69.2786 215.786 76.4234 214.512 79.6778 213.725C82.9323 212.938 93.8552 207.615 95.0523 210.951L93.743 212.375C93.743 212.375 95.0523 212.45 95.4637 213.837L91.1619 219.16C91.1619 219.16 94.3415 218.11 94.8278 219.872L90.6756 224.707C90.6756 224.707 88.506 229.58 86.2241 231.042C83.9423 232.504 66.6226 238.089 66.6226 238.089L58.0938 225.645Z" fill="#FFC7AE"/>
<path d="M77.209 220.772L77.1342 220.397C77.209 220.397 83.5682 218.748 84.1667 218.485C84.6156 218.298 90.8253 213.725 94.9027 210.726L95.1271 211.026C94.0797 211.813 84.9149 218.598 84.3164 218.86C83.6805 219.122 77.4708 220.734 77.209 220.772Z" fill="#334155"/>
<path d="M80.9497 225.907L80.8 225.57C80.8749 225.532 87.7952 222.121 88.693 221.596C89.4038 221.147 93.7056 215.711 95.3141 213.65L95.6134 213.875C95.3889 214.175 89.8152 221.334 88.9175 221.896C87.9823 222.458 81.2489 225.794 80.9497 225.907Z" fill="#334155"/>
<path d="M84.2041 230.255L84.0171 229.918C85.6256 229.055 91.723 223.096 91.7978 223.021L92.0597 223.283C91.7978 223.545 85.8501 229.355 84.2041 230.255Z" fill="#334155"/>
<path d="M71.8597 209.339L69.9519 207.015L70.2512 206.79L71.9345 208.777C72.1215 208.552 72.4582 208.102 72.7201 207.54C73.0941 206.715 72.2712 205.291 72.2712 205.254L72.6078 205.066C72.6452 205.141 73.5056 206.678 73.0567 207.69C72.6452 208.627 72.0841 209.189 72.0467 209.189L71.8597 209.339Z" fill="#334155"/>
<path d="M64.0415 217.211L70.0641 215.599C69.5778 215.674 69.2785 215.749 69.2785 215.749C69.2785 215.749 71.1489 213.462 72.6078 211.176L64.0415 217.211Z" fill="#543E36"/>
<path d="M58.0937 226.769L18.7411 242.737C18.7411 242.737 14.5515 265.639 22.856 269.275C33.2552 273.848 66.5852 239.214 66.5852 239.214L58.0937 226.769Z" fill="#D3E6FE"/>
<path d="M18.0678 247.61C17.3571 254.544 16.983 266.726 22.8186 269.275C33.2552 273.848 66.5852 239.214 66.5852 239.214C66.5852 239.214 31.5345 261.966 25.7738 264.327C21.3597 266.127 18.9656 253.532 18.0678 247.61Z" fill="#598EF3"/>
<path d="M53.5968 227.413L52.855 227.849L61.6481 242.845L62.3899 242.408L53.5968 227.413Z" fill="#2563EB"/>
<path d="M58.0461 226.59L26.9724 239.178L27.1126 239.525L58.1863 226.938L58.0461 226.59Z" fill="#2563EB"/>
<path d="M244.745 77.7012C251.222 73.2558 254.949 67.423 253.069 64.6733C251.189 61.9237 244.415 63.2983 237.938 67.7437C231.462 72.1891 227.735 78.0219 229.615 80.7715C231.494 83.5212 238.268 82.1466 244.745 77.7012Z" fill="#2563EB"/>
<path d="M233.16 82.3457C231.477 82.3457 230.168 81.8584 229.494 80.8838C227.549 78.0726 231.327 72.1127 237.874 67.6147C241.016 65.4407 244.345 63.9413 247.226 63.3416C250.181 62.7419 252.313 63.1917 253.248 64.5786C255.193 67.3898 251.415 73.3497 244.869 77.8477C240.642 80.7714 236.228 82.3457 233.16 82.3457ZM249.582 63.4541C248.909 63.4541 248.123 63.529 247.3 63.7164C244.457 64.2787 241.203 65.778 238.061 67.9146C231.664 72.3001 227.961 78.0351 229.756 80.6964C231.589 83.3577 238.248 81.9333 244.644 77.5478C251.041 73.1622 254.744 67.4273 252.949 64.766C252.35 63.9039 251.191 63.4541 249.582 63.4541Z" fill="#2563EB"/>
<path d="M236.19 88.0057C233.647 88.0057 231.739 87.331 230.504 86.019C227.437 82.758 229.42 76.8356 229.494 76.6107L229.831 76.7232C229.794 76.7981 227.849 82.683 230.766 85.7567C232.786 87.9307 236.714 88.2306 242.4 86.6563L242.512 87.0311C240.081 87.7058 237.986 88.0057 236.19 88.0057Z" fill="#2563EB"/>
<path d="M305.993 135.16C306.778 133.998 307.377 132.948 307.825 131.974C305.506 134.11 291.628 147.154 275.505 141.457C257.849 135.197 229.868 92.2413 229.868 92.2413C229.868 92.2413 228.372 92.2413 225.005 92.6161C223.808 92.766 220.517 91.4916 220.517 91.4916L257.961 150.041C260.168 153.339 263.797 157.162 267.65 157.462C271.316 157.762 272.887 157.837 277.264 156.375C280.219 155.513 285.418 152.927 288 151.353C291.927 148.954 301.578 141.794 305.993 135.16Z" fill="#2563EB"/>
<path d="M235.48 115.069C235.48 115.069 243.522 120.504 264.096 107.759C284.67 95.015 282.987 83.9575 282.987 83.9575L290.281 95.015C290.281 95.015 288.598 105.698 270.269 116.943C251.939 128.188 241.914 125.114 241.914 125.114L235.48 115.069Z" fill="white"/>
<path d="M241.128 116.193C237.387 116.193 235.442 115.294 235.367 115.256L235.517 114.919C235.629 114.956 245.467 119.529 263.947 107.609C284.521 94.3403 282.95 83.5451 282.95 83.4327L283.324 83.3577C283.361 83.4702 283.773 86.169 281.64 90.592C279.658 94.6402 275.019 100.9 264.171 107.909C253.697 114.694 245.916 116.193 241.128 116.193Z" fill="#2563EB"/>
<path d="M246.178 125.826C243.148 125.826 241.614 125.227 241.577 125.189L241.727 124.852C241.801 124.889 251.34 128.638 269.969 116.98C289.459 104.836 290.094 95.1275 290.094 95.015H290.469C290.469 95.4274 289.87 104.986 270.194 117.28C258.784 124.402 250.779 125.826 246.178 125.826Z" fill="#2563EB"/>
<path d="M329.26 493.313H197.1C184.157 493.163 169.792 483.792 162.797 469.774C161.675 468.762 160.59 467.675 159.543 466.513C164.593 484.505 181.613 497.249 196.726 497.399H328.923C346.243 497.399 362.515 485.254 367.939 468.012C367.266 468.687 366.593 469.324 365.882 469.961C358.849 483.942 344.485 493.313 329.26 493.313Z" fill="#8DB5E0"/>
</svg>
