<svg width="49" height="48" viewBox="0 0 49 48" fill="none" xmlns="http://www.w3.org/2000/svg">
<g clip-path="url(#clip0_1595_16)">
<g clip-path="url(#clip1_1595_16)">
<path d="M30.4648 24C30.4648 25.4918 29.8722 26.9226 28.8173 27.9775C27.7624 29.0324 26.3316 29.625 24.8398 29.625C23.348 29.625 21.9172 29.0324 20.8623 27.9775C19.8074 26.9226 19.2148 25.4918 19.2148 24C19.2148 23.6794 19.2485 23.3662 19.3067 23.0625H17.3398V30.5569C17.3398 31.0781 17.7617 31.5 18.2829 31.5H31.3985C31.6484 31.4995 31.8878 31.3999 32.0642 31.2231C32.2407 31.0463 32.3398 30.8067 32.3398 30.5569V23.0625H30.3729C30.431 23.3662 30.4648 23.6794 30.4648 24ZM24.8398 27.75C25.3324 27.7499 25.8201 27.6527 26.2751 27.4641C26.7302 27.2755 27.1436 26.9991 27.4918 26.6507C27.8401 26.3023 28.1162 25.8887 28.3046 25.4336C28.493 24.9785 28.5899 24.4907 28.5898 23.9981C28.5897 23.5055 28.4925 23.0178 28.3039 22.5628C28.1153 22.1077 27.8389 21.6943 27.4905 21.3461C27.1421 20.9979 26.7285 20.7217 26.2734 20.5333C25.8183 20.3449 25.3305 20.248 24.8379 20.2481C23.8431 20.2484 22.8891 20.6438 22.1859 21.3474C21.4826 22.051 21.0877 23.0052 21.0879 24C21.0882 24.9948 21.4836 25.9488 22.1872 26.652C22.8908 27.3553 23.845 27.7502 24.8398 27.75ZM29.3398 20.0625H31.5879C31.7373 20.0625 31.8805 20.0033 31.9863 19.8979C32.0921 19.7924 32.1518 19.6494 32.1523 19.5V17.2519C32.1523 17.1022 32.0928 16.9586 31.987 16.8528C31.8812 16.747 31.7376 16.6875 31.5879 16.6875H29.3398C29.1901 16.6875 29.0466 16.747 28.9407 16.8528C28.8349 16.9586 28.7754 17.1022 28.7754 17.2519V19.5C28.7773 19.8094 29.0304 20.0625 29.3398 20.0625ZM24.8398 6C20.0659 6 15.4875 7.89642 12.1119 11.2721C8.73626 14.6477 6.83984 19.2261 6.83984 24C6.83984 28.7739 8.73626 33.3523 12.1119 36.7279C15.4875 40.1036 20.0659 42 24.8398 42C27.2036 42 29.5442 41.5344 31.7281 40.6298C33.912 39.7252 35.8963 38.3994 37.5677 36.7279C39.2392 35.0565 40.565 33.0722 41.4696 30.8883C42.3742 28.7044 42.8398 26.3638 42.8398 24C42.8398 21.6362 42.3742 19.2956 41.4696 17.1117C40.565 14.9278 39.2392 12.9435 37.5677 11.2721C35.8963 9.60062 33.912 8.27475 31.7281 7.37017C29.5442 6.46558 27.2036 6 24.8398 6ZM34.2148 31.2919C34.2148 32.4375 33.2773 33.375 32.1317 33.375H17.5479C16.4023 33.375 15.4648 32.4375 15.4648 31.2919V16.7081C15.4648 15.5625 16.4023 14.625 17.5479 14.625H32.1317C33.2773 14.625 34.2148 15.5625 34.2148 16.7081V31.2919Z" fill="#EBECF0"/>
</g>
</g>
<defs>
<clipPath id="clip0_1595_16">
<rect width="48" height="48" fill="white" transform="translate(0.839844)"/>
</clipPath>
<clipPath id="clip1_1595_16">
<rect width="48" height="48" fill="white" transform="translate(0.839844)"/>
</clipPath>
</defs>
</svg>
