<?xml version="1.0" encoding="utf-8"?>
<!-- Generator: Adobe Illustrator 25.2.1, SVG Export Plug-In . SVG Version: 6.00 Build 0)  -->
<svg version="1.1" id="Capa_1" xmlns="http://www.w3.org/2000/svg" xmlns:xlink="http://www.w3.org/1999/xlink" x="0px" y="0px"
	 viewBox="0 0 3816 4007" style="enable-background:new 0 0 3816 4007;" xml:space="preserve">
<style type="text/css">
	.st0{fill:#9494E4;}
	.st1{fill:#FFFFFF;}
</style>
<g>
	<path class="st0" d="M2210.5,857.4L2475,923c0,0,33-291-413-335L2210.5,857.4z"/>
	<path class="st1" d="M2478,927.4l-269.8-67l-0.7-1.3l-151.7-275.2l6.6,0.7c89.7,8.8,166.7,28.4,228.9,58.3
		c51.9,24.9,94,57,125.2,95.6c37.6,46.5,52.5,94.3,58.3,126.1c6.4,34.6,3.8,57.9,3.7,58.8L2478,927.4z M2212.9,854.3l259,64.3
		c0.4-8,0.7-27.6-4-53.1c-5.7-31-20.3-77.5-57-122.8c-67.2-83.1-182.4-133.7-342.6-150.5L2212.9,854.3z"/>
</g>
<g>
	<path class="st0" d="M2211,857l264,66c0,0-67.9,553.9-214.9,697.9L1967,1611L2211,857z"/>
	<path class="st1" d="M2261.4,1624.5l-299.2-10.1l246.4-761.5l270.2,67.5l-0.4,3.1c-0.2,1.4-17.4,140.4-52.4,295.3
		c-20.6,91-43.1,169.6-67.1,233.6c-30.1,80.3-62.5,137.9-96.5,171.1L2261.4,1624.5z M1971.8,1607.7l286.9,9.7
		c32.8-32.7,64.3-89,93.7-167.5c23.9-63.7,46.4-142,66.9-232.7c32-141.8,49.1-270.3,51.9-291.5l-257.8-64.5L1971.8,1607.7z"/>
</g>
<g>
	<polygon class="st0" points="796,1562 422,3086 1060,3103 1214,1551 	"/>
	<path class="st1" d="M1063.2,3106.6l-3.3-0.1l-642.3-17.1l1-4.2l374.6-1526.6l424.6-11.2l-0.4,3.9L1063.2,3106.6z M426.4,3082.6
		l630.4,16.8l153.3-1544.8l-411.4,10.8L426.4,3082.6z"/>
</g>
<g>
	<polygon class="st0" points="422,3086 686,3207 1292,3229 1060,3103 	"/>
	<path class="st1" d="M1306.8,3233l-621.6-22.6l-0.6-0.3L405,3082l656,17.5l0.7,0.4L1306.8,3233z M686.8,3203.5l590.4,21.4
		l-218.2-118.5L439,3090L686.8,3203.5z"/>
</g>
<g>
	<path class="st0" d="M1979,1611l553.9,16.8c190.2,5.8,326,186.5,278.6,370.8L2562,2967.8c-28.6,111-130.7,187.2-245.3,182.8
		L1060,3103l154-1552l384.6-348.6c90.9-82.4,161.1-185.2,204.7-299.9l78.4-206.2c33.7-88.8,138.9-126.4,221.3-79l36.3,20.9
		c58.1,33.4,90.8,98.2,83.2,164.8c-13.9,122.1-43.6,319.9-100.5,462.1C2034,1485,1979,1611,1979,1611z"/>
	<path class="st1" d="M2325.8,3154.2c-3.1,0-6.2-0.1-9.3-0.2l-1260.4-47.7l0.4-3.7l154.1-1553.3l385.6-349.5
		c90.1-81.7,160.6-184.9,203.8-298.6l78.4-206.2c16.4-43.3,50.9-77,94.5-92.6c43.6-15.6,91.6-11.3,131.8,11.8l36.3,20.9
		c59.4,34.1,92.7,100.2,85,168.2c-15.3,134.7-45.3,324.3-100.7,463c-77.7,194.1-130.2,316.4-141,341.4l548.7,16.6
		c91.7,2.8,176,46.5,231.1,119.8c55.1,73.4,73.6,166.5,50.7,255.3l-249.5,969.2c-14,54.5-46.6,103-91.7,136.6
		C2431,3137,2378.9,3154.2,2325.8,3154.2z M1063.9,3099.6l1253,47.4c3,0.1,6,0.2,9,0.2c108.5,0,205.6-74.6,232.8-180.4l249.5-969.2
		c22.3-86.8,4.3-177.7-49.6-249.4c-53.8-71.7-136.1-114.3-225.7-117l-559-16.9l2.1-4.7c0.5-1.3,56-128.5,143-345.9
		c55.2-138,85-326.9,100.3-461.2c7.4-65.3-24.5-128.6-81.5-161.4l-36.3-20.9c-38.4-22.1-84.3-26.2-126-11.3
		c-41.7,14.9-74.6,47.1-90.3,88.5l-78.4,206.2c-21.8,57.4-50.4,112.1-85,162.8c-34.6,50.7-75.2,97.3-120.6,138.5l-383.6,347.7
		L1063.9,3099.6z"/>
</g>
<g>
	<polygon class="st0" points="1060,3103 1292,3229 2528,3259 2333,3145 	"/>
	<path class="st1" d="M2541.5,3262.8l-1250.4-30.3l-0.7-0.4l-245-133.1l1288.7,42.5l0.8,0.4L2541.5,3262.8z M1292.9,3225.5
		l1221.6,29.7L2332,3148.5L1074.7,3107L1292.9,3225.5z"/>
</g>
<g>
	<polygon class="st0" points="2811.4,1998.6 3075,2114 2836,3013 2575.6,2895.4 	"/>
	<path class="st1" d="M2838.3,3017.9l-266.9-120.5l237.7-903.6l270.1,118.3l-0.8,2.9L2838.3,3017.9z M2579.7,2893.4l254,114.7
		l237.2-892.1l-257.1-112.6L2579.7,2893.4z"/>
</g>
<g>
	<path class="st0" d="M2316.7,3150.6L2528,3259c0,0,220,22,308-246l-271-143L2316.7,3150.6z"/>
	<path class="st1" d="M2540.6,3263c-7.7,0-12.3-0.4-12.9-0.5l-0.7-0.1l-215.9-110.8l253.1-286l276,145.7l-0.9,2.8
		c-20.2,61.6-49.2,113-86,152.8c-29.5,31.9-64.2,56.4-103,72.8C2602.5,3260,2560.8,3263,2540.6,3263z M2529,3255.6
		c6.3,0.5,58.3,3.4,119-22.4c59-25.1,138.6-83.4,183.8-218.4l-265.9-140.3l-243.5,275.1L2529,3255.6z"/>
</g>
<g>
	<path class="st0" d="M2811.4,1998.6L3075,2114c0,0,165-367-444-477L2811.4,1998.6z"/>
	<path class="st1" d="M3076.8,2118.6l-267.9-117.3l-0.6-1.1l-183.6-367.8l6.9,1.2c122.6,22.1,223,56.5,298.2,102.2
		c62.8,38.1,108.8,84.3,136.8,137.5c33.6,63.7,34.9,126.1,30.2,167.3c-5.2,44.6-18.1,73.7-18.6,74.9L3076.8,2118.6z M2814,1995.9
		l259.1,113.5c3.4-8.7,12.7-34.6,16.8-69.9c4.6-40.1,3.2-101-29.5-163c-60.6-114.9-202.9-193.9-423.1-234.7L2814,1995.9z"/>
</g>
</svg>
