<?xml version="1.0" encoding="utf-8"?>
<!-- Generator: Adobe Illustrator 25.2.1, SVG Export Plug-In . SVG Version: 6.00 Build 0)  -->
<svg version="1.1" id="Capa_1" xmlns="http://www.w3.org/2000/svg" xmlns:xlink="http://www.w3.org/1999/xlink" x="0px" y="0px"
	 viewBox="0 0 379 150" style="enable-background:new 0 0 379 150;" xml:space="preserve">
<style type="text/css">
	.st0{fill:#19191B;}
</style>
<g>
	<path class="st0" d="M137,48v-1c0-22.6-18.4-41-41-41H52C29.4,6,11,24.4,11,47v57.5c0,22.6,18.4,41,41,41h44c22.6,0,41-18.4,41-41
		V98h-20V48H137z M114,92.6c0,12.7-9.8,23.2-22.2,24.3L85,123H75l6.9-6H67.7l-6.7,6l-9-2l5.7-4.5c-3-0.6-5.8-1.7-8.3-3.3l-6.2,5
		L38,114l6.5-4.8c-1.8-2-3.3-4.3-4.4-6.8l-8,5.6v-7l6.3-4.7c-0.2-1.2-0.3-2.4-0.3-3.7v-4.5L31,93v-7l7-5.2v-8.7L31,77v-7l7-5.2v-8.7
		L31,61v-7l7.5-5.6C40.8,37.3,50.6,29,62.4,29h27.3c13.5,0,24.4,10.9,24.4,24.4V92.6z"/>
	<path class="st0" d="M90,35H60c-8.8,0-16,7.2-16,16v43c0,8.8,7.2,16,16,16h30c8.8,0,16-7.2,16-16V51C106,42.2,98.8,35,90,35z
		 M84.2,84.4c-1.6,1.4-3.6,2.3-6,2.7v5.7h-4.8v-5.6c-3.3-0.3-6.2-1.6-8.5-3.6l2.1-4.7c2.6,2.1,5.5,3.1,8.7,3.1c1.3,0,2.4-0.3,3.3-1
		c0.9-0.7,1.4-1.4,1.4-2.3c0-0.6-0.2-1.2-0.7-1.6c-0.5-0.5-1-0.8-1.6-1c-0.5-0.2-1.3-0.4-2.2-0.7c-1.5-0.4-2.7-0.7-3.7-1.1
		c-1-0.3-2-0.8-3.1-1.5c-1.1-0.6-1.9-1.5-2.4-2.5s-0.8-2.2-0.8-3.6c0-2.2,0.7-3.9,2.1-5.2c1.4-1.3,3.2-2.2,5.5-2.6v-5.2h4.8V59
		c2.6,0.3,5,1.2,7.1,2.7l-2.2,4.7c-1.3-0.8-2.5-1.4-3.6-1.8c-1.1-0.3-2.4-0.5-3.9-0.5c-1,0-1.9,0.2-2.6,0.7c-0.7,0.5-1.1,1-1.1,1.7
		c0,0.9,0.3,1.5,1,2c0.7,0.4,1.8,0.9,3.4,1.3c3,0.7,5.5,1.8,7.3,3.1c1.8,1.4,2.8,3.2,2.8,5.7C86.5,81.1,85.8,83,84.2,84.4z M101,91
		l-3,7c0,0,0-32,0-41s-7-14-12-14s-31,0-31,0l4-3c0,0,22,0,30,0s13,7,13,16C102,63,101,91,101,91z"/>
</g>
<g>
	<path d="M160.4,61.8c-3.1-3.1-4.6-6.8-4.6-11.1c0-4.3,1.5-8,4.6-11.1c3.1-3.1,6.7-4.6,11-4.6c4.2,0,7.8,1.5,10.9,4.5l-0.7,0.7
		c-2.9-2.8-6.3-4.2-10.2-4.2c-4,0-7.5,1.4-10.3,4.3c-2.9,2.9-4.3,6.4-4.3,10.4c0,4.1,1.4,7.6,4.3,10.4c2.9,2.9,6.3,4.3,10.3,4.3
		c2.2,0,4.2-0.4,6.1-1.3c1.9-0.9,3.6-2.1,4.9-3.7l0.7,0.6c-3.1,3.5-7,5.3-11.7,5.3C167.2,66.4,163.5,64.9,160.4,61.8z"/>
	<path d="M207.7,66v-7c-0.7,2.2-2,3.9-3.8,5.4c-1.9,1.4-3.9,2.1-6.2,2.1c-3,0-5.5-1.1-7.7-3.4c-2.1-2.3-3.2-5-3.2-8.2
		s1.1-5.9,3.2-8.2c2.1-2.3,4.7-3.4,7.7-3.4c2.3,0,4.3,0.7,6.2,2.1c1.9,1.4,3.1,3.2,3.8,5.4v-7h0.9V66H207.7z M190.7,47.3
		c-1.9,2.1-2.9,4.6-2.9,7.6c0,2.9,1,5.5,2.9,7.6c1.9,2.1,4.3,3.1,7,3.1c2.8,0,5.1-1,7.1-3.1c2-2.1,2.9-4.6,2.9-7.6
		c0-2.9-1-5.5-2.9-7.6c-2-2.1-4.3-3.1-7.1-3.1C194.9,44.1,192.6,45.2,190.7,47.3z"/>
	<path d="M226.2,43.2v0.9c-2.8,0-5.1,0.9-6.8,2.6c-1.8,1.7-2.7,3.8-2.7,6.2V66h-0.9V43.7h0.9V49C218.6,45.1,221.7,43.2,226.2,43.2z"
		/>
	<path d="M232.3,63c-2.3-2.3-3.4-5-3.4-8.2s1.1-5.9,3.4-8.2c2.3-2.3,5-3.4,8.1-3.4s5.9,1.1,8.1,3.4c2.3,2.3,3.4,5,3.4,8.2
		s-1.1,5.9-3.4,8.2c-2.3,2.3-5,3.4-8.1,3.4S234.5,65.3,232.3,63z M232.9,47.3c-2.1,2.1-3.1,4.6-3.1,7.6c0,2.9,1,5.5,3.1,7.6
		c2.1,2.1,4.6,3.1,7.5,3.1s5.4-1,7.5-3.1c2.1-2.1,3.1-4.6,3.1-7.6c0-2.9-1-5.5-3.1-7.6c-2.1-2.1-4.6-3.1-7.5-3.1
		S235,45.2,232.9,47.3z"/>
	<path d="M258,66V35h0.9V66H258z"/>
	<path d="M265.8,38.2c-0.2-0.2-0.3-0.4-0.3-0.7c0-0.3,0.1-0.5,0.3-0.7c0.2-0.2,0.4-0.3,0.7-0.3c0.3,0,0.5,0.1,0.7,0.3
		c0.2,0.2,0.3,0.4,0.3,0.7c0,0.3-0.1,0.5-0.3,0.7c-0.2,0.2-0.4,0.3-0.7,0.3C266.3,38.5,266.1,38.4,265.8,38.2z M266.1,66V43.7h0.9
		V66H266.1z"/>
	<path d="M274.2,66V43.7h0.9v4.8c1.6-3.5,4.4-5.3,8.6-5.3c2.5,0,4.5,0.7,5.9,2c1.5,1.3,2.2,3.4,2.2,6.1V66H291V51.4
		c0-4.9-2.4-7.3-7.2-7.3c-2.5,0-4.6,0.8-6.2,2.4s-2.4,3.4-2.4,5.4V66H274.2z"/>
	<path d="M318.8,54.8v0.4h-20.4c0.1,2.9,1.2,5.3,3.2,7.3c2.1,2,4.5,3,7.4,3c2.9,0,5.3-1,7.2-3.1l0.7,0.7c-2.1,2.2-4.7,3.3-7.8,3.3
		c-3.2,0-5.9-1.1-8.1-3.4c-2.3-2.3-3.4-5-3.4-8.2s1-5.9,3.1-8.2c2.1-2.3,4.6-3.4,7.6-3.4c2.9,0,5.4,1.1,7.5,3.4
		C317.7,48.9,318.8,51.6,318.8,54.8z M308.2,44.1c-2.7,0-4.9,1-6.8,3c-1.9,2-2.9,4.4-3,7.3h19.4c-0.1-2.9-1.1-5.3-2.9-7.3
		C313,45.1,310.8,44.1,308.2,44.1z"/>
	<path d="M156.4,114V83.5h22.8v5.6H163v6.2h13.8v5.6H163v13H156.4z"/>
	<path d="M181.7,84.4c0-1,0.4-1.9,1.1-2.7c0.7-0.7,1.6-1.1,2.6-1.1c1,0,1.9,0.4,2.7,1.1c0.7,0.7,1.1,1.6,1.1,2.7
		c0,1-0.4,1.9-1.1,2.6c-0.7,0.7-1.6,1.1-2.7,1.1c-1,0-1.9-0.4-2.6-1.1C182.1,86.3,181.7,85.4,181.7,84.4z M182.3,114V90.5h6.3V114
		H182.3z"/>
	<path d="M194.2,114V90.5h6.3v3.1c1.8-2.4,4.2-3.5,7.3-3.5c3.1,0,5.3,0.9,6.5,2.8c1.2,1.9,1.8,4.6,1.8,8.2V114h-6.3v-12.2
		c0-2-0.3-3.5-0.8-4.3c-0.5-0.9-1.6-1.3-3.3-1.3c-1.6,0-2.9,0.6-3.9,1.7c-1,1.1-1.5,2.6-1.5,4.4V114H194.2z"/>
	<path d="M223.2,110.9c-2-2.3-3-5.2-3-8.7c0-3.4,1-6.3,3-8.7c2-2.4,4.6-3.5,7.8-3.5c2.9,0,5.3,1.2,7.1,3.6v-3.1h6.3V114h-6.3v-3.1
		c-1.8,2.4-4.1,3.5-7.1,3.5C227.8,114.4,225.2,113.3,223.2,110.9z M228.5,97.8c-1.1,1.1-1.6,2.6-1.6,4.4s0.5,3.3,1.6,4.4
		c1,1.1,2.4,1.7,4.1,1.7c1.6,0,3-0.6,4-1.7c1-1.1,1.6-2.6,1.6-4.4s-0.5-3.3-1.6-4.4c-1-1.1-2.4-1.7-4-1.7
		C230.9,96.1,229.5,96.7,228.5,97.8z"/>
	<path d="M250,114V90.5h6.3v3.1c1.8-2.4,4.2-3.5,7.3-3.5c3.1,0,5.3,0.9,6.5,2.8c1.2,1.9,1.8,4.6,1.8,8.2V114h-6.3v-12.2
		c0-2-0.3-3.5-0.8-4.3c-0.5-0.9-1.6-1.3-3.3-1.3c-1.6,0-2.9,0.6-3.9,1.7c-1,1.1-1.5,2.6-1.5,4.4V114H250z"/>
	<path d="M275.3,114v-4.5l7.7-9.4l3.3-4h-10.6v-5.5h18.8v4.7l-7.4,8.9l-3.6,4.3h11.6v5.5H275.3z"/>
	<path d="M299.8,110.9c-2-2.3-3-5.2-3-8.7c0-3.4,1-6.3,3-8.7c2-2.4,4.6-3.5,7.8-3.5c2.9,0,5.3,1.2,7.1,3.6v-3.1h6.3V114h-6.3v-3.1
		c-1.8,2.4-4.1,3.5-7.1,3.5C304.4,114.4,301.8,113.3,299.8,110.9z M305.1,97.8c-1.1,1.1-1.6,2.6-1.6,4.4s0.5,3.3,1.6,4.4
		c1,1.1,2.4,1.7,4.1,1.7c1.6,0,3-0.6,4-1.7c1-1.1,1.6-2.6,1.6-4.4s-0.5-3.3-1.6-4.4c-1-1.1-2.4-1.7-4-1.7
		C307.5,96.1,306.1,96.7,305.1,97.8z"/>
	<path d="M325.5,111.2l2.2-4.6c2.6,1.7,5,2.6,7.4,2.6c1,0,1.9-0.2,2.7-0.6c0.8-0.4,1.3-1,1.3-1.7c0-0.9-1.4-1.7-4.2-2.3
		c-2.7-0.6-4.7-1.5-6.1-2.5c-1.4-1-2.1-2.6-2.1-4.7c0-2.3,0.9-4,2.8-5.3c1.9-1.3,4-2,6.3-2c2.8,0,5.7,0.8,8.6,2.3l-2.2,4.6
		c-2-1-4.2-1.6-6.4-1.6c-0.7,0-1.4,0.2-2,0.5c-0.6,0.3-0.9,0.8-0.9,1.4c0,0.8,1.1,1.5,3.3,1.9c1.3,0.3,2.4,0.5,3.3,0.9
		c1,0.3,1.9,0.8,2.9,1.4c0.9,0.6,1.7,1.3,2.2,2.2c0.5,0.9,0.8,1.9,0.8,3.1c0,1.4-0.3,2.6-1,3.6s-1.5,1.9-2.6,2.4
		c-1.1,0.6-2.2,1-3.3,1.2s-2.3,0.4-3.4,0.4c-1.6,0-3.1-0.2-4.6-0.7c-1.5-0.5-2.6-0.9-3.3-1.3C326.5,112,325.9,111.6,325.5,111.2z"/>
</g>
</svg>
