<svg width="264" height="106" viewBox="0 0 264 106" fill="none" xmlns="http://www.w3.org/2000/svg">
<path d="M95.4301 33.92V33.2133C95.4301 17.2427 82.6132 4.23999 66.8707 4.23999H36.2216C20.4792 4.23999 7.66227 17.2427 7.66227 33.2133V73.8467C7.66227 89.8173 20.4792 102.82 36.2216 102.82H66.8707C82.6132 102.82 95.4301 89.8173 95.4301 73.8467V69.2533H81.4987V33.92H95.4301ZM79.409 65.4373C79.409 74.412 72.5826 81.832 63.9451 82.6093L59.2084 86.92H52.2427L57.0491 82.68H47.1578L42.4908 86.92L36.2216 85.5067L40.1921 82.3267C38.1024 81.9027 36.152 81.1253 34.4106 79.9947L30.0918 83.528L26.4697 80.56L30.9974 77.168C29.7435 75.7547 28.6987 74.1293 27.9325 72.3627L22.3599 76.32V71.3733L26.7483 68.052C26.609 67.204 26.5393 66.356 26.5393 65.4373V62.2573L21.5937 65.72V60.7733L26.4697 57.0987V50.9507L21.5937 54.4133V49.4667L26.4697 45.792V39.644L21.5937 43.1067V38.16L26.8179 34.2027C28.4201 26.3587 35.2464 20.4933 43.466 20.4933H62.4823C71.886 20.4933 79.4786 28.196 79.4786 37.736V65.4373H79.409Z" fill="#F4F4F4"/>
<path d="M62.6913 24.7334H41.7942C35.6644 24.7334 30.6491 29.8214 30.6491 36.0401V66.4267C30.6491 72.6454 35.6644 77.7334 41.7942 77.7334H62.6913C68.8211 77.7334 73.8364 72.6454 73.8364 66.4267V36.0401C73.8364 29.8214 68.8211 24.7334 62.6913 24.7334ZM58.6512 59.6427C57.5367 60.6321 56.1435 61.2681 54.4718 61.5507V65.5787H51.1282V61.6214C48.8296 61.4094 46.8095 60.4907 45.2074 59.0774L46.6702 55.7561C48.4813 57.2401 50.5013 57.9467 52.7303 57.9467C53.6359 57.9467 54.4021 57.7347 55.029 57.2401C55.6559 56.7454 56.0042 56.2507 56.0042 55.6147C56.0042 55.1907 55.8649 54.7667 55.5166 54.4841C55.1683 54.1307 54.8201 53.9187 54.4021 53.7774C54.0538 53.6361 53.4966 53.4947 52.8697 53.2827C51.8248 53.0001 50.9889 52.7881 50.2923 52.5054C49.5958 52.2934 48.8992 51.9401 48.133 51.4454C47.3668 51.0214 46.8095 50.3854 46.4612 49.6787C46.1129 48.9721 45.904 48.1241 45.904 47.1347C45.904 45.5801 46.3916 44.3787 47.3668 43.4601C48.342 42.5414 49.5958 41.9054 51.1979 41.6227V37.9481H54.5414V41.6934C56.3525 41.9054 58.0243 42.5414 59.4871 43.6014L57.9546 46.9227C57.0491 46.3574 56.2132 45.9334 55.447 45.6507C54.6807 45.4387 53.7752 45.2974 52.7303 45.2974C52.0338 45.2974 51.4069 45.4387 50.9193 45.7921C50.4317 46.1454 50.153 46.4987 50.153 46.9934C50.153 47.6294 50.362 48.0534 50.8496 48.4067C51.3372 48.6894 52.1034 49.0427 53.2179 49.3254C55.3077 49.8201 57.0491 50.5974 58.3029 51.5161C59.5567 52.5054 60.2533 53.7774 60.2533 55.5441C60.2533 57.3107 59.7657 58.6534 58.6512 59.6427ZM70.3536 64.3067L68.2639 69.2534C68.2639 69.2534 68.2639 46.6401 68.2639 40.2801C68.2639 33.9201 63.3879 30.3867 59.905 30.3867C56.4222 30.3867 38.3113 30.3867 38.3113 30.3867L41.0976 28.2667C41.0976 28.2667 56.4222 28.2667 61.9947 28.2667C67.5673 28.2667 71.0501 33.2134 71.0501 39.5734C71.0501 44.5201 70.3536 64.3067 70.3536 64.3067Z" fill="#F4F4F4"/>
<path d="M111.423 43.6721C109.264 41.4814 108.219 38.8667 108.219 35.8281C108.219 32.7894 109.264 30.1747 111.423 27.9841C113.583 25.7934 116.09 24.7334 119.085 24.7334C122.011 24.7334 124.519 25.7934 126.678 27.9134L126.191 28.4081C124.17 26.4294 121.802 25.4401 119.085 25.4401C116.299 25.4401 113.861 26.4294 111.911 28.4787C109.891 30.5281 108.916 33.0014 108.916 35.8281C108.916 38.7254 109.891 41.1987 111.911 43.1774C113.931 45.2267 116.299 46.2161 119.085 46.2161C120.618 46.2161 122.011 45.9334 123.335 45.2974C124.658 44.6614 125.842 43.8134 126.748 42.6827L127.235 43.1067C125.076 45.5801 122.359 46.8521 119.085 46.8521C116.16 46.9227 113.583 45.8627 111.423 43.6721Z" fill="#F4F4F4"/>
<path d="M144.371 46.64V41.6933C143.883 43.248 142.978 44.4493 141.724 45.5093C140.401 46.4986 139.007 46.9933 137.405 46.9933C135.316 46.9933 133.574 46.216 132.042 44.5906C130.579 42.9653 129.813 41.0573 129.813 38.796C129.813 36.5346 130.579 34.6266 132.042 33.0013C133.504 31.376 135.316 30.5986 137.405 30.5986C139.007 30.5986 140.401 31.0933 141.724 32.0826C143.047 33.072 143.883 34.344 144.371 35.8986V30.952H144.998V46.64H144.371ZM132.529 33.4253C131.206 34.9093 130.509 36.676 130.509 38.796C130.509 40.8453 131.206 42.6826 132.529 44.1666C133.853 45.6506 135.525 46.3573 137.405 46.3573C139.356 46.3573 140.958 45.6506 142.351 44.1666C143.744 42.6826 144.371 40.916 144.371 38.796C144.371 36.7466 143.674 34.9093 142.351 33.4253C140.958 31.9413 139.356 31.2346 137.405 31.2346C135.455 31.164 133.853 31.9413 132.529 33.4253Z" fill="#F4F4F4"/>
<path d="M157.258 30.5281V31.1641C155.307 31.1641 153.705 31.8001 152.521 33.0014C151.267 34.2027 150.64 35.6867 150.64 37.3827V46.6401H150.013V30.8814H150.64V34.6267C151.964 31.8707 154.123 30.5281 157.258 30.5281Z" fill="#F4F4F4"/>
<path d="M161.507 44.5201C159.904 42.8947 159.138 40.9867 159.138 38.7254C159.138 36.4641 159.904 34.5561 161.507 32.9307C163.109 31.3054 164.989 30.5281 167.149 30.5281C169.308 30.5281 171.259 31.3054 172.791 32.9307C174.393 34.5561 175.159 36.4641 175.159 38.7254C175.159 40.9867 174.393 42.8947 172.791 44.5201C171.189 46.1454 169.308 46.9227 167.149 46.9227C164.989 46.9227 163.039 46.1454 161.507 44.5201ZM161.925 33.4254C160.462 34.9094 159.765 36.6761 159.765 38.7961C159.765 40.8454 160.462 42.6827 161.925 44.1667C163.387 45.6507 165.129 46.3574 167.149 46.3574C169.169 46.3574 170.91 45.6507 172.373 44.1667C173.836 42.6827 174.532 40.9161 174.532 38.7961C174.532 36.7467 173.836 34.9094 172.373 33.4254C170.91 31.9414 169.169 31.2347 167.149 31.2347C165.129 31.2347 163.387 31.9414 161.925 33.4254Z" fill="#F4F4F4"/>
<path d="M179.408 46.6401V24.7334H180.035V46.6401H179.408Z" fill="#F4F4F4"/>
<path d="M184.842 26.9948C184.702 26.8535 184.633 26.7121 184.633 26.5001C184.633 26.2881 184.702 26.1468 184.842 26.0055C184.981 25.8641 185.12 25.7935 185.329 25.7935C185.538 25.7935 185.678 25.8641 185.817 26.0055C185.956 26.1468 186.026 26.2881 186.026 26.5001C186.026 26.7121 185.956 26.8535 185.817 26.9948C185.678 27.1361 185.538 27.2068 185.329 27.2068C185.19 27.2068 185.051 27.1361 184.842 26.9948ZM185.051 46.6401V30.8815H185.678V46.6401H185.051Z" fill="#F4F4F4"/>
<path d="M190.693 46.6401V30.8814H191.32V34.2734C192.434 31.8001 194.385 30.5281 197.31 30.5281C199.052 30.5281 200.445 31.0227 201.42 31.9414C202.465 32.8601 202.952 34.3441 202.952 36.2521V46.6401H202.395V36.3227C202.395 32.8601 200.723 31.1641 197.38 31.1641C195.639 31.1641 194.176 31.7294 193.061 32.8601C191.947 33.9907 191.389 35.2627 191.389 36.6761V46.6401H190.693Z" fill="#F4F4F4"/>
<path d="M221.76 38.7254V39.0081H207.55C207.62 41.0574 208.386 42.7534 209.779 44.1667C211.242 45.5801 212.913 46.2867 214.934 46.2867C216.954 46.2867 218.625 45.5801 219.949 44.0961L220.436 44.5907C218.974 46.1454 217.163 46.9227 215.003 46.9227C212.774 46.9227 210.893 46.1454 209.361 44.5201C207.759 42.8947 206.993 40.9867 206.993 38.7254C206.993 36.4641 207.689 34.5561 209.152 32.9307C210.615 31.3054 212.356 30.5281 214.446 30.5281C216.466 30.5281 218.207 31.3054 219.67 32.9307C220.994 34.5561 221.76 36.4641 221.76 38.7254ZM214.376 31.1641C212.496 31.1641 210.963 31.8707 209.64 33.2841C208.316 34.6974 207.62 36.3934 207.55 38.4427H221.063C220.994 36.3934 220.297 34.6974 219.043 33.2841C217.72 31.8707 216.187 31.1641 214.376 31.1641Z" fill="#F4F4F4"/>
<path d="M108.637 80.5602V59.0068H124.519V62.9642H113.234V67.3455H122.847V71.3028H113.234V80.4895H108.637V80.5602Z" fill="#F4F4F4"/>
<path d="M126.26 59.6429C126.26 58.9362 126.539 58.3002 127.026 57.7349C127.514 57.2402 128.141 56.9575 128.837 56.9575C129.534 56.9575 130.161 57.2402 130.718 57.7349C131.206 58.2295 131.484 58.8655 131.484 59.6429C131.484 60.3495 131.206 60.9855 130.718 61.4802C130.231 61.9749 129.604 62.2575 128.837 62.2575C128.141 62.2575 127.514 61.9749 127.026 61.4802C126.539 60.9855 126.26 60.3495 126.26 59.6429ZM126.678 80.5602V63.9535H131.067V80.5602H126.678Z" fill="#F4F4F4"/>
<path d="M134.967 80.56V63.9533H139.356V66.144C140.61 64.448 142.281 63.6707 144.441 63.6707C146.6 63.6707 148.132 64.3067 148.968 65.6493C149.804 66.992 150.222 68.9 150.222 71.444V80.56H145.834V71.9387C145.834 70.5253 145.625 69.4653 145.277 68.9C144.928 68.264 144.162 67.9813 142.978 67.9813C141.863 67.9813 140.958 68.4053 140.261 69.1827C139.565 69.96 139.216 71.02 139.216 72.292V80.56H134.967Z" fill="#F4F4F4"/>
<path d="M155.168 78.3694C153.775 76.7441 153.078 74.6948 153.078 72.2214C153.078 69.8188 153.775 67.7694 155.168 66.0734C156.561 64.3774 158.372 63.6001 160.601 63.6001C162.621 63.6001 164.293 64.4481 165.547 66.1441V63.9534H169.935V80.5601H165.547V78.3694C164.293 80.0654 162.691 80.8428 160.601 80.8428C158.372 80.8428 156.561 80.0654 155.168 78.3694ZM158.86 69.1121C158.093 69.8894 157.745 70.9494 157.745 72.2214C157.745 73.4934 158.093 74.5534 158.86 75.3308C159.556 76.1081 160.531 76.5321 161.716 76.5321C162.83 76.5321 163.805 76.1081 164.502 75.3308C165.198 74.5534 165.616 73.4934 165.616 72.2214C165.616 70.9494 165.268 69.8894 164.502 69.1121C163.805 68.3348 162.83 67.9108 161.716 67.9108C160.531 67.9108 159.556 68.3348 158.86 69.1121Z" fill="#F4F4F4"/>
<path d="M173.836 80.56V63.9533H178.224V66.144C179.478 64.448 181.15 63.6707 183.309 63.6707C185.469 63.6707 187.001 64.3067 187.837 65.6493C188.673 66.992 189.091 68.9 189.091 71.444V80.56H184.702V71.9387C184.702 70.5253 184.493 69.4653 184.145 68.9C183.797 68.264 183.031 67.9813 181.846 67.9813C180.732 67.9813 179.826 68.4053 179.13 69.1827C178.433 69.96 178.085 71.02 178.085 72.292V80.56H173.836Z" fill="#F4F4F4"/>
<path d="M191.459 80.5602V77.3802L196.823 70.7375L199.121 67.9108H191.738V64.0242H204.833V67.3455L199.679 73.6348L197.171 76.6735H205.251V80.5602H191.459Z" fill="#F4F4F4"/>
<path d="M208.525 78.3694C207.132 76.7441 206.435 74.6948 206.435 72.2214C206.435 69.8188 207.132 67.7694 208.525 66.0734C209.918 64.3774 211.729 63.6001 213.958 63.6001C215.978 63.6001 217.65 64.4481 218.904 66.1441V63.9534H223.292V80.5601H218.904V78.3694C217.65 80.0654 216.048 80.8428 213.958 80.8428C211.729 80.8428 209.918 80.0654 208.525 78.3694ZM212.217 69.1121C211.451 69.8894 211.102 70.9494 211.102 72.2214C211.102 73.4934 211.451 74.5534 212.217 75.3308C212.913 76.1081 213.889 76.5321 215.073 76.5321C216.187 76.5321 217.163 76.1081 217.859 75.3308C218.556 74.5534 218.974 73.4934 218.974 72.2214C218.974 70.9494 218.625 69.8894 217.859 69.1121C217.163 68.3348 216.187 67.9108 215.073 67.9108C213.889 67.9108 212.913 68.3348 212.217 69.1121Z" fill="#F4F4F4"/>
<path d="M226.427 78.5813L227.959 75.3307C229.77 76.532 231.442 77.168 233.114 77.168C233.811 77.168 234.437 77.0267 234.995 76.744C235.552 76.4613 235.9 76.0373 235.9 75.5427C235.9 74.9067 234.925 74.3413 232.975 73.9173C231.094 73.4933 229.701 72.8573 228.726 72.1507C227.75 71.444 227.263 70.3133 227.263 68.8293C227.263 67.204 227.89 66.0027 229.213 65.084C230.537 64.1653 231.999 63.6707 233.602 63.6707C235.552 63.6707 237.572 64.236 239.592 65.296L238.06 68.5467C236.666 67.84 235.134 67.416 233.602 67.416C233.114 67.416 232.626 67.5573 232.208 67.7693C231.79 67.9813 231.582 68.3347 231.582 68.7587C231.582 69.324 232.348 69.8187 233.88 70.1013C234.786 70.3133 235.552 70.4547 236.179 70.7373C236.875 70.9493 237.502 71.3027 238.199 71.7267C238.826 72.1507 239.383 72.6453 239.731 73.2813C240.08 73.9173 240.289 74.624 240.289 75.472C240.289 76.4613 240.08 77.3093 239.592 78.016C239.104 78.7227 238.547 79.3587 237.781 79.712C237.015 80.136 236.249 80.4187 235.482 80.56C234.716 80.7013 233.88 80.8427 233.114 80.8427C231.999 80.8427 230.955 80.7013 229.91 80.348C228.865 79.9947 228.099 79.712 227.611 79.4293C227.123 79.1467 226.706 78.864 226.427 78.5813Z" fill="#F4F4F4"/>
</svg>
