<?xml version="1.0" encoding="utf-8"?>
<!-- Generator: Adobe Illustrator 25.2.1, SVG Export Plug-In . SVG Version: 6.00 Build 0)  -->
<svg version="1.1" id="Capa_1" xmlns="http://www.w3.org/2000/svg" xmlns:xlink="http://www.w3.org/1999/xlink" x="0px" y="0px"
	 viewBox="0 0 488 400" style="enable-background:new 0 0 488 400;" xml:space="preserve">
<style type="text/css">
	.st0{fill:#FFD169;}
	.st1{fill:#FFE993;}
	.st2{fill:#FFFFFF;}
</style>
<g>
	<circle class="st0" cx="236" cy="194.5" r="171"/>
	<path d="M236,366.5c-94.8,0-172-77.2-172-172s77.2-172,172-172s172,77.2,172,172S330.8,366.5,236,366.5z M236,24.5
		c-93.7,0-170,76.3-170,170s76.3,170,170,170s170-76.3,170-170S329.7,24.5,236,24.5z"/>
</g>
<g>
	<circle class="st1" cx="262.5" cy="190.5" r="171"/>
	<path d="M262.5,362.5c-94.8,0-172-77.2-172-172s77.2-172,172-172s172,77.2,172,172S357.3,362.5,262.5,362.5z M262.5,20.5
		c-93.7,0-170,76.3-170,170s76.3,170,170,170s170-76.3,170-170S356.2,20.5,262.5,20.5z"/>
</g>
<g>
	<path d="M261,324.5c-73.6,0-133.5-59.9-133.5-133.5S187.4,57.5,261,57.5S394.5,117.4,394.5,191S334.6,324.5,261,324.5z M261,59.5
		c-72.5,0-131.5,59-131.5,131.5s59,131.5,131.5,131.5s131.5-59,131.5-131.5S333.5,59.5,261,59.5z"/>
</g>
<g>
	<path class="st2" d="M367,229c-0.2,0-0.5,0-0.7-0.1c-1.3-0.4-2.1-1.8-1.7-3.1c0.1-0.4,10.6-37.6-3.9-73.4
		c-20.3-50-74.7-64.4-75.3-64.5c-1.3-0.3-2.1-1.7-1.8-3c0.3-1.3,1.7-2.1,3-1.8c0.6,0.1,14.5,3.7,31.3,13.8
		c15.5,9.3,36.3,26.2,47.4,53.7c15.2,37.4,4.5,75,4.1,76.6C369.1,228.3,368.1,229,367,229z"/>
</g>
<g>
	<path d="M270.5,267.5H236v-2h34.5c20.1,0,36.5-16.4,36.5-36.5s-16.4-36.5-36.5-36.5h-18c-21.8,0-39.5-17.7-39.5-39.5
		s17.7-39.5,39.5-39.5H286v2h-33.5c-20.7,0-37.5,16.8-37.5,37.5s16.8,37.5,37.5,37.5h18c21.2,0,38.5,17.3,38.5,38.5
		S291.7,267.5,270.5,267.5z"/>
</g>
<g>
	<rect x="261" y="99.4" transform="matrix(0.999 -4.367413e-02 4.367413e-02 0.999 -8.0918 11.6249)" width="2" height="183.2"/>
</g>
</svg>
