<?xml version="1.0" encoding="utf-8"?>
<!-- Generator: Adobe Illustrator 25.2.1, SVG Export Plug-In . SVG Version: 6.00 Build 0)  -->
<svg version="1.1" id="Capa_1" xmlns="http://www.w3.org/2000/svg" xmlns:xlink="http://www.w3.org/1999/xlink" x="0px" y="0px"
	 viewBox="0 0 5428.4 5656.9" style="enable-background:new 0 0 5428.4 5656.9;" xml:space="preserve">
<style type="text/css">
	.st0{fill:#9494E4;}
	.st1{fill:#FFFFFF;}
	.st2{fill:#A4A4FF;}
	.st3{fill:#E6E7E8;}
	.st4{fill:#121011;}
</style>
<g>
	<g>
		<path class="st0" d="M4321.2,1025.6c0,0,66-389,198-638s403-470,660-169L4321.2,1025.6z"/>
		<path class="st1" d="M4316,1035.3l1.7-10.3c0.2-1,16.9-98.9,49.6-225.9c30.2-117.3,80.5-284.2,148.8-413.1
			c43.6-82.2,98.1-154.3,157.8-208.6c32.6-29.7,66.5-53.7,100.6-71.3c36.7-19,74-30.6,110.8-34.7c49.8-5.5,99.2,2.9,146.9,25
			c51.7,23.9,102.1,64.3,149.7,120l2.2,2.5L4316,1035.3z M4915.2,76.7c-9.7,0-19.3,0.5-29.1,1.6c-132.3,14.6-268.3,130.8-363.8,311
			c-68,128.3-118.1,294.6-148.2,411.5c-26.5,102.9-42.4,186.6-47.6,215l847.9-797.5C5093.2,124.2,5006.1,76.7,4915.2,76.7z"/>
	</g>
	<g>
		<path class="st0" d="M1116.9,4795.8l-708.5-967.6c-683.7-933.7-481-2244.8,452.7-2928.5l234.1-162c8-5.9,428.6-19.5,434.5-11.5
			l3083.2,4084.6c5.9,8,4.1,19.3-3.9,25.1l-563.6,412.7C3111.7,5932.2,1800.6,5729.5,1116.9,4795.8z"/>
		<path class="st1" d="M2809.6,5656.9c-107.9,0-216.1-8.3-322.7-24.8c-132.7-20.5-264.1-53.9-390.3-99.2
			c-127.4-45.7-250.8-104.1-366.8-173.3c-118.1-70.5-229.6-153.2-331.4-245.6c-104.5-94.8-200.2-201.2-284.3-316.1l-708.5-967.6
			c-84.1-114.9-156.6-238.2-215.5-366.5c-57.4-125-102.5-256.3-134.1-390.1c-31-131.4-49.4-266.7-54.5-402
			c-5.1-134,2.8-269.3,23.3-402c20.5-132.7,53.9-264.1,99.2-390.3c45.7-127.4,104.1-250.8,173.3-366.8
			c70.5-118.1,153.2-229.6,245.6-331.4c94.8-104.5,201.2-200.2,316.1-284.3l234.2-162.1c1.3-1,3.7-2.7,72.3-6
			c40.1-2,93.9-4,147.7-5.6c57-1.7,109.3-2.7,147.3-3c69-0.4,70.6,1.7,72.1,3.8l3083.2,4084.5c3.4,4.7,4.8,10.3,3.9,16
			s-3.9,10.7-8.5,14l-563.6,412.7c-114.9,84.1-238.2,156.6-366.5,215.5c-125,57.4-256.3,102.5-390.1,134.1
			c-131.4,31-266.7,49.4-402,54.5C2862.5,5656.4,2836,5656.9,2809.6,5656.9z M1119.7,4793.7c330.1,450.8,816,746.1,1368.2,831.5
			c552.2,85.4,1104.6-49.4,1555.4-379.5L4607,4833c3.1-2.3,5.2-5.6,5.8-9.5s-0.3-7.6-2.6-10.8L1527.4,728.9
			c-9.8-2.7-97.7-2.1-215.6,1.3c-110.9,3.3-206.8,8-214.8,10.5L863.1,902.5C-67.5,1583.9-270.2,2895.4,411.2,3826.1L1119.7,4793.7z
			 M1097.3,740.5l-0.1,0.1C1097.2,740.5,1097.2,740.5,1097.3,740.5z M1526.9,728.2C1526.9,728.3,1527,728.3,1526.9,728.2
			L1526.9,728.2z"/>
	</g>
	<g>
		
			<ellipse transform="matrix(0.7524 -0.6587 0.6587 0.7524 -1139.9442 2564.0334)" class="st2" cx="2840.4" cy="2798.2" rx="1908.6" ry="2699.2"/>
		<path class="st1" d="M3595.2,5190.2c-113.5,0-230-9.8-347.3-29.2c-147.6-24.4-298.4-64.5-448.3-118.9
			c-147.2-53.5-295-121.4-439.3-201.9c-142.9-79.7-283.7-172.5-418.4-275.6c-134.7-103.2-264.4-217.7-385.5-340.3
			c-122.3-123.8-236.9-256.9-340.7-395.7c-105.7-141.4-201.2-290.1-283.9-442c-84.8-155.9-157.2-317.1-215.1-479.2
			c-64.5-180.6-110.9-361.5-137.7-537.7c-26.1-171.4-34.1-339.8-23.6-500.4c10.3-157.8,38.4-308.9,83.5-449.2
			c44.8-139.4,106.6-268.6,183.7-384.1c61.3-91.8,132.7-175.6,212.3-249.1c80.5-74.3,170.5-139,267.3-192.2
			c200.8-110.4,431.4-173,685.4-185.9c144.1-7.3,294,1.7,445.4,26.8c147.6,24.4,298.4,64.5,448.3,118.9
			c147.2,53.5,295,121.4,439.3,201.9c142.9,79.7,283.7,172.5,418.4,275.6c134.7,103.2,264.4,217.7,385.5,340.3
			c122.3,123.8,236.9,256.9,340.7,395.7c105.7,141.4,201.2,290.1,283.9,442c84.8,155.9,157.2,317.1,215.1,479.2
			c64.5,180.6,110.9,361.5,137.7,537.7c26.1,171.4,34.1,339.8,23.6,500.4c-10.3,157.8-38.4,308.9-83.5,449.2
			c-44.8,139.4-106.6,268.6-183.7,384.1c-61.3,91.8-132.7,175.6-212.3,249.1c-80.5,74.3-170.5,139-267.3,192.2
			c-200.8,110.4-431.4,173-685.4,185.9C3660.9,5189.4,3628.1,5190.2,3595.2,5190.2z M2085.7,413.2c-32.7,0-65.3,0.8-97.8,2.5
			C1491.8,441,1080,662.6,828.3,1039.8C509,1518.5,470.7,2198.4,723.2,2905.1c456.6,1277.7,1728.5,2278.2,2871.9,2278.2
			c32.7,0,65.3-0.8,97.8-2.5c496.1-25.3,907.9-246.9,1159.5-624.1c319.4-478.7,357.7-1158.5,105.1-1865.2
			C4501,1413.7,3229.1,413.2,2085.7,413.2z"/>
	</g>
	<g>
		
			<ellipse transform="matrix(0.7524 -0.6587 0.6587 0.7524 -1139.1914 2584.7966)" class="st3" cx="2868.4" cy="2807.6" rx="1451" ry="2072.5"/>
		<path class="st1" d="M3461.1,4640.1c-89.1,0-180.6-7.9-272.8-23.7c-112.8-19.3-228.2-50.4-342.9-92.6
			c-112.6-41.4-225.8-93.9-336.3-156c-109.5-61.5-217.3-133-320.6-212.4c-103.2-79.4-202.7-167.5-295.7-261.7
			c-93.9-95.1-181.9-197.4-261.7-303.9c-166-221.7-295.4-459.3-384.6-706.4c-50.1-138.7-86.2-277.6-107.4-412.8
			c-20.6-131.6-27.2-260.7-19.6-383.8c7.4-120.9,28.6-236.7,62.9-344c34-106.6,81.1-205.4,140-293.4
			c94.3-141.1,216.9-253.4,364.5-333.8c152.7-83.2,328.1-129.9,521.4-138.8c110.1-5.1,224.6,2.4,340.4,22.1
			c112.8,19.3,228.2,50.4,342.9,92.6c112.6,41.4,225.8,93.9,336.3,156c109.5,61.5,217.3,133,320.6,212.4
			c103.2,79.4,202.7,167.4,295.7,261.7c93.9,95.1,181.9,197.4,261.7,303.9c166,221.7,295.4,459.3,384.6,706.4
			c50.1,138.7,86.2,277.6,107.4,412.8c20.6,131.6,27.2,260.7,19.6,383.8c-7.4,120.9-28.6,236.7-62.9,344
			c-34,106.6-81.1,205.4-140,293.4c-94.3,141.1-216.9,253.4-364.5,333.8c-152.7,83.2-328.1,129.9-521.4,138.8
			C3506.3,4639.6,3483.7,4640.1,3461.1,4640.1z M2275.8,982.2c-22.5,0-44.9,0.5-67.3,1.5c-377,17.4-689.7,184.1-880.4,469.5
			C1084.4,1818,1057,2338.4,1253,2881c363.5,1006.3,1384.1,1791.6,2275.2,1750.5c377-17.4,689.7-184.1,880.4-469.5
			c243.7-364.7,271.1-885.1,75.1-1427.8C4129.4,1753.2,3150.4,982.2,2275.8,982.2z"/>
	</g>
	<g>
		
			<ellipse transform="matrix(0.7524 -0.6587 0.6587 0.7524 -1145.5192 2598.1079)" class="st2" cx="2882.9" cy="2822.7" rx="1031" ry="1485.8"/>
		<path class="st1" d="M3315.5,4134.3c-143,0-292.1-28.6-444-85.1c-80.5-30-161.4-67.8-240.5-112.6
			c-78.3-44.3-155.5-95.7-229.5-152.8C2251.5,3668,2117,3531.5,2002,3378c-119.2-158.9-212.3-329.1-276.7-505.9
			c-36.3-99.5-62.6-199.1-78.1-296.1c-15.1-94.3-20.2-186.8-15-274.9c5-86.6,19.9-169.4,44.3-246.1c24.2-76.2,57.7-146.7,99.8-209.6
			c67-100.1,154.1-179.6,259.1-236.3c108.6-58.7,233.4-91.3,371-97.1c156.3-6.5,320.6,21.8,488.2,84.2
			c80.5,30,161.4,67.8,240.5,112.6c78.3,44.3,155.5,95.7,229.5,152.8c150,115.8,284.5,252.4,399.5,405.8
			c119.2,158.9,212.3,329.1,276.7,505.9c36.3,99.5,62.6,199.1,78.1,296.1c15.1,94.3,20.2,186.8,15,274.9
			c-5,86.6-19.9,169.4-44.3,246.1c-24.2,76.2-57.7,146.7-99.8,209.6c-67,100.1-154.1,179.6-259.1,236.3
			c-108.6,58.7-233.4,91.3-371,97.1C3345,4134,3330.3,4134.3,3315.5,4134.3z M2450.3,1518.1c-14.7,0-29.2,0.3-43.8,0.9
			c-267.7,11.2-489.5,128.5-624.5,330.3c-173.7,259.5-192,631.4-50.2,1020.4c127.1,348.5,366.4,671.2,674,908.6
			c307.4,237.3,646,360.9,953.6,348.1c267.7-11.2,489.5-128.5,624.5-330.3c173.7-259.5,192-631.4,50.2-1020.4
			c-127.1-348.5-366.4-671.2-674-908.6C3067.2,1641,2745.9,1518.1,2450.3,1518.1z"/>
	</g>
	<g>
		
			<ellipse transform="matrix(0.7524 -0.6587 0.6587 0.7524 -1150.2981 2586.957)" class="st3" cx="2865.7" cy="2823.5" rx="564.1" ry="813"/>
		<path class="st1" d="M3102.4,3542.7c-78.4,0-160.2-15.7-243.5-46.7c-88.7-33-175.3-81.9-257.6-145.4
			c-82.2-63.5-155.9-138.3-218.9-222.4c-65.3-87.1-116.3-180.4-151.6-277.2c-78.2-214.4-68-419.7,28-563.2
			c36.8-55,84.7-98.6,142.3-129.8c59.6-32.2,128.1-50.2,203.7-53.3c85.7-3.6,175.8,12,267.7,46.2c88.7,33,175.3,81.9,257.6,145.4
			c82.2,63.5,155.9,138.3,218.9,222.4c65.3,87.1,116.3,180.4,151.6,277.2c78.2,214.4,68,419.7-28,563.2
			c-36.8,55-84.7,98.6-142.3,129.8c-59.6,32.2-128.1,50.2-203.7,53.3C3118.6,3542.5,3110.5,3542.7,3102.4,3542.7z M2629,2111.2
			c-8,0-15.9,0.2-23.9,0.5c-145.9,6.1-266.9,70-340.5,180c-94.7,141.6-104.7,344.6-27.3,556.9c69.4,190.4,200.2,366.7,368.2,496.5
			c160,123.5,335.4,190.6,496.9,190.6c8,0,15.9-0.2,23.9-0.5c146-6.1,266.9-70,340.5-180c94.7-141.6,104.7-344.6,27.3-556.9
			c-69.4-190.4-200.2-366.7-368.2-496.5C2965.9,2178.4,2790.4,2111.2,2629,2111.2z"/>
	</g>
	<g>
		
			<ellipse transform="matrix(0.8048 -0.5936 0.5936 0.8048 -1115.2123 2248.0732)" class="st2" cx="2860.2" cy="2819.5" rx="165.8" ry="231.2"/>
		<path class="st1" d="M2918.8,3033.5c-44.2,0-91.5-18-134.7-51.5c-47.7-37-84.7-88.7-104.3-145.4c-22.5-65.1-18.8-128.1,10.2-172.9
			c21.6-33.4,56.2-53.8,97.4-57.5c48.2-4.3,101.1,13.7,149,50.9c47.7,37,84.7,88.7,104.3,145.4c22.5,65.1,18.8,128.1-10.2,172.9
			c-21.6,33.4-56.2,53.8-97.4,57.5C2928.3,3033.3,2923.6,3033.5,2918.8,3033.5z M2801.5,2612.5c-4.5,0-9,0.2-13.5,0.6
			c-39.6,3.6-71.5,22.4-92.2,54.4c-27.8,43-31.3,103.8-9.5,166.8c37.7,109,139.8,192.2,232.5,192.2c4.5,0,9-0.2,13.5-0.6
			c39.6-3.6,71.5-22.4,92.2-54.4c27.8-43,31.3-103.8,9.5-166.8C2996.4,2695.7,2894.3,2612.5,2801.5,2612.5z"/>
	</g>
	<g>
		<path class="st4" d="M2816.1,2687L5226.1,40.6c43.6-47.9,118.4-49.6,164.2-3.8l1.2,1.2c42.9,42.9,44.5,111.9,3.6,156.7
			L2983.9,2839.9c-44.9,49.3-122.5,49.4-167.6,0.2l0,0C2776.6,2796.8,2776.5,2730.4,2816.1,2687z"/>
		<path class="st1" d="M2900,2880.4c-32.7,0-64.2-13.8-86.3-37.9c-19.8-21.6-30.7-49.6-30.8-78.9s10.8-57.3,30.5-79l2.6,2.4
			l-2.6-2.4L5223.5,38.2c21.7-23.9,51.5-37.4,83.8-38.2c32.3-0.8,62.6,11.4,85.5,34.2l1.2,1.2c44.3,44.3,45.9,115.3,3.7,161.6
			L2986.5,2842.2c-22.1,24.2-53.5,38.1-86.3,38.2C2900.1,2880.4,2900,2880.4,2900,2880.4z M5310.1,7c-0.9,0-1.8,0-2.7,0
			c-30.4,0.7-58.3,13.5-78.8,35.9L2818.6,2689.3c-38.6,42.4-38.5,106.2,0.2,148.4c20.8,22.7,50.3,35.7,81.1,35.7c0.1,0,0.1,0,0.2,0
			c30.8,0,60.4-13.1,81.2-35.9L5392.6,192.4c39.7-43.5,38.1-110.3-3.5-151.9l-1.2-1.2C5367,18.4,5339.5,7,5310.1,7z"/>
	</g>
	<g>
		<path class="st0" d="M4452.2,1136.6l756-859c0,0,267.6,253.4-15,536C4907.2,1099.6,4452.2,1136.6,4452.2,1136.6z"/>
		<path class="st1" d="M4443.9,1140.8L5208,272.6l2.6,2.5c0.3,0.3,28.8,27.5,57.1,73c26.1,42,57.5,108.7,58.6,188.1
			c1.3,97.8-42.6,192-130.6,280c-65.5,65.5-145.3,123.3-237.3,171.7c-73.5,38.8-154.9,71.7-241.9,97.9
			c-148.1,44.6-262.8,54.3-264,54.4L4443.9,1140.8z M5208.4,282.7l-747.7,849.5c29.5-3.2,129.9-15.9,253.9-53.3
			c136-40.9,328.9-120.6,476.1-267.8c86.6-86.6,129.8-179.1,128.5-274.9c-1-77.6-31.8-143.1-57.4-184.3
			C5239,315.1,5215.9,290.4,5208.4,282.7z"/>
	</g>
</g>
</svg>
