<svg width="196" height="201" viewBox="0 0 196 201" fill="none" xmlns="http://www.w3.org/2000/svg">
<circle cx="147.083" cy="48.5" r="48" fill="#D3E6FE"/>
<mask id="path-2-outside-1_82_470" maskUnits="userSpaceOnUse" x="9.53326" y="50.3287" width="140" height="141" fill="black">
<rect fill="white" x="9.53326" y="50.3287" width="140" height="141"/>
<path fill-rule="evenodd" clip-rule="evenodd" d="M143.996 52.9115C144.867 52.5949 145.856 52.7532 146.608 53.2676C147.359 53.782 147.834 54.6524 147.874 55.6021V85.832C147.874 86.7817 147.399 87.6522 146.647 88.1666C146.172 88.5227 145.618 88.6809 145.025 88.6809C144.669 88.6809 144.352 88.6414 144.036 88.5227L130.029 83.4184V84.1306C130.029 87.4148 127.338 90.1054 124.054 90.1054H86.8995C83.6154 90.1054 80.9248 87.4148 80.9248 84.1306V57.3035C80.9248 54.0194 83.6154 51.3287 86.8995 51.3287H124.014C127.298 51.3287 129.989 54.0194 129.989 57.3035V58.0157L143.996 52.9115ZM124.054 87.3356C125.834 87.3356 127.259 85.9112 127.259 84.1306V57.3035C127.259 55.5229 125.834 54.0985 124.054 54.0985H86.9391C85.1585 54.0985 83.7341 55.5229 83.7341 57.3035V84.1306C83.7341 85.9112 85.1585 87.3356 86.9391 87.3356H124.054ZM145.025 85.9112C145.065 85.8716 145.065 85.832 145.065 85.832V55.6021C145.065 55.5853 145.065 55.5756 145.061 55.567C145.057 55.5554 145.048 55.5457 145.025 55.5229H144.946L130.029 60.9438V80.4904L144.946 85.9112C144.961 85.9112 144.97 85.917 144.978 85.9219C144.991 85.9299 145 85.9356 145.025 85.9112ZM133.59 98.2168C133.59 97.465 134.223 96.8319 134.975 96.8319C135.726 96.8319 136.36 97.465 136.36 98.2168V158.479C136.36 162.436 133.155 165.641 129.198 165.641H89.4715V187.007C89.4715 187.047 89.4616 187.077 89.4517 187.106C89.4418 187.136 89.4319 187.166 89.4319 187.205H101.54C102.291 187.205 102.925 187.838 102.925 188.59C102.925 189.342 102.291 189.975 101.54 189.975H42.5834C41.8316 189.975 41.1985 189.342 41.1985 188.59C41.1985 187.838 41.8316 187.205 42.5834 187.205H56.2739C56.2343 187.126 56.2343 187.087 56.2343 187.007V165.641H17.6951C13.7383 165.641 10.5333 162.436 10.5333 158.479V82.2313C10.5333 78.2745 13.7383 75.0695 17.6951 75.0695H73.2486C74.0004 75.0695 74.6334 75.7026 74.6334 76.4544C74.6334 77.2062 74.0004 77.8392 73.2486 77.8392H17.6951C15.2814 77.8392 13.303 79.8176 13.303 82.2313V145.896H133.59V98.2168ZM58.9645 187.245H86.7017V187.047V165.68H59.0041V187.047C59.0041 187.087 58.9942 187.116 58.9843 187.146C58.9744 187.176 58.9645 187.205 58.9645 187.245ZM17.6951 162.91H129.158C131.611 162.91 133.59 160.932 133.59 158.518V148.666H13.303V158.518C13.303 160.932 15.2814 162.91 17.6951 162.91ZM115.388 106.13C115.388 105.379 114.755 104.746 114.004 104.746H73.6442C72.8924 104.746 72.2593 105.379 72.2593 106.13C72.2593 106.882 72.8924 107.515 73.6442 107.515H114.004C114.755 107.515 115.388 106.882 115.388 106.13ZM71.8637 129.476C71.8637 128.724 72.4968 128.091 73.2486 128.091H102.529C103.281 128.091 103.914 128.724 103.914 129.476C103.914 130.227 103.281 130.86 102.529 130.86H73.2486C72.4968 130.86 71.8637 130.227 71.8637 129.476ZM65.335 139.565C66.0867 139.565 66.7198 138.932 66.7198 138.18V127.497C66.7198 121.483 61.853 116.616 55.8386 116.616H32.0978C26.0835 116.616 21.2166 121.483 21.2166 127.497V137.389C21.2166 138.141 21.8497 138.774 22.6015 138.774C23.3533 138.774 23.9864 138.141 23.9864 137.389V127.497C23.9864 123.026 27.6266 119.386 32.0978 119.386H55.7991C60.2702 119.386 63.9105 123.026 63.9105 127.497V138.18C63.9501 138.932 64.5436 139.565 65.335 139.565ZM43.7704 85.7528C49.666 85.7528 54.4537 90.5405 54.4537 96.4361C54.4537 102.332 49.666 107.119 43.7704 107.119C37.8747 107.119 33.087 102.332 33.087 96.4361C33.087 90.5405 37.8747 85.7528 43.7704 85.7528ZM43.7704 88.5225C39.4179 88.5225 35.8568 92.0836 35.8568 96.4361C35.8568 100.789 39.4179 104.35 43.7704 104.35C48.1229 104.35 51.684 100.789 51.684 96.4361C51.684 92.0836 48.1229 88.5225 43.7704 88.5225Z"/>
</mask>
<path fill-rule="evenodd" clip-rule="evenodd" d="M143.996 52.9115C144.867 52.5949 145.856 52.7532 146.608 53.2676C147.359 53.782 147.834 54.6524 147.874 55.6021V85.832C147.874 86.7817 147.399 87.6522 146.647 88.1666C146.172 88.5227 145.618 88.6809 145.025 88.6809C144.669 88.6809 144.352 88.6414 144.036 88.5227L130.029 83.4184V84.1306C130.029 87.4148 127.338 90.1054 124.054 90.1054H86.8995C83.6154 90.1054 80.9248 87.4148 80.9248 84.1306V57.3035C80.9248 54.0194 83.6154 51.3287 86.8995 51.3287H124.014C127.298 51.3287 129.989 54.0194 129.989 57.3035V58.0157L143.996 52.9115ZM124.054 87.3356C125.834 87.3356 127.259 85.9112 127.259 84.1306V57.3035C127.259 55.5229 125.834 54.0985 124.054 54.0985H86.9391C85.1585 54.0985 83.7341 55.5229 83.7341 57.3035V84.1306C83.7341 85.9112 85.1585 87.3356 86.9391 87.3356H124.054ZM145.025 85.9112C145.065 85.8716 145.065 85.832 145.065 85.832V55.6021C145.065 55.5853 145.065 55.5756 145.061 55.567C145.057 55.5554 145.048 55.5457 145.025 55.5229H144.946L130.029 60.9438V80.4904L144.946 85.9112C144.961 85.9112 144.97 85.917 144.978 85.9219C144.991 85.9299 145 85.9356 145.025 85.9112ZM133.59 98.2168C133.59 97.465 134.223 96.8319 134.975 96.8319C135.726 96.8319 136.36 97.465 136.36 98.2168V158.479C136.36 162.436 133.155 165.641 129.198 165.641H89.4715V187.007C89.4715 187.047 89.4616 187.077 89.4517 187.106C89.4418 187.136 89.4319 187.166 89.4319 187.205H101.54C102.291 187.205 102.925 187.838 102.925 188.59C102.925 189.342 102.291 189.975 101.54 189.975H42.5834C41.8316 189.975 41.1985 189.342 41.1985 188.59C41.1985 187.838 41.8316 187.205 42.5834 187.205H56.2739C56.2343 187.126 56.2343 187.087 56.2343 187.007V165.641H17.6951C13.7383 165.641 10.5333 162.436 10.5333 158.479V82.2313C10.5333 78.2745 13.7383 75.0695 17.6951 75.0695H73.2486C74.0004 75.0695 74.6334 75.7026 74.6334 76.4544C74.6334 77.2062 74.0004 77.8392 73.2486 77.8392H17.6951C15.2814 77.8392 13.303 79.8176 13.303 82.2313V145.896H133.59V98.2168ZM58.9645 187.245H86.7017V187.047V165.68H59.0041V187.047C59.0041 187.087 58.9942 187.116 58.9843 187.146C58.9744 187.176 58.9645 187.205 58.9645 187.245ZM17.6951 162.91H129.158C131.611 162.91 133.59 160.932 133.59 158.518V148.666H13.303V158.518C13.303 160.932 15.2814 162.91 17.6951 162.91ZM115.388 106.13C115.388 105.379 114.755 104.746 114.004 104.746H73.6442C72.8924 104.746 72.2593 105.379 72.2593 106.13C72.2593 106.882 72.8924 107.515 73.6442 107.515H114.004C114.755 107.515 115.388 106.882 115.388 106.13ZM71.8637 129.476C71.8637 128.724 72.4968 128.091 73.2486 128.091H102.529C103.281 128.091 103.914 128.724 103.914 129.476C103.914 130.227 103.281 130.86 102.529 130.86H73.2486C72.4968 130.86 71.8637 130.227 71.8637 129.476ZM65.335 139.565C66.0867 139.565 66.7198 138.932 66.7198 138.18V127.497C66.7198 121.483 61.853 116.616 55.8386 116.616H32.0978C26.0835 116.616 21.2166 121.483 21.2166 127.497V137.389C21.2166 138.141 21.8497 138.774 22.6015 138.774C23.3533 138.774 23.9864 138.141 23.9864 137.389V127.497C23.9864 123.026 27.6266 119.386 32.0978 119.386H55.7991C60.2702 119.386 63.9105 123.026 63.9105 127.497V138.18C63.9501 138.932 64.5436 139.565 65.335 139.565ZM43.7704 85.7528C49.666 85.7528 54.4537 90.5405 54.4537 96.4361C54.4537 102.332 49.666 107.119 43.7704 107.119C37.8747 107.119 33.087 102.332 33.087 96.4361C33.087 90.5405 37.8747 85.7528 43.7704 85.7528ZM43.7704 88.5225C39.4179 88.5225 35.8568 92.0836 35.8568 96.4361C35.8568 100.789 39.4179 104.35 43.7704 104.35C48.1229 104.35 51.684 100.789 51.684 96.4361C51.684 92.0836 48.1229 88.5225 43.7704 88.5225Z" fill="#0D2C5E"/>
<path d="M146.608 53.2676L147.172 52.4423L147.172 52.4423L146.608 53.2676ZM143.996 52.9115L143.654 51.9717L143.654 51.9719L143.996 52.9115ZM147.874 55.6021H148.874V55.5813L148.873 55.5605L147.874 55.6021ZM146.647 88.1666L146.083 87.3413L146.065 87.3535L146.047 87.3666L146.647 88.1666ZM144.036 88.5227L144.387 87.5863L144.378 87.5831L144.036 88.5227ZM130.029 83.4184L130.371 82.4788L129.029 81.9897V83.4184H130.029ZM129.989 58.0157H128.989V59.4445L130.331 58.9553L129.989 58.0157ZM145.025 85.9112L144.318 85.2039L144.318 85.204L145.025 85.9112ZM145.061 55.567L144.118 55.8997L144.119 55.9001L145.061 55.567ZM145.025 55.5229L145.732 54.8157L145.439 54.5229H145.025V55.5229ZM144.946 55.5229V54.5229H144.77L144.604 54.5831L144.946 55.5229ZM130.029 60.9438L129.687 60.0039L129.029 60.2432V60.9438H130.029ZM130.029 80.4904H129.029V81.191L129.687 81.4302L130.029 80.4904ZM144.946 85.9112L144.604 86.851L144.77 86.9112H144.946V85.9112ZM144.978 85.9219L144.452 86.7725L144.453 86.7726L144.978 85.9219ZM89.4715 165.641V164.641H88.4715V165.641H89.4715ZM89.4319 187.205H88.4319V188.205H89.4319V187.205ZM56.2739 187.205V188.205H57.8918L57.1683 186.758L56.2739 187.205ZM56.2343 165.641H57.2343V164.641H56.2343V165.641ZM13.303 145.896H12.303V146.896H13.303V145.896ZM133.59 145.896V146.896H134.59V145.896H133.59ZM86.7017 187.245V188.245H87.7017V187.245H86.7017ZM58.9645 187.245H57.9645V188.245H58.9645V187.245ZM86.7017 165.68H87.7017V164.68H86.7017V165.68ZM59.0041 165.68V164.68H58.0041V165.68H59.0041ZM133.59 148.666H134.59V147.666H133.59V148.666ZM13.303 148.666V147.666H12.303V148.666H13.303ZM63.9105 138.18H62.9105V138.207L62.9119 138.233L63.9105 138.18ZM147.172 52.4423C146.175 51.7598 144.85 51.5368 143.654 51.9717L144.338 53.8512C144.883 53.6531 145.537 53.7465 146.043 54.0929L147.172 52.4423ZM148.873 55.5605C148.821 54.3086 148.195 53.1419 147.172 52.4423L146.043 54.0929C146.524 54.422 146.848 54.9963 146.875 55.6437L148.873 55.5605ZM148.874 85.832V55.6021H146.874V85.832H148.874ZM147.212 88.9919C148.233 88.2934 148.874 87.1158 148.874 85.832H146.874C146.874 86.4476 146.565 87.011 146.083 87.3413L147.212 88.9919ZM145.025 89.6809C145.803 89.6809 146.575 89.4704 147.247 88.9666L146.047 87.3666C145.769 87.5749 145.434 87.6809 145.025 87.6809V89.6809ZM143.685 89.459C144.147 89.6325 144.591 89.6809 145.025 89.6809V87.6809C144.746 87.6809 144.557 87.6502 144.387 87.5863L143.685 89.459ZM129.686 84.358L143.693 89.4622L144.378 87.5831L130.371 82.4788L129.686 84.358ZM131.029 84.1306V83.4184H129.029V84.1306H131.029ZM124.054 91.1054C127.89 91.1054 131.029 87.9671 131.029 84.1306H129.029C129.029 86.8625 126.786 89.1054 124.054 89.1054V91.1054ZM86.8995 91.1054H124.054V89.1054H86.8995V91.1054ZM79.9248 84.1306C79.9248 87.9671 83.0631 91.1054 86.8995 91.1054V89.1054C84.1677 89.1054 81.9248 86.8625 81.9248 84.1306H79.9248ZM79.9248 57.3035V84.1306H81.9248V57.3035H79.9248ZM86.8995 50.3287C83.0631 50.3287 79.9248 53.4671 79.9248 57.3035H81.9248C81.9248 54.5716 84.1677 52.3287 86.8995 52.3287V50.3287ZM124.014 50.3287H86.8995V52.3287H124.014V50.3287ZM130.989 57.3035C130.989 53.4671 127.851 50.3287 124.014 50.3287V52.3287C126.746 52.3287 128.989 54.5716 128.989 57.3035H130.989ZM130.989 58.0157V57.3035H128.989V58.0157H130.989ZM143.654 51.9719L129.647 57.0762L130.331 58.9553L144.339 53.851L143.654 51.9719ZM126.259 84.1306C126.259 85.3589 125.282 86.3356 124.054 86.3356V88.3356C126.387 88.3356 128.259 86.4635 128.259 84.1306H126.259ZM126.259 57.3035V84.1306H128.259V57.3035H126.259ZM124.054 55.0985C125.282 55.0985 126.259 56.0752 126.259 57.3035H128.259C128.259 54.9707 126.387 53.0985 124.054 53.0985V55.0985ZM86.9391 55.0985H124.054V53.0985H86.9391V55.0985ZM84.7341 57.3035C84.7341 56.0752 85.7108 55.0985 86.9391 55.0985V53.0985C84.6063 53.0985 82.7341 54.9707 82.7341 57.3035H84.7341ZM84.7341 84.1306V57.3035H82.7341V84.1306H84.7341ZM86.9391 86.3356C85.7108 86.3356 84.7341 85.3589 84.7341 84.1306H82.7341C82.7341 86.4635 84.6063 88.3356 86.9391 88.3356V86.3356ZM124.054 86.3356H86.9391V88.3356H124.054V86.3356ZM145.065 85.832C144.065 85.832 144.065 85.8316 144.065 85.8311C144.065 85.8309 144.065 85.8304 144.065 85.8301C144.065 85.8294 144.065 85.8288 144.065 85.8281C144.065 85.8268 144.065 85.8255 144.065 85.8242C144.065 85.8216 144.065 85.8189 144.065 85.8163C144.065 85.811 144.065 85.8056 144.065 85.8003C144.065 85.7895 144.066 85.7785 144.067 85.7673C144.068 85.7449 144.071 85.7216 144.074 85.6974C144.081 85.6492 144.092 85.5962 144.111 85.5405C144.149 85.4256 144.216 85.3063 144.318 85.2039L145.732 86.6184C145.874 86.4765 145.96 86.3177 146.008 86.1731C146.032 86.1025 146.046 86.0372 146.054 85.9803C146.058 85.9518 146.061 85.925 146.062 85.9004C146.063 85.888 146.064 85.8761 146.064 85.8648C146.064 85.8591 146.064 85.8535 146.064 85.848C146.064 85.8453 146.064 85.8426 146.064 85.84C146.065 85.8386 146.065 85.8373 146.065 85.836C146.065 85.8353 146.065 85.8347 146.065 85.834C146.065 85.8337 146.065 85.8332 146.065 85.833C146.065 85.8325 146.065 85.832 145.065 85.832ZM144.065 55.6021V85.832H146.065V55.6021H144.065ZM144.119 55.9001C144.079 55.789 144.07 55.6959 144.066 55.6492C144.065 55.6268 144.065 55.61 144.065 55.6046C144.065 55.5997 144.065 55.596 144.065 55.6021H146.065C146.065 55.5997 146.065 55.5885 146.064 55.5768C146.064 55.5646 146.064 55.5417 146.062 55.5138C146.058 55.4558 146.047 55.3536 146.004 55.2339L144.119 55.9001ZM144.318 56.2302C144.325 56.2374 144.325 56.2369 144.323 56.2352C144.321 56.2336 144.309 56.2206 144.292 56.2013C144.257 56.1605 144.174 56.0575 144.118 55.8997L146.005 55.2343C145.945 55.0649 145.855 54.9512 145.808 54.897C145.786 54.871 145.766 54.8505 145.756 54.8404C145.746 54.8301 145.736 54.8198 145.732 54.8157L144.318 56.2302ZM144.946 56.5229H145.025V54.5229H144.946V56.5229ZM130.37 61.8836L145.287 56.4628L144.604 54.5831L129.687 60.0039L130.37 61.8836ZM131.029 80.4904V60.9438H129.029V80.4904H131.029ZM145.287 84.9713L130.37 79.5505L129.687 81.4302L144.604 86.851L145.287 84.9713ZM145.504 85.0713C145.475 85.0532 145.26 84.9112 144.946 84.9112V86.9112C144.818 86.9112 144.7 86.8852 144.598 86.8449C144.509 86.8099 144.443 86.7665 144.452 86.7725L145.504 85.0713ZM144.318 85.204C144.34 85.1823 144.547 84.9644 144.91 84.9325C145.288 84.8993 145.567 85.1102 145.504 85.0712L144.453 86.7726C144.453 86.7726 144.457 86.7755 144.463 86.7787C144.468 86.7822 144.478 86.7877 144.489 86.7943C144.511 86.807 144.551 86.8285 144.603 86.85C144.715 86.8969 144.882 86.9427 145.085 86.9249C145.462 86.8917 145.686 86.6645 145.732 86.6183L144.318 85.204ZM134.975 95.8319C133.671 95.8319 132.59 96.9127 132.59 98.2168H134.59C134.59 98.0173 134.775 97.8319 134.975 97.8319V95.8319ZM137.36 98.2168C137.36 96.9127 136.279 95.8319 134.975 95.8319V97.8319C135.174 97.8319 135.36 98.0173 135.36 98.2168H137.36ZM137.36 158.479V98.2168H135.36V158.479H137.36ZM129.198 166.641C133.707 166.641 137.36 162.988 137.36 158.479H135.36C135.36 161.883 132.602 164.641 129.198 164.641V166.641ZM89.4715 166.641H129.198V164.641H89.4715V166.641ZM90.4715 187.007V165.641H88.4715V187.007H90.4715ZM90.4003 187.423C90.4104 187.392 90.4715 187.225 90.4715 187.007H88.4715C88.4715 186.869 88.5127 186.761 88.503 186.79L90.4003 187.423ZM90.4319 187.205C90.4319 187.344 90.3906 187.452 90.4003 187.423L88.503 186.79C88.493 186.82 88.4319 186.987 88.4319 187.205H90.4319ZM101.54 186.205H89.4319V188.205H101.54V186.205ZM103.925 188.59C103.925 187.286 102.844 186.205 101.54 186.205V188.205C101.739 188.205 101.925 188.391 101.925 188.59H103.925ZM101.54 190.975C102.844 190.975 103.925 189.894 103.925 188.59H101.925C101.925 188.79 101.739 188.975 101.54 188.975V190.975ZM42.5834 190.975H101.54V188.975H42.5834V190.975ZM40.1985 188.59C40.1985 189.894 41.2793 190.975 42.5834 190.975V188.975C42.3838 188.975 42.1985 188.79 42.1985 188.59H40.1985ZM42.5834 186.205C41.2793 186.205 40.1985 187.286 40.1985 188.59H42.1985C42.1985 188.391 42.3838 188.205 42.5834 188.205V186.205ZM56.2739 186.205H42.5834V188.205H56.2739V186.205ZM55.2343 187.007C55.2343 187.027 55.2318 187.144 55.2529 187.271C55.2781 187.422 55.3272 187.548 55.3794 187.652L57.1683 186.758C57.1731 186.768 57.1843 186.791 57.196 186.825C57.2085 186.861 57.2188 186.901 57.2257 186.942C57.2322 186.981 57.2338 187.011 57.2342 187.022C57.2345 187.029 57.2343 187.032 57.2343 187.007H55.2343ZM55.2343 165.641V187.007H57.2343V165.641H55.2343ZM17.6951 166.641H56.2343V164.641H17.6951V166.641ZM9.53326 158.479C9.53326 162.988 13.186 166.641 17.6951 166.641V164.641C14.2906 164.641 11.5333 161.883 11.5333 158.479H9.53326ZM9.53326 82.2313V158.479H11.5333V82.2313H9.53326ZM17.6951 74.0695C13.186 74.0695 9.53326 77.7222 9.53326 82.2313H11.5333C11.5333 78.8268 14.2906 76.0695 17.6951 76.0695V74.0695ZM73.2486 74.0695H17.6951V76.0695H73.2486V74.0695ZM75.6334 76.4544C75.6334 75.1503 74.5526 74.0695 73.2486 74.0695V76.0695C73.4481 76.0695 73.6334 76.2549 73.6334 76.4544H75.6334ZM73.2486 78.8392C74.5526 78.8392 75.6334 77.7584 75.6334 76.4544H73.6334C73.6334 76.6539 73.4481 76.8392 73.2486 76.8392V78.8392ZM17.6951 78.8392H73.2486V76.8392H17.6951V78.8392ZM14.303 82.2313C14.303 80.3699 15.8337 78.8392 17.6951 78.8392V76.8392C14.7291 76.8392 12.303 79.2654 12.303 82.2313H14.303ZM14.303 145.896V82.2313H12.303V145.896H14.303ZM133.59 144.896H13.303V146.896H133.59V144.896ZM132.59 98.2168V145.896H134.59V98.2168H132.59ZM86.7017 186.245H58.9645V188.245H86.7017V186.245ZM85.7017 187.047V187.245H87.7017V187.047H85.7017ZM85.7017 165.68V187.047H87.7017V165.68H85.7017ZM59.0041 166.68H86.7017V164.68H59.0041V166.68ZM60.0041 187.047V165.68H58.0041V187.047H60.0041ZM59.933 187.462C59.943 187.432 60.0041 187.265 60.0041 187.047H58.0041C58.0041 186.908 58.0454 186.8 58.0356 186.83L59.933 187.462ZM59.9645 187.245C59.9645 187.384 59.9232 187.491 59.933 187.462L58.0356 186.83C58.0256 186.86 57.9645 187.027 57.9645 187.245H59.9645ZM129.158 161.91H17.6951V163.91H129.158V161.91ZM132.59 158.518C132.59 160.374 131.065 161.91 129.158 161.91V163.91C132.158 163.91 134.59 161.49 134.59 158.518H132.59ZM132.59 148.666V158.518H134.59V148.666H132.59ZM13.303 149.666H133.59V147.666H13.303V149.666ZM14.303 158.518V148.666H12.303V158.518H14.303ZM17.6951 161.91C15.8337 161.91 14.303 160.38 14.303 158.518H12.303C12.303 161.484 14.7291 163.91 17.6951 163.91V161.91ZM114.004 105.746C114.203 105.746 114.388 105.931 114.388 106.13H116.388C116.388 104.826 115.308 103.746 114.004 103.746V105.746ZM73.6442 105.746H114.004V103.746H73.6442V105.746ZM73.2593 106.13C73.2593 105.931 73.4447 105.746 73.6442 105.746V103.746C72.3401 103.746 71.2593 104.826 71.2593 106.13H73.2593ZM73.6442 106.515C73.4447 106.515 73.2593 106.33 73.2593 106.13H71.2593C71.2593 107.434 72.3401 108.515 73.6442 108.515V106.515ZM114.004 106.515H73.6442V108.515H114.004V106.515ZM114.388 106.13C114.388 106.33 114.203 106.515 114.004 106.515V108.515C115.308 108.515 116.388 107.434 116.388 106.13H114.388ZM73.2486 127.091C71.9445 127.091 70.8637 128.172 70.8637 129.476H72.8637C72.8637 129.276 73.0491 129.091 73.2486 129.091V127.091ZM102.529 127.091H73.2486V129.091H102.529V127.091ZM104.914 129.476C104.914 128.172 103.833 127.091 102.529 127.091V129.091C102.728 129.091 102.914 129.276 102.914 129.476H104.914ZM102.529 131.86C103.833 131.86 104.914 130.78 104.914 129.476H102.914C102.914 129.675 102.728 129.86 102.529 129.86V131.86ZM73.2486 131.86H102.529V129.86H73.2486V131.86ZM70.8637 129.476C70.8637 130.78 71.9445 131.86 73.2486 131.86V129.86C73.0491 129.86 72.8637 129.675 72.8637 129.476H70.8637ZM65.7198 138.18C65.7198 138.38 65.5345 138.565 65.335 138.565V140.565C66.639 140.565 67.7198 139.485 67.7198 138.18H65.7198ZM65.7198 127.497V138.18H67.7198V127.497H65.7198ZM55.8386 117.616C61.3007 117.616 65.7198 122.035 65.7198 127.497H67.7198C67.7198 120.93 62.4053 115.616 55.8386 115.616V117.616ZM32.0978 117.616H55.8386V115.616H32.0978V117.616ZM22.2166 127.497C22.2166 122.035 26.6358 117.616 32.0978 117.616V115.616C25.5312 115.616 20.2166 120.93 20.2166 127.497H22.2166ZM22.2166 137.389V127.497H20.2166V137.389H22.2166ZM22.6015 137.774C22.402 137.774 22.2166 137.589 22.2166 137.389H20.2166C20.2166 138.693 21.2974 139.774 22.6015 139.774V137.774ZM22.9864 137.389C22.9864 137.589 22.801 137.774 22.6015 137.774V139.774C23.9056 139.774 24.9864 138.693 24.9864 137.389H22.9864ZM22.9864 127.497V137.389H24.9864V127.497H22.9864ZM32.0978 118.386C27.0743 118.386 22.9864 122.474 22.9864 127.497H24.9864C24.9864 123.578 28.1789 120.386 32.0978 120.386V118.386ZM55.7991 118.386H32.0978V120.386H55.7991V118.386ZM64.9105 127.497C64.9105 122.474 60.8225 118.386 55.7991 118.386V120.386C59.718 120.386 62.9105 123.578 62.9105 127.497H64.9105ZM64.9105 138.18V127.497H62.9105V138.18H64.9105ZM65.335 138.565C65.1231 138.565 64.9233 138.397 64.9091 138.128L62.9119 138.233C62.9768 139.467 63.9641 140.565 65.335 140.565V138.565ZM55.4537 96.4361C55.4537 89.9882 50.2183 84.7528 43.7704 84.7528V86.7528C49.1137 86.7528 53.4537 91.0928 53.4537 96.4361H55.4537ZM43.7704 108.119C50.2183 108.119 55.4537 102.884 55.4537 96.4361H53.4537C53.4537 101.779 49.1137 106.119 43.7704 106.119V108.119ZM32.087 96.4361C32.087 102.884 37.3225 108.119 43.7704 108.119V106.119C38.427 106.119 34.087 101.779 34.087 96.4361H32.087ZM43.7704 84.7528C37.3225 84.7528 32.087 89.9882 32.087 96.4361H34.087C34.087 91.0928 38.427 86.7528 43.7704 86.7528V84.7528ZM36.8568 96.4361C36.8568 92.6359 39.9702 89.5225 43.7704 89.5225V87.5225C38.8656 87.5225 34.8568 91.5314 34.8568 96.4361H36.8568ZM43.7704 103.35C39.9702 103.35 36.8568 100.236 36.8568 96.4361H34.8568C34.8568 101.341 38.8656 105.35 43.7704 105.35V103.35ZM50.684 96.4361C50.684 100.236 47.5706 103.35 43.7704 103.35V105.35C48.6751 105.35 52.684 101.341 52.684 96.4361H50.684ZM43.7704 89.5225C47.5706 89.5225 50.684 92.6359 50.684 96.4361H52.684C52.684 91.5314 48.6751 87.5225 43.7704 87.5225V89.5225Z" fill="#0D2C5E" mask="url(#path-2-outside-1_82_470)"/>
</svg>
