<?xml version="1.0" encoding="utf-8"?>
<!-- Generator: Adobe Illustrator 25.2.1, SVG Export Plug-In . SVG Version: 6.00 Build 0)  -->
<svg version="1.1" id="Capa_1" xmlns="http://www.w3.org/2000/svg" xmlns:xlink="http://www.w3.org/1999/xlink" x="0px" y="0px"
	 viewBox="0 0 341.8 65.8" style="enable-background:new 0 0 341.8 65.8;" xml:space="preserve">
<style type="text/css">
	.st0{clip-path:url(#SVGID_2_);}
	.st1{fill:#FFFFFF;}
	.st2{fill:url(#SVGID_5_);}
	.st3{fill:url(#SVGID_6_);}
	.st4{font-family:'Poppins-Medium';}
	.st5{font-size:25.91px;}
</style>
<g>
	<g>
		<defs>
			<circle id="SVGID_1_" cx="32.5" cy="32.5" r="32.5"/>
		</defs>
		<clipPath id="SVGID_2_">
			<use xlink:href="#SVGID_1_"  style="overflow:visible;"/>
		</clipPath>
		<g class="st0">
			<defs>
				<rect id="SVGID_3_" x="-2.4" y="-2.4" width="69.7" height="69.7"/>
			</defs>
			<clipPath id="SVGID_4_">
				<use xlink:href="#SVGID_3_"  style="overflow:visible;"/>
			</clipPath>
			<g style="clip-path:url(#SVGID_4_);">
				
					<image style="overflow:visible;" width="304" height="303" xlink:href="32B30DD7.jpg"  transform="matrix(0.2308 0 0 0.2308 -2.6257 -2.5899)">
				</image>
			</g>
		</g>
	</g>
	<g>
		<g>
			<path class="st1" d="M32.5,15.7c5.5,0,6.1,0,8.3,0.1c2,0.1,3.1,0.4,3.8,0.7c1,0.4,1.6,0.8,2.3,1.5c0.7,0.7,1.2,1.4,1.5,2.3
				c0.3,0.7,0.6,1.8,0.7,3.8c0.1,2.2,0.1,2.8,0.1,8.3s0,6.1-0.1,8.3c-0.1,2-0.4,3.1-0.7,3.8c-0.4,1-0.8,1.6-1.5,2.3
				c-0.7,0.7-1.4,1.2-2.3,1.5c-0.7,0.3-1.8,0.6-3.8,0.7c-2.2,0.1-2.8,0.1-8.3,0.1c-5.5,0-6.1,0-8.3-0.1c-2-0.1-3.1-0.4-3.8-0.7
				c-1-0.4-1.6-0.8-2.3-1.5c-0.7-0.7-1.2-1.4-1.5-2.3c-0.3-0.7-0.6-1.8-0.7-3.8c-0.1-2.2-0.1-2.8-0.1-8.3s0-6.1,0.1-8.3
				c0.1-2,0.4-3.1,0.7-3.8c0.4-1,0.8-1.6,1.5-2.3c0.7-0.7,1.4-1.2,2.3-1.5c0.7-0.3,1.8-0.6,3.8-0.7C26.4,15.7,27,15.7,32.5,15.7
				 M32.5,12c-5.6,0-6.2,0-8.4,0.1c-2.2,0.1-3.7,0.4-5,0.9c-1.3,0.5-2.5,1.2-3.6,2.4c-1.1,1.1-1.8,2.3-2.4,3.6
				c-0.5,1.3-0.9,2.8-0.9,5C12,26.2,12,26.9,12,32.5c0,5.6,0,6.2,0.1,8.4c0.1,2.2,0.4,3.7,0.9,5c0.5,1.3,1.2,2.5,2.4,3.6
				c1.1,1.1,2.3,1.8,3.6,2.4c1.3,0.5,2.8,0.9,5,0.9c2.2,0.1,2.9,0.1,8.4,0.1c5.6,0,6.2,0,8.4-0.1c2.2-0.1,3.7-0.4,5-0.9
				c1.3-0.5,2.5-1.2,3.6-2.4c1.1-1.1,1.8-2.3,2.4-3.6c0.5-1.3,0.9-2.8,0.9-5c0.1-2.2,0.1-2.9,0.1-8.4s0-6.2-0.1-8.4
				c-0.1-2.2-0.4-3.7-0.9-5c-0.5-1.3-1.2-2.5-2.4-3.6c-1.1-1.1-2.3-1.8-3.6-2.4c-1.3-0.5-2.8-0.9-5-0.9C38.7,12,38,12,32.5,12
				L32.5,12z"/>
			<path class="st1" d="M32.5,22C26.7,22,22,26.7,22,32.5S26.7,43,32.5,43C38.3,43,43,38.3,43,32.5S38.3,22,32.5,22z M32.5,39.3
				c-3.8,0-6.8-3.1-6.8-6.8s3.1-6.8,6.8-6.8s6.8,3.1,6.8,6.8S36.2,39.3,32.5,39.3z"/>
			<circle class="st1" cx="43.4" cy="21.6" r="2.5"/>
		</g>
	</g>
</g>
<linearGradient id="SVGID_5_" gradientUnits="userSpaceOnUse" x1="40.2266" y1="65.3766" x2="53.0451" y2="46.5725">
	<stop  offset="3.643457e-02" style="stop-color:#5353D3"/>
	<stop  offset="1" style="stop-color:#C21E91"/>
</linearGradient>
<path class="st2" d="M64.1,65.7C81.9,52.1,85.3,26.7,71.8,9c-2.2-2.9-4.8-5.4-7.6-7.6h-6.8C75,14.9,78.5,40.2,64.9,58
	c-2.2,2.9-4.8,5.5-7.7,7.7l0,0l5.2,0.1h-2.9L64.1,65.7z"/>
<linearGradient id="SVGID_6_" gradientUnits="userSpaceOnUse" x1="330.1366" y1="33.2397" x2="52.3805" y2="33.8222">
	<stop  offset="3.643457e-02" style="stop-color:#5353D3"/>
	<stop  offset="0.8961" style="stop-color:#C21E91"/>
</linearGradient>
<path class="st3" d="M66.2,1.3h-2C81.9,14.9,85.3,40.2,71.8,58c-2.2,2.9-4.8,5.4-7.6,7.6l0,0l245.5,0.1c17.8,0,32.2-14.4,32.2-32.2
	c0,0,0,0,0,0l0,0c0-17.8-14.4-32.2-32.2-32.2c0,0,0,0,0,0H66.2z"/>
<text transform="matrix(1 0 0 1 90.3799 41.7801)" class="st1 st4 st5">@contraloria.nl</text>
</svg>
