<?xml version="1.0" encoding="utf-8"?>
<!-- Generator: Adobe Illustrator 25.2.1, SVG Export Plug-In . SVG Version: 6.00 Build 0)  -->
<svg version="1.1" id="Capa_1" xmlns="http://www.w3.org/2000/svg" xmlns:xlink="http://www.w3.org/1999/xlink" x="0px" y="0px"
	 viewBox="0 0 1624 671" style="enable-background:new 0 0 1624 671;" xml:space="preserve">
<path d="M348,652L348,652c-13.3,0-24-10.7-24-24V353c0-13.3,10.7-24,24-24h0c13.3,0,24,10.7,24,24v275C372,641.3,361.3,652,348,652z
	"/>
<path d="M252,597L252,597c-13.3,0-24-10.7-24-24V403c0-13.3,10.7-24,24-24h0c13.3,0,24,10.7,24,24v170C276,586.3,265.3,597,252,597z
	"/>
<path d="M160,570L160,570c-13.3,0-24-10.7-24-24V432c0-13.3,10.7-24,24-24h0c13.3,0,24,10.7,24,24v114C184,559.3,173.3,570,160,570z
	"/>
<path d="M76,529L76,529c-13.3,0-24-10.7-24-24v-37c0-13.3,10.7-24,24-24h0c13.3,0,24,10.7,24,24v37C100,518.3,89.3,529,76,529z"/>
<path d="M1279,652L1279,652c13.3,0,24-10.7,24-24V353c0-13.3-10.7-24-24-24l0,0c-13.3,0-24,10.7-24,24v275
	C1255,641.3,1265.7,652,1279,652z"/>
<path d="M1375,597L1375,597c13.3,0,24-10.7,24-24V403c0-13.3-10.7-24-24-24l0,0c-13.3,0-24,10.7-24,24v170
	C1351,586.3,1361.7,597,1375,597z"/>
<path d="M1050,657L1050,657c15.4,0,27.9-12.5,27.9-27.9V344.9c0-15.4-12.5-27.9-27.9-27.9l0,0c-15.4,0-27.9,12.5-27.9,27.9v284.3
	C1022.1,644.5,1034.6,657,1050,657z"/>
<path d="M573,657L573,657c15.4,0,27.9-12.5,27.9-27.9V344.9c0-15.4-12.5-27.9-27.9-27.9l0,0c-15.4,0-27.9,12.5-27.9,27.9v284.3
	C545.1,644.5,557.6,657,573,657z"/>
<path d="M1467,570L1467,570c13.3,0,24-10.7,24-24V432c0-13.3-10.7-24-24-24l0,0c-13.3,0-24,10.7-24,24v114
	C1443,559.3,1453.7,570,1467,570z"/>
<path d="M1551,529L1551,529c13.3,0,24-10.7,24-24v-37c0-13.3-10.7-24-24-24l0,0c-13.3,0-24,10.7-24,24v37
	C1527,518.3,1537.7,529,1551,529z"/>
<path d="M1217.5,492.5c0-65.2-39.4-121.1-95.8-145.3c-6.4-165-142.2-296.9-308.7-296.9h0c-163.2,0-296.8,126.4-308.2,286.7
	C446.3,360.3,405,417.3,405,484c0,66.4,41,123.2,99,146.6v1.8l31,9.2v-1.2V361.8c0-153,124-277,277-277h0c153,0,277,124,277,277
	v287.8l11.3-4.4C1167.8,627.2,1217.5,565.7,1217.5,492.5z"/>
<g>
	<path d="M620.9,175.1c2.5-3.5-4,5.2-3.7,4.7c0.9-1.2,1.9-2.3,2.8-3.5c3.5-4.2,7.3-8.2,11.1-12.1c5.9-5.9,12.1-11.5,18.6-16.7
		c0.9-0.8,1.9-1.5,2.9-2.3c0.5-0.4,1.1-0.8,1.6-1.3c0.6-0.5-7.1,5.4-4.1,3.1c2.1-1.6,4.2-3.2,6.3-4.7c4.6-3.3,9.3-6.5,14.1-9.5
		c12.6-7.9,25.7-14.7,39.4-20.4c-2.4,1-4.8,2-7.2,3c23.8-10,48.9-16.7,74.5-20.2c-2.7,0.4-5.3,0.7-8,1.1c28.5-3.8,57.5-3.8,86,0
		c-2.7-0.4-5.3-0.7-8-1.1c24.9,3.4,49.3,10,72.5,19.7c-2.4-1-4.8-2-7.2-3c13.4,5.7,26.4,12.4,38.8,20.1c5.4,3.3,10.6,6.9,15.7,10.6
		c2.5,1.8,11.5,9,1.8,1.2c2.3,1.8,4.6,3.7,6.9,5.5c12.5,10.4,24.3,21.9,34.5,34.6c0.4,0.5,0.9,1.1,1.3,1.6c2.5,3.1-5.7-7.6-3.5-4.5
		c0.5,0.7,1,1.4,1.5,2.1c0.4,0.6,0.9,1.2,1.3,1.8c8.7,13,26.8,19.9,41,10.8c13-8.4,20.1-27.1,10.8-41
		c-10.7-15.9-24.5-30.3-38.8-42.9C990.2,82.3,950.5,60,907.3,47c-55.8-16.7-116.9-17.5-173.5-4.4c-40.6,9.4-80.3,27.2-113.5,52.5
		c-12,9.1-23.6,18.6-34,29.4c-5.7,5.9-12.3,12.6-16.6,19.6c-0.1,0.2-0.3,0.5-0.5,0.7c-4.3,5.9-4.9,16.3-3,23.1
		c1.9,7,7.3,14.5,13.8,17.9c7,3.7,15.4,5.5,23.1,3C610.8,186.4,616.1,181.8,620.9,175.1L620.9,175.1z"/>
</g>
</svg>
