<svg width="500" height="256" viewBox="0 0 500 256" fill="none" xmlns="http://www.w3.org/2000/svg">
<path d="M127.908 214.45C124.03 214.45 120.91 211.325 120.91 207.44V127.112C120.91 123.227 124.03 120.101 127.908 120.101C131.787 120.101 134.907 123.227 134.907 127.112V207.44C134.907 211.325 131.787 214.45 127.908 214.45Z" fill="#598EF3"/>
<path d="M99.9138 198.384C96.0354 198.384 92.9152 195.259 92.9152 191.374V141.717C92.9152 137.832 96.0354 134.706 99.9138 134.706C103.792 134.706 106.912 137.832 106.912 141.717V191.374C106.912 195.259 103.792 198.384 99.9138 198.384Z" fill="#598EF3"/>
<path d="M73.0858 190.498C69.2075 190.498 66.0872 187.372 66.0872 183.487V150.188C66.0872 146.303 69.2075 143.177 73.0858 143.177C76.9642 143.177 80.0844 146.303 80.0844 150.188V183.487C80.0844 187.372 76.9642 190.498 73.0858 190.498Z" fill="#598EF3"/>
<path d="M48.5908 178.522C44.7124 178.522 41.5922 175.396 41.5922 171.511V160.704C41.5922 156.819 44.7124 153.693 48.5908 153.693C52.4692 153.693 55.5894 156.819 55.5894 160.704V171.511C55.5894 175.396 52.4692 178.522 48.5908 178.522Z" fill="#598EF3"/>
<path d="M399.395 214.45C403.274 214.45 406.394 211.325 406.394 207.44V127.112C406.394 123.227 403.274 120.101 399.395 120.101C395.517 120.101 392.397 123.227 392.397 127.112V207.44C392.397 211.325 395.517 214.45 399.395 214.45Z" fill="#598EF3"/>
<path d="M427.39 198.384C431.268 198.384 434.388 195.259 434.388 191.374V141.717C434.388 137.832 431.268 134.706 427.39 134.706C423.511 134.706 420.391 137.832 420.391 141.717V191.374C420.391 195.259 423.511 198.384 427.39 198.384Z" fill="#598EF3"/>
<path d="M332.617 215.911C337.108 215.911 340.753 212.259 340.753 207.761V124.746C340.753 120.247 337.108 116.596 332.617 116.596C328.126 116.596 324.481 120.247 324.481 124.746V207.79C324.481 212.259 328.126 215.911 332.617 215.911Z" fill="#598EF3"/>
<path d="M193.52 215.911C198.011 215.911 201.656 212.259 201.656 207.761V124.746C201.656 120.247 198.011 116.596 193.52 116.596C189.029 116.596 185.384 120.247 185.384 124.746V207.79C185.384 212.259 189.029 215.911 193.52 215.911Z" fill="#598EF3"/>
<path d="M454.218 190.498C458.096 190.498 461.216 187.372 461.216 183.487V150.188C461.216 146.303 458.096 143.177 454.218 143.177C450.339 143.177 447.219 146.303 447.219 150.188V183.487C447.219 187.372 450.339 190.498 454.218 190.498Z" fill="#598EF3"/>
<path d="M478.713 178.522C482.591 178.522 485.711 175.396 485.711 171.511V160.704C485.711 156.819 482.591 153.693 478.713 153.693C474.834 153.693 471.714 156.819 471.714 160.704V171.511C471.714 175.396 474.834 178.522 478.713 178.522Z" fill="#598EF3"/>
<path d="M381.461 167.86C381.461 148.815 369.972 132.486 353.525 125.418C351.659 77.2208 312.059 38.6926 263.506 38.6926C215.915 38.6926 176.957 75.6142 173.632 122.438C156.573 129.244 144.53 145.894 144.53 165.377C144.53 184.773 156.486 201.364 173.399 208.199V208.725L182.439 211.412V211.062V129.682C182.439 84.9907 218.598 48.7701 263.214 48.7701C307.83 48.7701 343.99 84.9907 343.99 129.682V213.749L347.285 212.464C366.968 207.206 381.461 189.242 381.461 167.86Z" fill="#598EF3"/>
<path d="M207.488 75.1471C208.217 74.1247 206.322 76.666 206.409 76.5199C206.671 76.1694 206.963 75.8481 207.226 75.4976C208.246 74.2707 209.354 73.1023 210.462 71.9631C212.183 70.2397 213.991 68.604 215.886 67.0851C216.149 66.8514 216.44 66.6469 216.732 66.4132C216.878 66.2964 217.053 66.1795 217.199 66.0335C217.373 65.8874 215.128 67.6108 216.003 66.939C216.615 66.4716 217.228 66.0043 217.84 65.5661C219.181 64.6022 220.552 63.6675 221.952 62.7912C225.626 60.4836 229.446 58.4973 233.441 56.8323C232.741 57.1244 232.041 57.4165 231.342 57.7086C238.282 54.7876 245.601 52.8305 253.066 51.8082C252.279 51.925 251.521 52.0126 250.733 52.1295C259.044 51.0195 267.501 51.0195 275.812 52.1295C275.024 52.0126 274.266 51.925 273.479 51.8082C280.74 52.8013 287.855 54.7292 294.62 57.5626C293.921 57.2705 293.221 56.9783 292.521 56.6862C296.428 58.3512 300.219 60.3083 303.835 62.5575C305.41 63.5214 306.926 64.573 308.414 65.6538C309.143 66.1795 311.767 68.2827 308.938 66.0043C309.609 66.5301 310.28 67.0851 310.951 67.6108C314.596 70.6487 318.037 74.0079 321.011 77.7175C321.128 77.8636 321.273 78.0389 321.39 78.1849C322.119 79.0904 319.728 75.9649 320.369 76.8704C320.515 77.0749 320.661 77.2794 320.807 77.4839C320.924 77.6591 321.069 77.8344 321.186 78.0096C323.723 81.807 329.001 83.8225 333.142 81.1643C336.933 78.7107 339.003 73.2484 336.291 69.1882C333.171 64.5438 329.147 60.3375 324.977 56.657C315.179 48.04 303.602 41.5262 291.005 37.7289C274.733 32.8508 256.916 32.6171 240.411 36.4436C228.571 39.1894 216.994 44.3888 207.313 51.7789C203.814 54.4371 200.431 57.212 197.398 60.3667C195.736 62.0901 193.812 64.0472 192.558 66.0919C192.528 66.1503 192.47 66.238 192.412 66.2964C191.158 68.0198 190.983 71.0576 191.537 73.0439C192.091 75.0886 193.666 77.2794 195.561 78.2725C197.602 79.3533 200.052 79.8791 202.297 79.1488C204.543 78.4478 206.088 77.1041 207.488 75.1471Z" fill="#598EF3"/>
<path d="M307.17 146.168V145.474C307.17 129.778 294.634 117 279.237 117H249.26C233.863 117 221.327 129.778 221.327 145.474V185.406C221.327 201.102 233.863 213.88 249.26 213.88H279.237C294.634 213.88 307.17 201.102 307.17 185.406V180.892H293.544V146.168H307.17ZM291.5 177.142C291.5 185.962 284.823 193.254 276.375 194.018L271.743 198.254H264.93L269.631 194.087H259.956L255.392 198.254L249.26 196.865L253.144 193.74C251.1 193.323 249.192 192.559 247.489 191.448L243.265 194.921L239.722 192.004L244.151 188.67C242.924 187.281 241.902 185.684 241.153 183.948L235.703 187.837V182.976L239.995 179.712C239.858 178.878 239.79 178.045 239.79 177.142V174.017L234.953 177.42V172.558L239.722 168.947V162.905L234.953 166.308V161.447L239.722 157.835V151.793L234.953 155.196V150.335L240.063 146.446C241.63 138.737 248.306 132.973 256.346 132.973H274.945C284.142 132.973 291.568 140.543 291.568 149.918V177.142H291.5Z" fill="#0D2C5E"/>
<path d="M275.149 137.14H254.711C248.715 137.14 243.81 142.14 243.81 148.252V178.114C243.81 184.226 248.715 189.226 254.711 189.226H275.149C281.144 189.226 286.05 184.226 286.05 178.114V148.252C286.05 142.14 281.144 137.14 275.149 137.14ZM271.198 171.447C270.108 172.419 268.745 173.045 267.11 173.322V177.281H263.84V173.392C261.592 173.183 259.616 172.281 258.049 170.892L259.48 167.628C261.251 169.086 263.227 169.78 265.407 169.78C266.292 169.78 267.042 169.572 267.655 169.086C268.268 168.6 268.609 168.114 268.609 167.489C268.609 167.072 268.473 166.655 268.132 166.378C267.791 166.03 267.451 165.822 267.042 165.683C266.701 165.544 266.156 165.405 265.543 165.197C264.521 164.919 263.704 164.711 263.022 164.433C262.341 164.225 261.66 163.877 260.91 163.391C260.161 162.975 259.616 162.35 259.275 161.655C258.935 160.961 258.73 160.127 258.73 159.155C258.73 157.627 259.207 156.446 260.161 155.544C261.115 154.641 262.341 154.016 263.908 153.738V150.127H267.178V153.807C268.949 154.016 270.585 154.641 272.015 155.683L270.516 158.947C269.631 158.391 268.813 157.974 268.064 157.697C267.314 157.488 266.429 157.349 265.407 157.349C264.725 157.349 264.112 157.488 263.635 157.835C263.158 158.183 262.886 158.53 262.886 159.016C262.886 159.641 263.09 160.058 263.567 160.405C264.044 160.683 264.794 161.03 265.884 161.308C267.928 161.794 269.631 162.558 270.857 163.461C272.083 164.433 272.765 165.683 272.765 167.419C272.765 169.155 272.288 170.475 271.198 171.447ZM282.643 176.031L280.599 180.892C280.599 180.892 280.599 158.669 280.599 152.418C280.599 146.168 275.83 142.696 272.424 142.696C269.018 142.696 251.304 142.696 251.304 142.696L254.029 140.612C254.029 140.612 269.018 140.612 274.468 140.612C279.918 140.612 283.325 145.474 283.325 151.724C283.325 156.585 282.643 176.031 282.643 176.031Z" fill="#0D2C5E"/>
</svg>
