<?xml version="1.0" encoding="utf-8"?>
<!-- Generator: Adobe Illustrator 25.2.1, SVG Export Plug-In . SVG Version: 6.00 Build 0)  -->
<svg version="1.1" id="Capa_1" xmlns="http://www.w3.org/2000/svg" xmlns:xlink="http://www.w3.org/1999/xlink" x="0px" y="0px"
	 viewBox="0 0 397 397" style="enable-background:new 0 0 397 397;" xml:space="preserve">
<style type="text/css">
	.st0{fill:#FF0000;}
</style>
<g>
	<path class="st0" d="M367,24.9c-1.9-1.3-4.4-1.7-6.6-0.9l-35.4,12.9v-1.8c0-8.3-6.8-15.1-15.1-15.1h-93.8
		c-8.3,0-15.1,6.8-15.1,15.1v67.8c0,8.3,6.8,15.1,15.1,15.1H310c8.3,0,15.1-6.8,15.1-15.1v-1.8l35.4,12.9c0.8,0.3,1.6,0.4,2.5,0.4
		c1.5,0,2.9-0.4,4.1-1.3c1.9-1.3,3.1-3.5,3.1-5.9V30.8C370.1,28.4,368.9,26.2,367,24.9z M318.1,102.9c0,4.5-3.6,8.1-8.1,8.1h-93.8
		c-4.5,0-8.1-3.6-8.1-8.1V35.1c0-4.5,3.6-8.1,8.1-8.1H310c4.5,0,8.1,3.6,8.1,8.1V102.9z M363.1,107.2c0,0,0,0.1-0.1,0.2
		s-0.1,0-0.2,0l-37.7-13.7V44.3l37.7-13.7c0,0,0.1,0,0.2,0c0.1,0.1,0.1,0.1,0.1,0.2V107.2z"/>
	<path class="st0" d="M337.6,135c-1.9,0-3.5,1.6-3.5,3.5V259h-304V98.1c0-6.1,5-11.1,11.1-11.1h140.4c1.9,0,3.5-1.6,3.5-3.5
		s-1.6-3.5-3.5-3.5H41.2c-10,0-18.1,8.1-18.1,18.1v192.7c0,10,8.1,18.1,18.1,18.1h97.4v54c0,0.2,0,0.3,0.1,0.5h-34.6
		c-1.9,0-3.5,1.6-3.5,3.5s1.6,3.5,3.5,3.5h149c1.9,0,3.5-1.6,3.5-3.5s-1.6-3.5-3.5-3.5h-30.6c0-0.2,0.1-0.3,0.1-0.5v-54h100.4
		c10,0,18.1-8.1,18.1-18.1V138.5C341.1,136.6,339.5,135,337.6,135z M215.6,363.5h-70.1c0-0.2,0.1-0.3,0.1-0.5v-54h70v54
		C215.6,363.2,215.6,363.3,215.6,363.5z M322.9,302H41.2c-6.1,0-11.1-5-11.1-11.1V266h304v24.9C334.1,297,329.1,302,322.9,302z"/>
	<path class="st0" d="M288.1,158.5c0-1.9-1.6-3.5-3.5-3.5h-102c-1.9,0-3.5,1.6-3.5,3.5s1.6,3.5,3.5,3.5h102
		C286.5,162,288.1,160.4,288.1,158.5z"/>
	<path class="st0" d="M181.6,214c-1.9,0-3.5,1.6-3.5,3.5s1.6,3.5,3.5,3.5h74c1.9,0,3.5-1.6,3.5-3.5s-1.6-3.5-3.5-3.5H181.6z"/>
	<path class="st0" d="M161.6,243c1.9,0,3.5-1.6,3.5-3.5v-27c0-15.2-12.3-27.5-27.5-27.5H77.6c-15.2,0-27.5,12.3-27.5,27.5v25
		c0,1.9,1.6,3.5,3.5,3.5s3.5-1.6,3.5-3.5v-25c0-11.3,9.2-20.5,20.5-20.5h59.9c11.3,0,20.5,9.2,20.5,20.5v27
		C158.1,241.4,159.6,243,161.6,243z"/>
	<path class="st0" d="M134.1,134c0-14.9-12.1-27-27-27s-27,12.1-27,27s12.1,27,27,27S134.1,148.9,134.1,134z M87.1,134
		c0-11,9-20,20-20s20,9,20,20s-9,20-20,20S87.1,145,87.1,134z"/>
</g>
</svg>
