<?xml version="1.0" encoding="utf-8"?>
<!-- Generator: Adobe Illustrator 25.2.1, SVG Export Plug-In . SVG Version: 6.00 Build 0)  -->
<svg version="1.1" id="Capa_1" xmlns="http://www.w3.org/2000/svg" xmlns:xlink="http://www.w3.org/1999/xlink" x="0px" y="0px"
	 viewBox="0 0 397 397" style="enable-background:new 0 0 397 397;" xml:space="preserve">
<style type="text/css">
	.st0{fill:#FF0000;}
</style>
<g>
	<path class="st0" d="M352.6,18.5h-310c-12.1,0-22,9.9-22,22v262c0,12.1,9.9,22,22,22h126.7v18c0,0.6-0.4,1-1,1
		c-11.3,0.3-38.4,3.1-46.5,22.4c-0.7,1.7-0.5,3.6,0.5,5.2c1,1.5,2.7,2.5,4.6,2.5h143.8c2,0,3.9-1.1,4.9-2.9c1-1.8,0.8-4-0.3-5.7
		c-4.8-7-17.1-19-46.8-21.2l-0.7-19.2h124.9c12.1,0,22-9.9,22-22v-262C374.6,28.4,364.7,18.5,352.6,18.5z M42.6,25.5h310
		c8.3,0,15,6.7,15,15v8h-340v-8C27.6,32.2,34.3,25.5,42.6,25.5z M367.6,55.5v226h-340v-226H367.6z M221.4,344.1
		c0.1,3.5,2.9,6.3,6.3,6.6c23.9,1.8,35.1,10.4,39.8,15.8H129.3c7.6-13.7,29.7-15.8,39.2-16c4.4-0.1,7.8-3.6,7.8-8v-18h44.5
		L221.4,344.1z M352.6,317.5h-310c-8.3,0-15-6.7-15-15v-14h340v14C367.6,310.8,360.8,317.5,352.6,317.5z"/>
	<path class="st0" d="M81.2,253.5h235.7c4.8,0,8.7-3.9,8.7-8.7V103.6c0-3.9-3.2-7.1-7.1-7.1h-14.9v-8.1c0-3.8-3.1-6.9-6.9-6.9
		c-14.2-0.1-62.6,0.7-95.7,15.7c-7.1-2.9-38.8-14.1-96.6-13.7c-3.8,0-6.9,3.1-6.9,6.9v6.1H79.7c-3.9,0-7.1,3.2-7.1,7.1v141.2
		C72.6,249.6,76.4,253.5,81.2,253.5z M318.5,103.5C318.5,103.5,318.6,103.5,318.5,103.5l0.1,141.3c0,0.9-0.7,1.7-1.7,1.7h-87.1
		c18.1-3.4,42.5-7.1,65.6-7.9c4-0.1,7.1-3.4,7.2-7.3l0.9-127.8H318.5z M296.6,88.4V100l-1,131.3c0,0.2-0.2,0.4-0.4,0.4
		c-37.2,1.3-77.6,10-90.6,13V103.3C236.2,89.1,282.7,88.3,296.6,88.4z M104.6,90.5c54-0.4,85.1,9.9,93,12.9v141
		c-35.2-9.9-79.3-11.5-92.4-11.8c-0.4,0-0.6-0.3-0.6-0.7V103.5V100V90.5z M79.6,103.6C79.6,103.5,79.6,103.5,79.6,103.6l18-0.1
		v128.4c0,4.1,3.4,7.6,7.5,7.7c10.5,0.2,41.3,1.3,71,6.9H81.2c-0.9,0-1.7-0.7-1.7-1.7V103.6z"/>
	<path class="st0" d="M124.2,137.5c0.3,0,29.5-0.9,50.6,7.7c0.4,0.2,0.9,0.3,1.3,0.3c1.4,0,2.7-0.8,3.2-2.2c0.7-1.8-0.1-3.8-1.9-4.6
		c-22.4-9.2-52.2-8.3-53.4-8.3c-1.9,0.1-3.4,1.7-3.4,3.6C120.6,136,122.3,137.6,124.2,137.5z"/>
	<path class="st0" d="M123.6,158.5c-1.9,0.3-3.3,2-3,3.9c0.3,1.9,2,3.3,3.9,3c0.3,0,28.3-3.7,51,7.7c0.5,0.3,1,0.4,1.6,0.4
		c1.3,0,2.5-0.7,3.1-1.9c0.9-1.7,0.2-3.8-1.6-4.7C153.9,154.5,124.8,158.4,123.6,158.5z"/>
	<path class="st0" d="M124.7,192.4c0.3,0,26.2-4.7,51.9,6.8c0.5,0.2,0.9,0.3,1.4,0.3c1.3,0,2.6-0.8,3.2-2.1c0.8-1.8,0-3.8-1.8-4.6
		c-27.7-12.3-54.9-7.5-56.1-7.2c-1.9,0.4-3.2,2.2-2.8,4.1S122.8,192.8,124.7,192.4z"/>
	<path class="st0" d="M218.7,143c0.4,1.5,1.8,2.5,3.4,2.5c0.3,0,0.7,0,1-0.1c0.3-0.1,33.5-9.8,53.5-6.9c1.9,0.3,3.7-1.1,4-3
		c0.3-1.9-1.1-3.7-3-4c-21.5-3.1-55.1,6.7-56.5,7.1C219.2,139.2,218.2,141.1,218.7,143z"/>
	<path class="st0" d="M277.8,159.6c-23.7-5.2-52.8,5.7-54,6.1c-1.8,0.7-2.7,2.7-2,4.5c0.5,1.4,1.9,2.3,3.3,2.3
		c0.4,0,0.8-0.1,1.2-0.2c0.3-0.1,28.3-10.6,50-5.9c1.9,0.4,3.8-0.8,4.2-2.7C280.9,161.9,279.7,160,277.8,159.6z"/>
	<path class="st0" d="M278.6,185.5c-26.5-4.1-55.5,5.7-56.7,6.2c-1.8,0.6-2.8,2.6-2.2,4.4c0.5,1.4,1.9,2.4,3.3,2.4
		c0.4,0,0.8-0.1,1.1-0.2c0.3-0.1,28.5-9.7,53.3-5.8c1.9,0.3,3.7-1,4-2.9C281.8,187.6,280.5,185.8,278.6,185.5z"/>
</g>
</svg>
