<?xml version="1.0" encoding="utf-8"?>
<!-- Generator: Adobe Illustrator 25.2.1, SVG Export Plug-In . SVG Version: 6.00 Build 0)  -->
<svg version="1.1" id="Capa_1" xmlns="http://www.w3.org/2000/svg" xmlns:xlink="http://www.w3.org/1999/xlink" x="0px" y="0px"
	 viewBox="0 0 488 400" style="enable-background:new 0 0 488 400;" xml:space="preserve">
<style type="text/css">
	.st0{fill:#FEECF8;}
	.st1{fill:#FFFF00;}
</style>
<g>
	<path class="st0" d="M430.9,320.5H56.1c-12.2,0-22.1-9.9-22.1-22.1V66.6c0-12.2,9.9-22.1,22.1-22.1h374.8
		c12.2,0,22.1,9.9,22.1,22.1v231.8C453,310.6,443.1,320.5,430.9,320.5z"/>
	<path d="M430.9,321.5H56.1c-12.7,0-23.1-10.4-23.1-23.1V66.6c0-12.7,10.4-23.1,23.1-23.1h374.8c12.7,0,23.1,10.4,23.1,23.1v231.8
		C454,311.1,443.6,321.5,430.9,321.5z M56.1,45.5C44.5,45.5,35,55,35,66.6v231.8c0,11.6,9.5,21.1,21.1,21.1h374.8
		c11.6,0,21.1-9.5,21.1-21.1V66.6c0-11.6-9.5-21.1-21.1-21.1H56.1z"/>
</g>
<g>
	<rect x="34" y="84.5" width="418" height="65"/>
</g>
<g>
	<circle class="st1" cx="391.9" cy="261.5" r="29.1"/>
	<path d="M391.9,291.6c-16.6,0-30.1-13.5-30.1-30.1s13.5-30.1,30.1-30.1s30.1,13.5,30.1,30.1S408.5,291.6,391.9,291.6z M391.9,233.4
		c-15.5,0-28.1,12.6-28.1,28.1s12.6,28.1,28.1,28.1c15.5,0,28.1-12.6,28.1-28.1S407.4,233.4,391.9,233.4z"/>
</g>
<g>
	<circle class="st0" cx="354.1" cy="261.5" r="29.1"/>
	<path d="M354.1,291.6c-16.6,0-30.1-13.5-30.1-30.1s13.5-30.1,30.1-30.1s30.1,13.5,30.1,30.1S370.7,291.6,354.1,291.6z M354.1,233.4
		c-15.5,0-28.1,12.6-28.1,28.1s12.6,28.1,28.1,28.1c15.5,0,28.1-12.6,28.1-28.1S369.6,233.4,354.1,233.4z"/>
</g>
</svg>
