<svg width="49" height="48" viewBox="0 0 49 48" fill="none" xmlns="http://www.w3.org/2000/svg">
<g clip-path="url(#clip0_1595_20)">
<g clip-path="url(#clip1_1595_20)">
<path d="M24.1172 6C14.1812 6 6.11719 14.064 6.11719 24C6.11719 33.936 14.1812 42 24.1172 42C34.0532 42 42.1172 33.936 42.1172 24C42.1172 14.064 34.0532 6 24.1172 6ZM32.4692 18.24C32.1992 21.084 31.0292 27.996 30.4352 31.182C30.1832 32.532 29.6792 32.982 29.2112 33.036C28.1672 33.126 27.3752 32.352 26.3672 31.686C24.7832 30.642 23.8832 29.994 22.3532 28.986C20.5712 27.816 21.7232 27.168 22.7492 26.124C23.0192 25.854 27.6272 21.66 27.7172 21.282C27.7297 21.2247 27.728 21.1653 27.7124 21.1088C27.6967 21.0524 27.6674 21.0006 27.6272 20.958C27.5192 20.868 27.3752 20.904 27.2492 20.922C27.0872 20.958 24.5672 22.632 19.6532 25.944C18.9332 26.43 18.2852 26.682 17.7092 26.664C17.0612 26.646 15.8372 26.304 14.9192 25.998C13.7852 25.638 12.9032 25.44 12.9752 24.81C13.0112 24.486 13.4612 24.162 14.3072 23.82C19.5632 21.534 23.0552 20.022 24.8012 19.302C29.8052 17.214 30.8312 16.854 31.5152 16.854C31.6592 16.854 32.0012 16.89 32.2172 17.07C32.3972 17.214 32.4512 17.412 32.4692 17.556C32.4512 17.664 32.4872 17.988 32.4692 18.24Z" fill="#EBECF0"/>
</g>
</g>
<defs>
<clipPath id="clip0_1595_20">
<rect width="48" height="48" fill="white" transform="translate(0.117188)"/>
</clipPath>
<clipPath id="clip1_1595_20">
<rect width="48" height="48" fill="white" transform="translate(0.117188)"/>
</clipPath>
</defs>
</svg>
