<svg width="48" height="48" viewBox="0 0 48 48" fill="none" xmlns="http://www.w3.org/2000/svg">
<path d="M24 6C14.0526 6 6 14.0526 6 24C6 33.9474 14.0526 42 24 42C33.9474 42 42 33.9474 42 24C42 14.0526 33.9474 6 24 6ZM33.9474 21.1579C31.4842 21.1579 29.5895 20.0211 28.2632 18.6V28.2632C28.2632 29.6842 27.8842 31.0105 27.0316 32.2421C26.2737 33.3789 25.1368 34.3263 23.8105 34.8947C22.4842 35.4632 21.0632 35.5579 19.7368 35.2737C18.3158 34.9895 17.0842 34.3263 16.1368 33.2842C15.1895 32.3368 14.4316 31.0105 14.1474 29.6842C13.8632 28.2632 14.0526 26.8421 14.5263 25.6105C15.0947 24.2842 15.9474 23.2421 17.1789 22.3895C18.3158 21.6316 19.7368 21.1579 21.1579 21.1579V24C20.3053 24 19.4526 24.2842 18.7895 24.7579C18.1263 25.2316 17.5579 25.8947 17.1789 26.6526C16.8947 27.4105 16.8 28.2632 16.8947 29.1158C17.0842 29.9684 17.4632 30.7263 18.0316 31.2947C18.6 31.8632 19.3579 32.3368 20.2105 32.4316C21.0632 32.6211 21.9158 32.5263 22.6737 32.1474C23.4316 31.8632 24.0947 31.2947 24.5684 30.5368C25.0421 29.8737 25.3263 29.0211 25.3263 28.1684V12.6316H28.1684C28.3579 13.6737 28.9263 14.9053 29.9684 16.2316C30.9158 17.4632 32.2421 18.3158 33.9474 18.3158V21.1579Z" fill="#EBECF0"/>
</svg>
