<svg width="49" height="48" viewBox="0 0 49 48" fill="none" xmlns="http://www.w3.org/2000/svg">
<g clip-path="url(#clip0_1595_10)">
<g clip-path="url(#clip1_1595_10)">
<path d="M17.4629 15.9004L29.6629 31.9004H31.5629L19.4629 15.9004H17.4629Z" fill="#EBECF0"/>
<path d="M24.5625 6C14.6625 6 6.5625 14.1 6.5625 24C6.5625 33.9 14.6625 42 24.5625 42C34.4625 42 42.5625 33.9 42.5625 24C42.5625 14.1 34.4625 6 24.5625 6ZM28.7625 34L23.4625 27L17.3625 34H13.9625L21.8625 25L13.5625 14H20.5625L25.3625 20.4L30.9625 14H34.3625L26.9625 22.5L35.5625 34H28.7625Z" fill="#EBECF0"/>
</g>
</g>
<defs>
<clipPath id="clip0_1595_10">
<rect width="48" height="48" fill="white" transform="translate(0.5625)"/>
</clipPath>
<clipPath id="clip1_1595_10">
<rect width="48" height="48" fill="white" transform="translate(0.5625)"/>
</clipPath>
</defs>
</svg>
